<svg width="30" height="30" viewBox="0 0 30 30" fill="none" xmlns="http://www.w3.org/2000/svg">
<circle cx="15" cy="15" r="15" fill="#3D3D3D"/>
<path d="M14.9997 20.7834C15.1652 20.7843 15.3273 20.736 15.4652 20.6445C15.6032 20.553 15.7107 20.4225 15.7742 20.2696C15.8377 20.1167 15.8542 19.9484 15.8216 19.7861C15.7891 19.6239 15.7089 19.4749 15.5914 19.3584L11.233 15L15.5914 10.6417C15.7466 10.4856 15.8337 10.2744 15.8337 10.0542C15.8337 9.83406 15.7466 9.62285 15.5914 9.46671C15.5139 9.38861 15.4217 9.32661 15.3202 9.2843C15.2186 9.242 15.1097 9.22021 14.9997 9.22021C14.8897 9.22021 14.7808 9.242 14.6792 9.2843C14.5777 9.32661 14.4855 9.38861 14.408 9.46671L9.46638 14.4084C9.38764 14.4856 9.325 14.5776 9.28208 14.6792C9.23917 14.7807 9.21684 14.8898 9.21638 15C9.21684 15.1103 9.23917 15.2194 9.28208 15.3209C9.325 15.4225 9.38764 15.5145 9.46638 15.5917L14.408 20.5334C14.4852 20.6121 14.5773 20.6748 14.6788 20.7177C14.7804 20.7606 14.8895 20.7829 14.9997 20.7834Z" fill="#E4E4E4"/>
<path opacity="0.3" d="M10.0499 15.8332H19.9499C20.1709 15.8332 20.3828 15.7454 20.5391 15.5891C20.6954 15.4328 20.7832 15.2209 20.7832 14.9998C20.7832 14.7788 20.6954 14.5669 20.5391 14.4106C20.3828 14.2543 20.1709 14.1665 19.9499 14.1665H10.0499C9.82886 14.1665 9.61689 14.2543 9.46061 14.4106C9.30433 14.5669 9.21654 14.7788 9.21654 14.9998C9.21654 15.2209 9.30433 15.4328 9.46061 15.5891C9.61689 15.7454 9.82886 15.8332 10.0499 15.8332Z" fill="#E4E4E4"/>
</svg>
