<svg width="30" height="30" viewBox="0 0 30 30" fill="none" xmlns="http://www.w3.org/2000/svg">
<circle cx="15" cy="15" r="15" fill="#3D3D3D"/>
<path d="M15.0003 20.7834C14.8348 20.7843 14.6727 20.736 14.5348 20.6445C14.3968 20.553 14.2893 20.4225 14.2258 20.2696C14.1623 20.1167 14.1458 19.9484 14.1784 19.7861C14.2109 19.6239 14.2911 19.4749 14.4086 19.3584L18.767 15L14.4086 10.6417C14.2534 10.4856 14.1663 10.2744 14.1663 10.0542C14.1663 9.83406 14.2534 9.62285 14.4086 9.46671C14.4861 9.38861 14.5783 9.32661 14.6798 9.2843C14.7814 9.242 14.8903 9.22021 15.0003 9.22021C15.1103 9.22021 15.2192 9.242 15.3208 9.2843C15.4223 9.32661 15.5145 9.38861 15.592 9.46671L20.5336 14.4084C20.6124 14.4856 20.675 14.5776 20.7179 14.6792C20.7608 14.7807 20.7832 14.8898 20.7836 15C20.7832 15.1103 20.7608 15.2194 20.7179 15.3209C20.675 15.4225 20.6124 15.5145 20.5336 15.5917L15.592 20.5334C15.5148 20.6121 15.4227 20.6748 15.3212 20.7177C15.2196 20.7606 15.1105 20.7829 15.0003 20.7834Z" fill="#E4E4E4"/>
<path opacity="0.3" d="M19.9501 15.8332H10.0501C9.82912 15.8332 9.61716 15.7454 9.46087 15.5891C9.30459 15.4328 9.2168 15.2209 9.2168 14.9998C9.2168 14.7788 9.30459 14.5669 9.46087 14.4106C9.61716 14.2543 9.82912 14.1665 10.0501 14.1665H19.9501C20.1711 14.1665 20.3831 14.2543 20.5394 14.4106C20.6957 14.5669 20.7835 14.7788 20.7835 14.9998C20.7835 15.2209 20.6957 15.4328 20.5394 15.5891C20.3831 15.7454 20.1711 15.8332 19.9501 15.8332Z" fill="#E4E4E4"/>
</svg>
