<svg width="24" height="26" viewBox="0 0 24 26" fill="none" xmlns="http://www.w3.org/2000/svg">
<g id="support">
<g id="information-4">
<path id="Vector" opacity="0.3" d="M9.71231 1.08761L2.83731 5.06261C2.1409 5.46321 1.56263 6.0406 1.16096 6.73639C0.759285 7.43218 0.548463 8.2217 0.549811 9.02511V16.9751C0.548463 17.7785 0.759285 18.568 1.16096 19.2638C1.56263 19.9596 2.1409 20.537 2.83731 20.9376L9.71231 24.9126C10.4086 25.3117 11.1972 25.5217 11.9998 25.5217C12.8024 25.5217 13.591 25.3117 14.2873 24.9126L21.1623 20.9376C21.8587 20.537 22.437 19.9596 22.8387 19.2638C23.2403 18.568 23.4512 17.7785 23.4498 16.9751V9.02511C23.4512 8.2217 23.2403 7.43218 22.8387 6.73639C22.437 6.0406 21.8587 5.46321 21.1623 5.06261L14.2873 1.08761C13.591 0.6885 12.8024 0.478516 11.9998 0.478516C11.1972 0.478516 10.4086 0.6885 9.71231 1.08761Z" fill="#E2FD70"/>
<path id="Vector_2" d="M12 11.25C12.3315 11.25 12.6495 11.3817 12.8839 11.6161C13.1183 11.8505 13.25 12.1685 13.25 12.5V18.325C13.25 18.6565 13.1183 18.9745 12.8839 19.2089C12.6495 19.4433 12.3315 19.575 12 19.575C11.6685 19.575 11.3505 19.4433 11.1161 19.2089C10.8817 18.9745 10.75 18.6565 10.75 18.325V12.5C10.75 12.1685 10.8817 11.8505 11.1161 11.6161C11.3505 11.3817 11.6685 11.25 12 11.25Z" fill="#E2FD70"/>
<path id="Vector_3" d="M12 9.55029C12.8629 9.55029 13.5625 8.85074 13.5625 7.98779C13.5625 7.12485 12.8629 6.42529 12 6.42529C11.1371 6.42529 10.4375 7.12485 10.4375 7.98779C10.4375 8.85074 11.1371 9.55029 12 9.55029Z" fill="#E2FD70"/>
</g>
</g>
</svg>
