<svg width="20" height="21" viewBox="0 0 20 21" fill="none" xmlns="http://www.w3.org/2000/svg">
<path d="M10.0003 16.2834C9.83477 16.2843 9.67271 16.236 9.53478 16.1445C9.39685 16.053 9.28929 15.9225 9.22581 15.7696C9.16234 15.6167 9.14583 15.4484 9.17839 15.2861C9.21095 15.1239 9.2911 14.9749 9.40862 14.8584L13.767 10.5L9.40862 6.14171C9.25341 5.98558 9.1663 5.77437 9.1663 5.55421C9.1663 5.33406 9.25341 5.12285 9.40862 4.96671C9.48609 4.88861 9.57826 4.82661 9.67981 4.7843C9.78136 4.742 9.89028 4.72021 10.0003 4.72021C10.1103 4.72021 10.2192 4.742 10.3208 4.7843C10.4223 4.82661 10.5145 4.88861 10.592 4.96671L15.5336 9.90838C15.6124 9.98556 15.675 10.0776 15.7179 10.1792C15.7608 10.2807 15.7832 10.3898 15.7836 10.5C15.7832 10.6103 15.7608 10.7194 15.7179 10.8209C15.675 10.9225 15.6124 11.0145 15.5336 11.0917L10.592 16.0334C10.5148 16.1121 10.4227 16.1748 10.3212 16.2177C10.2196 16.2606 10.1105 16.2829 10.0003 16.2834Z" fill="#E2FD70"/>
<path opacity="0.3" d="M14.9501 11.3332H5.05013C4.82912 11.3332 4.61716 11.2454 4.46087 11.0891C4.30459 10.9328 4.2168 10.7209 4.2168 10.4998C4.2168 10.2788 4.30459 10.0669 4.46087 9.91058C4.61716 9.7543 4.82912 9.6665 5.05013 9.6665H14.9501C15.1711 9.6665 15.3831 9.7543 15.5394 9.91058C15.6957 10.0669 15.7835 10.2788 15.7835 10.4998C15.7835 10.7209 15.6957 10.9328 15.5394 11.0891C15.3831 11.2454 15.1711 11.3332 14.9501 11.3332Z" fill="#E2FD70"/>
</svg>
