<svg width="40" height="40" viewBox="0 0 40 40" fill="none" xmlns="http://www.w3.org/2000/svg">
<rect width="40" height="40" rx="20" fill="#252525"/>
<path d="M28.0535 14.0753C28.021 14.0243 27.984 13.9843 27.9355 13.9478C27.551 13.6588 25.6 12.2783 23.103 12.0103C23.098 12.0098 23.079 12.0088 23.0745 12.0088C23.0255 12.0088 22.983 12.0373 22.9625 12.0788L22.828 12.3478C22.8195 12.3643 22.8145 12.3833 22.8145 12.4033C22.8145 12.4578 22.8495 12.5043 22.8985 12.5213C22.9015 12.5223 22.9225 12.5268 22.93 12.5283C25.0635 13.0423 26.3615 13.9733 27.5045 15.0008C25.481 13.9678 23.4825 13.0003 20 13.0003C16.5175 13.0003 14.5195 13.9683 12.4955 15.0008C13.6385 13.9733 14.9365 13.0423 17.07 12.5283C17.0775 12.5263 17.0985 12.5223 17.1015 12.5213C17.1505 12.5043 17.1855 12.4578 17.1855 12.4033C17.1855 12.3833 17.181 12.3643 17.1725 12.3478L17.0375 12.0788C17.017 12.0373 16.975 12.0088 16.9255 12.0088C16.921 12.0088 16.9015 12.0098 16.897 12.0103C14.4 12.2783 12.449 13.6588 12.0645 13.9478C12.016 13.9843 11.9795 14.0243 11.9465 14.0753C11.5925 14.6288 9.42203 18.2693 9.00053 24.8913C8.99603 24.9623 9.02053 25.0358 9.06803 25.0888C11.364 27.6608 14.659 27.9648 15.362 28.0003C15.4455 28.0043 15.5255 27.9678 15.5755 27.9008L16.2165 27.0463C16.2665 26.9793 16.2395 26.8853 16.161 26.8568C14.8085 26.3638 13.3025 25.5068 11.995 24.0038C13.6155 25.2288 16.06 26.5003 20 26.5003C23.94 26.5003 26.3845 25.2288 28.0045 24.0038C26.6965 25.5068 25.191 26.3633 23.8385 26.8568C23.76 26.8853 23.733 26.9793 23.783 27.0463L24.424 27.9008C24.4745 27.9678 24.554 28.0048 24.6375 28.0003C25.341 27.9643 28.6355 27.6608 30.9315 25.0888C30.979 25.0358 31.0035 24.9623 30.999 24.8913C30.578 18.2693 28.4075 14.6288 28.0535 14.0753Z" fill="url(#paint0_radial_1575_262)"/>
<path opacity="0.05" d="M23.25 23.5C24.4926 23.5 25.5 22.3807 25.5 21C25.5 19.6193 24.4926 18.5 23.25 18.5C22.0074 18.5 21 19.6193 21 21C21 22.3807 22.0074 23.5 23.25 23.5Z" fill="black"/>
<path opacity="0.05" d="M23.25 23.25C24.3546 23.25 25.25 22.2426 25.25 21C25.25 19.7574 24.3546 18.75 23.25 18.75C22.1454 18.75 21.25 19.7574 21.25 21C21.25 22.2426 22.1454 23.25 23.25 23.25Z" fill="black"/>
<path d="M23.25 23C24.2165 23 25 22.1046 25 21C25 19.8954 24.2165 19 23.25 19C22.2835 19 21.5 19.8954 21.5 21C21.5 22.1046 22.2835 23 23.25 23Z" fill="white"/>
<path opacity="0.05" d="M16.75 23.5C17.9926 23.5 19 22.3807 19 21C19 19.6193 17.9926 18.5 16.75 18.5C15.5074 18.5 14.5 19.6193 14.5 21C14.5 22.3807 15.5074 23.5 16.75 23.5Z" fill="black"/>
<path opacity="0.05" d="M16.75 23.25C17.8546 23.25 18.75 22.2426 18.75 21C18.75 19.7574 17.8546 18.75 16.75 18.75C15.6454 18.75 14.75 19.7574 14.75 21C14.75 22.2426 15.6454 23.25 16.75 23.25Z" fill="black"/>
<path d="M16.75 23C17.7165 23 18.5 22.1046 18.5 21C18.5 19.8954 17.7165 19 16.75 19C15.7835 19 15 19.8954 15 21C15 22.1046 15.7835 23 16.75 23Z" fill="white"/>
<defs>
<radialGradient id="paint0_radial_1575_262" cx="0" cy="0" r="1" gradientUnits="userSpaceOnUse" gradientTransform="translate(20 13.0048) scale(16.126)">
<stop stop-color="#8C9EFF"/>
<stop offset="0.368" stop-color="#889AF8"/>
<stop offset="0.889" stop-color="#7E8FE6"/>
<stop offset="1" stop-color="#7B8CE1"/>
</radialGradient>
</defs>
</svg>
