<svg width="112" height="60" viewBox="0 0 112 60" fill="none" xmlns="http://www.w3.org/2000/svg">
<g id="Frame 33733">
<g id="Vector">
<path d="M3.56209 42.7616C3.56884 44.238 4.27068 45.3306 5.20826 46.2976C6.9633 48.1076 9.01843 49.3182 11.6121 49.1503C12.9701 49.0624 14.3372 48.8416 15.6579 48.5099C17.7115 47.9942 18.7856 46.474 18.9646 44.4394C19.1686 42.1218 19.1765 39.7855 19.2313 37.4565C19.2501 36.6564 18.6746 36.2248 17.8318 36.1315C16.0069 35.9292 14.1843 35.6967 12.3683 35.4249C9.99054 35.069 8.19389 33.7418 6.72789 31.8849C4.76084 29.3933 3.22701 26.6622 2.21784 23.6407C2.07846 23.2234 2.01176 22.7814 1.91142 22.3508C1.97226 22.3034 2.03309 22.256 2.09393 22.2086C2.31095 22.35 2.57293 22.4516 2.73717 22.6399C3.42605 23.4296 4.12075 24.2185 4.74961 25.0562C6.87995 27.8943 10.3195 29.0901 13.7397 28.1834C14.8619 27.8859 16.0003 27.6339 17.145 27.4463C17.7547 27.3464 18.3938 27.4286 19.0803 27.4286C19.3185 19.2368 19.2913 10.971 19.1136 2.63715C20.0994 6.45533 22.3821 8.97847 26.2168 10.1987C26.2168 10.2614 26.2168 10.4829 26.2168 10.7044C26.2168 15.725 26.2163 20.7456 26.2172 25.7662C26.2173 26.8954 26.5029 27.2154 27.6028 27.3913C28.4085 27.5202 29.2159 27.6501 30.011 27.8311C31.0105 28.0586 31.9446 28.4476 32.6905 29.1939C32.6905 22.7895 32.6905 16.4067 32.6905 10.0942C33.8236 10.5216 34.9828 11.021 36.1807 11.3942C37.5609 11.8241 38.8078 11.2836 39.4942 10.1188C39.4942 10.4935 39.4976 10.8682 39.4936 11.2429C39.4681 13.618 39.4201 15.9931 39.4179 18.3682C39.4093 27.9755 39.3787 37.5831 39.4399 47.1901C39.4552 49.5814 39.9469 51.9365 40.995 54.1226C41.6935 55.5793 42.6703 56.2467 43.9144 55.969C44.6294 55.8093 45.3057 55.3984 45.9503 55.0164C46.4929 54.695 46.9568 54.2411 47.4711 53.8677C47.706 53.6971 47.9785 53.5792 48.234 53.4375C48.2964 53.4843 48.3588 53.5312 48.4212 53.5781C48.3007 53.9508 48.239 54.3574 48.0502 54.6909C46.8384 56.8313 45.0556 58.3612 42.804 59.2495C41.2122 59.8776 39.6522 59.3049 38.1851 58.6347C36.2185 57.7365 35.0082 56.091 34.099 54.1883C32.6459 51.1474 32.178 47.9051 32.2225 44.5692C32.2592 41.8239 32.3349 39.0792 32.3941 36.3343C32.3986 36.1282 32.3843 35.9175 32.4217 35.717C32.5696 34.9246 32.5097 34.7835 31.7169 34.6171C30.4194 34.3447 29.1597 34.6713 27.9014 34.9388C27.6037 35.0021 27.3108 35.0926 27.0202 35.1849C26.3088 35.411 25.9969 35.8467 25.9817 36.6017C25.9438 38.4799 26.0254 40.3705 25.8371 42.2334C25.4508 46.0561 24.0768 49.4212 21.1322 52.0565C19.5674 53.4569 17.9632 54.7315 15.9762 55.4365C11.8249 56.9093 7.90174 56.3078 4.54978 53.5308C2.31286 51.6776 0.702959 49.1726 0.13053 46.2129C-0.188405 44.5639 0.143669 42.8952 0.452471 41.2438C0.835302 39.1965 2.12958 37.7057 3.32654 36.1462C3.72705 35.6244 4.16258 35.1284 4.60401 34.6408C4.81703 34.4055 5.08084 34.2169 5.32165 34.0072C5.38599 34.0352 5.45033 34.0632 5.51467 34.0911C5.47163 34.371 5.47226 34.667 5.37729 34.9276C5.10291 35.6805 4.82363 36.4351 4.4856 37.1602C3.66225 38.9266 3.53524 40.8022 3.56209 42.7616Z" fill="url(#paint0_linear_1575_246)"/>
<path d="M75.2978 47.4342C74.2627 49.1699 72.807 50.3638 71.0856 51.2696C70.7576 51.4422 70.5475 51.3977 70.2742 51.1686C69.2874 50.3414 68.2787 49.5406 67.1896 48.6579C67.1896 49.5441 67.1896 50.334 67.1896 51.2064C65.0093 51.2891 62.8926 51.3695 60.7288 51.4516C60.7288 37.8635 60.7288 24.3158 60.7288 10.6967C60.9445 10.8123 61.1111 10.92 61.2912 10.9948C61.8935 11.2446 62.4815 11.5804 63.1098 11.706C64.6575 12.0151 65.846 11.3707 66.4176 9.82646C66.8262 8.72244 67.0204 7.53771 67.2851 6.48869C67.2851 9.33823 67.2851 12.3081 67.2851 15.278C67.2851 18.2511 67.2851 21.2243 67.2851 24.3049C67.612 23.9909 67.8654 23.7212 68.1454 23.4832C69.145 22.6336 70.3269 22.4635 71.4327 23.1615C73.6263 24.5462 75.3012 26.4442 76.1471 28.9161C76.531 30.0378 76.5859 31.3078 76.6103 32.5141C76.6726 35.6072 76.7166 38.7053 76.606 41.7956C76.5373 43.7172 76.3632 45.6733 75.2978 47.4342ZM66.8167 33.6312C66.6738 35.4988 66.4404 37.3654 66.4189 39.2345C66.4038 40.555 66.5511 41.909 66.8562 43.1923C67.1419 44.3942 68.1906 44.5986 69.1267 43.7785C69.3384 43.5929 69.516 43.3536 69.6644 43.1112C70.2846 42.0979 70.4351 40.9505 70.5012 39.799C70.6306 37.5444 70.3665 35.3145 69.9844 33.0977C69.7595 31.7927 69.1825 30.6409 68.3822 29.606C68.2515 29.437 67.9518 29.2739 67.7709 29.3107C67.6207 29.3413 67.4625 29.6579 67.4247 29.8691C67.2073 31.0829 67.0246 32.303 66.8167 33.6312Z" fill="url(#paint1_linear_1575_246)"/>
<path d="M88.0076 10.9084C88.8922 11.4205 89.7601 11.7979 90.767 11.7665C91.6307 11.7396 92.3019 11.3867 92.8063 10.6958C93.6258 9.57338 93.8435 8.25692 93.9866 6.91864C94.008 6.71822 94.0118 6.51588 94.1118 6.31729C94.1118 12.317 94.1118 18.3166 94.1118 24.3422C94.5377 23.9525 94.8937 23.5615 95.3121 23.2578C96.1611 22.6418 97.1475 22.5184 98.0321 23.0313C100.513 24.4696 102.344 26.5385 103.128 29.3378C103.483 30.6049 103.476 31.9885 103.537 33.3237C103.696 36.7678 103.69 40.2084 103.325 43.6471C102.944 47.239 101.031 49.6732 97.9238 51.2832C97.6152 51.4431 97.4153 51.395 97.1606 51.1822C96.1865 50.3683 95.1937 49.5772 94.1025 48.6921C94.0541 49.5824 94.0115 50.3676 93.9655 51.2127C91.8569 51.2911 89.7566 51.3692 87.6228 51.4486C87.6228 37.8668 87.6228 24.3123 87.6228 10.6845C87.7685 10.7687 87.8671 10.8256 88.0076 10.9084ZM93.2466 38.7015C93.3752 40.1529 93.3671 41.6341 93.6703 43.0474C93.9798 44.4896 95.2502 44.6775 96.2221 43.5376C96.4325 43.2908 96.6527 43.0123 96.7437 42.7102C96.9736 41.9474 97.1982 41.172 97.307 40.3851C97.5894 38.3429 97.2928 36.3144 97.0559 34.2879C96.8592 32.6058 96.3665 31.032 95.3189 29.6823C95.1661 29.4854 94.8502 29.3035 94.6239 29.3194C94.4817 29.3295 94.2796 29.7105 94.2513 29.9433C93.9014 32.8205 93.5785 35.7011 93.2466 38.7015Z" fill="url(#paint2_linear_1575_246)"/>
<path d="M53.5282 21.1405C53.7548 20.8188 53.9561 20.5334 54.1556 20.2466C55.0519 18.958 54.7759 17.672 54.1132 16.4085C53.9946 16.1824 53.7254 16.0365 53.5616 15.8865C54.4939 15.6651 55.1579 15.8858 55.9123 16.7544C57.0961 18.1174 57.5632 19.7712 57.6753 21.5251C57.7341 22.4449 57.6342 23.3779 57.5614 24.3013C57.5441 24.5201 57.3707 24.7422 57.2289 24.9323C56.7263 25.6062 56.191 26.2558 55.702 26.9393C55.5465 27.1567 55.4968 27.4511 55.3528 27.8316C55.6522 27.8316 55.8255 27.8566 55.9894 27.8275C56.957 27.6553 57.4436 28.023 57.4532 29.0118C57.4659 30.3124 57.4245 31.6134 57.4265 32.9141C57.431 35.7615 57.4154 38.6096 57.4822 41.4556C57.5002 42.2205 57.7239 42.999 57.9624 43.7354C58.2676 44.6778 58.514 44.7983 59.4987 44.8077C59.619 44.8088 59.7392 44.8189 59.9204 44.8279C59.9204 46.0356 59.9308 47.2282 59.9066 48.42C59.9037 48.5622 59.7335 48.7258 59.6045 48.8366C58.81 49.5189 57.9656 50.1477 57.2167 50.8766C56.6618 51.4166 56.0954 51.4381 55.5752 51.0242C54.6193 50.2637 53.7153 49.4324 52.8319 48.5858C52.4515 48.2212 52.1763 47.745 51.8202 47.2759C51.6941 47.3675 51.5595 47.4486 51.4442 47.5516C50.188 48.6734 48.9166 49.7789 47.6915 50.9342C47.3024 51.3011 46.9517 51.3535 46.4818 51.1996C45.1587 50.7663 44.1526 49.8959 43.3561 48.7996C39.8915 44.0308 39.3182 38.887 41.5328 33.4351C41.988 32.3145 42.571 31.2429 43.1451 30.176C43.8876 28.7963 45.158 27.9058 46.3213 26.9482C47.9671 25.5935 49.7181 24.3694 51.3959 23.0529C52.1339 22.4738 52.8021 21.8045 53.5282 21.1405ZM50.7835 39.5283C50.7558 37.1506 50.6985 34.7751 50.3102 32.2314C49.8042 32.7294 49.3547 33.0649 49.0394 33.4993C46.7309 36.6799 46.6906 40.0925 48.1092 43.6245C48.2972 44.0925 48.6079 44.4997 49.2264 44.366C49.9368 44.2125 50.5539 43.6251 50.5912 43.0406C50.6633 41.9091 50.7202 40.7767 50.7835 39.5283Z" fill="url(#paint3_linear_1575_246)"/>
<path d="M107.87 2.18315C107.804 7.98025 107.742 13.7155 107.68 19.3613C108.151 19.3291 108.52 19.2107 108.824 19.3048C109.295 19.4507 109.347 19.8922 109.346 20.3659C109.331 24.7452 109.337 29.1246 109.337 33.5853C109.509 33.5032 109.619 33.444 109.735 33.3966C110.332 33.1506 111.04 33.5959 111.041 34.2412C111.046 39.7366 111.044 45.2319 111.042 50.7272C111.042 50.8057 111.022 50.8841 111.007 50.99C108.923 50.99 106.86 50.99 104.753 50.99C104.738 50.8729 104.706 50.738 104.706 50.603C104.704 42.3806 104.705 34.1583 104.712 25.936C104.712 25.747 104.802 25.558 104.85 25.3691C105.024 25.4232 105.199 25.4774 105.429 25.5487C105.429 25.2943 105.429 25.0173 105.429 24.7402C105.433 20.7324 105.438 16.7246 105.442 12.7168C105.443 12.6135 105.41 12.4953 105.448 12.4095C105.601 12.0673 105.711 11.6579 105.972 11.4329C106.096 11.3259 106.524 11.577 106.864 11.6809C106.939 7.841 107.016 3.9342 107.093 0C107.364 0 107.582 0 107.873 0C107.873 0.690592 107.873 1.40593 107.87 2.18315Z" fill="url(#paint4_linear_1575_246)"/>
<path d="M84.2737 31.804C84.3501 35.1853 84.4145 38.5062 84.5147 41.826C84.5312 42.3727 84.646 42.9343 84.8174 43.4548C85.2308 44.7097 85.8089 44.9632 87.0637 44.4374C87.0637 45.3681 86.998 46.2667 87.0817 47.151C87.1706 48.09 86.8983 48.7369 86.103 49.2673C85.3398 49.7763 84.6541 50.4094 83.9666 51.0247C83.659 51.2999 83.3923 51.3273 83.028 51.179C81.3319 50.4886 80.1625 49.2169 79.2796 47.6673C78.1878 45.7509 77.5277 43.7359 77.5843 41.4511C77.686 37.3458 77.5996 33.2361 77.6426 29.1288C77.6483 28.5828 77.8634 27.9909 78.1317 27.5045C79.0458 25.8472 80.4725 24.6608 81.9395 23.5309C82.6011 23.0213 83.2988 22.5597 84.1072 21.9862C84.1644 25.3375 84.219 28.5404 84.2737 31.804Z" fill="url(#paint5_linear_1575_246)"/>
<path d="M74.7179 20.1539C73.9248 20.454 73.9444 20.2877 73.4234 19.7316C72.6916 18.9506 73.3149 18.5722 73.6582 18.0614C73.715 17.9768 73.8356 17.915 73.8533 17.8276C74.1706 16.2636 75.5052 16.4409 76.5903 16.1978C76.7478 16.1625 76.9187 16.1573 77.0797 16.174C78.0377 16.2735 78.805 15.8143 79.5543 15.3155C79.67 15.2385 79.7815 15.0783 79.7998 14.9434C79.8555 14.5322 80.0523 14.2824 80.4687 14.2885C80.9256 14.2953 81.3783 14.3516 81.5831 14.8711C81.8311 15.5 82.3421 15.6851 82.9278 15.3639C83.381 15.1154 83.8219 15.039 84.1861 15.5133C84.5728 16.0169 84.5994 16.7149 84.1858 17.0971C83.9165 17.3461 83.9241 17.5528 83.9627 17.8905C84.072 18.8482 84.1168 19.816 84.1238 20.7803C84.1251 20.9493 83.8509 21.1942 83.6515 21.2793C81.9406 22.0094 80.3133 22.879 79.1002 24.3338C78.5192 25.0305 78.083 25.8499 77.6007 26.5842C77.5968 26.5441 77.5712 26.3995 77.5711 26.2548C77.5687 24.5624 77.557 22.8699 77.5805 21.1778C77.586 20.7791 77.4583 20.5766 77.088 20.4654C76.3288 20.2375 75.5905 19.8861 74.7179 20.1539Z" fill="url(#paint6_linear_1575_246)"/>
</g>
</g>
<defs>
<linearGradient id="paint0_linear_1575_246" x1="0.000854079" y1="29.7602" x2="111.044" y2="29.7602" gradientUnits="userSpaceOnUse">
<stop stop-color="#57D37D"/>
<stop offset="1" stop-color="#E0FC70"/>
</linearGradient>
<linearGradient id="paint1_linear_1575_246" x1="0.000854079" y1="29.7602" x2="111.044" y2="29.7602" gradientUnits="userSpaceOnUse">
<stop stop-color="#57D37D"/>
<stop offset="1" stop-color="#E0FC70"/>
</linearGradient>
<linearGradient id="paint2_linear_1575_246" x1="0.000854079" y1="29.7602" x2="111.044" y2="29.7602" gradientUnits="userSpaceOnUse">
<stop stop-color="#57D37D"/>
<stop offset="1" stop-color="#E0FC70"/>
</linearGradient>
<linearGradient id="paint3_linear_1575_246" x1="0.000854079" y1="29.7602" x2="111.044" y2="29.7602" gradientUnits="userSpaceOnUse">
<stop stop-color="#57D37D"/>
<stop offset="1" stop-color="#E0FC70"/>
</linearGradient>
<linearGradient id="paint4_linear_1575_246" x1="0.000854079" y1="29.7602" x2="111.044" y2="29.7602" gradientUnits="userSpaceOnUse">
<stop stop-color="#57D37D"/>
<stop offset="1" stop-color="#E0FC70"/>
</linearGradient>
<linearGradient id="paint5_linear_1575_246" x1="0.000854079" y1="29.7602" x2="111.044" y2="29.7602" gradientUnits="userSpaceOnUse">
<stop stop-color="#57D37D"/>
<stop offset="1" stop-color="#E0FC70"/>
</linearGradient>
<linearGradient id="paint6_linear_1575_246" x1="0.000854079" y1="29.7602" x2="111.044" y2="29.7602" gradientUnits="userSpaceOnUse">
<stop stop-color="#57D37D"/>
<stop offset="1" stop-color="#E0FC70"/>
</linearGradient>
</defs>
</svg>
