<svg width="40" height="40" viewBox="0 0 40 40" fill="none" xmlns="http://www.w3.org/2000/svg">
<rect width="40" height="40" rx="20" fill="#252525"/>
<path d="M20 10C17.3478 10 14.8043 11.0536 12.9289 12.9289C11.0536 14.8043 10 17.3478 10 20C10 22.6522 11.0536 25.1957 12.9289 27.0711C14.8043 28.9464 17.3478 30 20 30C22.6522 30 25.1957 28.9464 27.0711 27.0711C28.9464 25.1957 30 22.6522 30 20C30 17.3478 28.9464 14.8043 27.0711 12.9289C25.1957 11.0536 22.6522 10 20 10Z" fill="#29B6F6"/>
<path d="M24.975 15.5L23.102 25.063C23.102 25.063 23.0215 25.5 22.4795 25.5C22.1915 25.5 22.043 25.363 22.043 25.363L17.986 21.9965L16.001 20.996L13.4535 20.3185C13.4535 20.3185 13 20.1875 13 19.8125C13 19.5 13.4665 19.351 13.4665 19.351L24.1245 15.117C24.1245 15.117 24.45 14.9995 24.6875 15C24.8335 15 25 15.0625 25 15.25C25 15.375 24.975 15.5 24.975 15.5Z" fill="white"/>
<path d="M19.5004 23.2521L17.7874 24.9391C17.7874 24.9391 17.7129 24.9966 17.6134 24.9991C17.5789 25.0001 17.5419 24.9946 17.5039 24.9776L17.9859 21.9951L19.5004 23.2521Z" fill="#B0BEC5"/>
<path d="M22.9485 17.0979C22.864 16.9879 22.708 16.9679 22.598 17.0514L16 20.9999C16 20.9999 17.053 23.9459 17.2135 24.4559C17.3745 24.9664 17.5035 24.9784 17.5035 24.9784L17.9855 21.9959L22.9015 17.4479C23.0115 17.3644 23.032 17.2079 22.9485 17.0979Z" fill="#CFD8DC"/>
</svg>
