<svg width="40" height="40" viewBox="0 0 40 40" fill="none" xmlns="http://www.w3.org/2000/svg">
<rect width="40" height="40" rx="20" fill="#252525"/>
<path d="M13.28 9.91992C11.4243 9.91992 9.91998 11.4242 9.91998 13.2799V26.7199C9.91998 28.5756 11.4243 30.0799 13.28 30.0799H26.72C28.5757 30.0799 30.08 28.5756 30.08 26.7199V13.2799C30.08 11.4242 28.5757 9.91992 26.72 9.91992H13.28ZM14.2812 14.2399H18.0912L20.7969 18.0846L24.08 14.2399H25.28L21.3387 18.8543L26.1987 25.7599H22.3897L19.25 21.2993L15.44 25.7599H14.24L18.7081 20.5296L14.2812 14.2399ZM16.1187 15.1999L22.8903 24.7999H24.3612L17.5897 15.1999H16.1187Z" fill="white"/>
</svg>
