<svg width="20" height="22" viewBox="0 0 20 22" fill="none" xmlns="http://www.w3.org/2000/svg">
<g id="education">
<g id="teacher">
<g id="Group" opacity="0.3">
<path id="Vector" d="M8.86985 21.0502L5.75985 19.8402C5.11992 19.5904 4.57036 19.1531 4.18316 18.5857C3.79595 18.0183 3.58915 17.3471 3.58985 16.6602V11.1002L9.99985 7.41016L16.3998 11.1302V16.7102C16.4023 17.3922 16.1995 18.0593 15.8179 18.6246C15.4362 19.1899 14.8934 19.6274 14.2598 19.8802L11.3898 21.0002C10.5877 21.3411 9.68487 21.359 8.86985 21.0502Z" fill="#B4B4B4"/>
</g>
<path id="Vector_2" d="M17.9207 5.24007L11.5907 1.24007C11.06 0.906424 10.4436 0.734442 9.81678 0.745096C9.18997 0.75575 8.5798 0.948579 8.0607 1.30007L2.0007 5.39007C1.56345 5.68365 1.20516 6.08031 0.957411 6.54507C0.709665 7.00982 0.580078 7.5284 0.580078 8.05507C0.580078 8.58173 0.709665 9.10031 0.957411 9.56507C1.20516 10.0298 1.56345 10.4265 2.0007 10.7201L8.2107 14.8501C8.74202 15.2099 9.369 15.4022 10.0107 15.4022C10.6524 15.4022 11.2794 15.2099 11.8107 14.8501L17.8107 10.7501V13.8901C17.8107 14.089 17.8897 14.2797 18.0304 14.4204C18.171 14.561 18.3618 14.6401 18.5607 14.6401C18.7596 14.6401 18.9504 14.561 19.091 14.4204C19.2317 14.2797 19.3107 14.089 19.3107 13.8901V8.68007C19.4682 8.03334 19.4188 7.35349 19.1694 6.73634C18.92 6.11919 18.4833 5.59585 17.9207 5.24007Z" fill="#B4B4B4"/>
</g>
</g>
</svg>
