<svg width="20" height="22" viewBox="0 0 20 22" fill="none" xmlns="http://www.w3.org/2000/svg">
<g id="education">
<g id="teacher">
<g id="Group" opacity="0.3">
<path id="Vector" d="M8.86985 21.0492L5.75985 19.8392C5.11992 19.5894 4.57036 19.1521 4.18316 18.5847C3.79595 18.0173 3.58915 17.3461 3.58985 16.6592V11.0992L9.99985 7.40918L16.3998 11.1292V16.7092C16.4023 17.3913 16.1995 18.0583 15.8179 18.6236C15.4362 19.1889 14.8934 19.6264 14.2598 19.8792L11.3898 20.9992C10.5877 21.3401 9.68487 21.358 8.86985 21.0492Z" fill="#EBFE9B"/>
</g>
<path id="Vector_2" d="M17.9187 5.23958L11.5887 1.23958C11.058 0.905935 10.4416 0.733953 9.81482 0.744607C9.18801 0.755261 8.57785 0.948091 8.05875 1.29958L1.99875 5.38958C1.5615 5.68316 1.2032 6.07982 0.955458 6.54458C0.707712 7.00934 0.578125 7.52791 0.578125 8.05458C0.578125 8.58124 0.707712 9.09982 0.955458 9.56458C1.2032 10.0293 1.5615 10.426 1.99875 10.7196L8.20875 14.8496C8.74007 15.2094 9.36704 15.4017 10.0087 15.4017C10.6505 15.4017 11.2774 15.2094 11.8087 14.8496L17.8087 10.7496V13.8896C17.8087 14.0885 17.8878 14.2793 18.0284 14.4199C18.1691 14.5606 18.3598 14.6396 18.5587 14.6396C18.7577 14.6396 18.9484 14.5606 19.0891 14.4199C19.2297 14.2793 19.3087 14.0885 19.3087 13.8896V8.67958C19.4662 8.03285 19.4168 7.353 19.1674 6.73585C18.9181 6.1187 18.4813 5.59536 17.9187 5.23958Z" fill="#EBFE9B"/>
</g>
</g>
</svg>
