<svg width="20" height="20" viewBox="0 0 20 20" fill="none" xmlns="http://www.w3.org/2000/svg">
<g id="users">
<g id="profile-circle">
<path id="Vector" opacity="0.3" d="M10 20C15.5228 20 20 15.5228 20 10C20 4.47715 15.5228 0 10 0C4.47715 0 0 4.47715 0 10C0 15.5228 4.47715 20 10 20Z" fill="#B4B4B4"/>
<path id="Vector_2" d="M9.99922 11.9398C12.0979 11.9398 13.7992 10.2385 13.7992 8.13984C13.7992 6.04116 12.0979 4.33984 9.99922 4.33984C7.90054 4.33984 6.19922 6.04116 6.19922 8.13984C6.19922 10.2385 7.90054 11.9398 9.99922 11.9398Z" fill="#B4B4B4"/>
<path id="Vector_3" d="M10 20C12.3857 20.0027 14.6927 19.1473 16.5 17.59C16.0314 16.2392 15.1537 15.068 13.9888 14.2391C12.8239 13.4102 11.4297 12.9648 10 12.9648C8.5703 12.9648 7.1761 13.4102 6.01121 14.2391C4.84631 15.068 3.96857 16.2392 3.5 17.59C5.30725 19.1473 7.61433 20.0027 10 20Z" fill="#B4B4B4"/>
</g>
</g>
</svg>
