<svg width="20" height="20" viewBox="0 0 20 20" fill="none" xmlns="http://www.w3.org/2000/svg">
<g id="delivery-logistics">
<g id="cube-3">
<path id="Vector" opacity="0.3" d="M14.05 0H5.95C2.66391 0 0 2.66391 0 5.95V14.05C0 17.3361 2.66391 20 5.95 20H14.05C17.3361 20 20 17.3361 20 14.05V5.95C20 2.66391 17.3361 0 14.05 0Z" fill="#EBFE9B"/>
<path id="Vector_2" d="M5.28984 8.33956L8.83984 10.3896C8.98438 10.4775 9.10424 10.6007 9.18819 10.7476C9.27214 10.8946 9.31744 11.0604 9.31984 11.2296V15.3296C9.31113 15.4957 9.26109 15.6571 9.17424 15.7991C9.08739 15.9411 8.96649 16.0591 8.82249 16.1425C8.67849 16.2259 8.51594 16.2721 8.34959 16.2768C8.18324 16.2815 8.01834 16.2447 7.86984 16.1696L4.31984 14.1196C4.1753 14.0316 4.05545 13.9084 3.9715 13.7615C3.88755 13.6146 3.84225 13.4487 3.83984 13.2796V9.17956C3.84855 9.01337 3.8986 8.85198 3.98545 8.71002C4.0723 8.56806 4.1932 8.45002 4.3372 8.3666C4.4812 8.28318 4.64374 8.23702 4.81009 8.2323C4.97644 8.22757 5.14134 8.26444 5.28984 8.33956ZM14.7098 8.33956L11.1598 10.3896C11.0153 10.4775 10.8954 10.6007 10.8115 10.7476C10.7276 10.8946 10.6823 11.0604 10.6798 11.2296V15.3296C10.6886 15.4957 10.7386 15.6571 10.8254 15.7991C10.9123 15.9411 11.0332 16.0591 11.1772 16.1425C11.3212 16.2259 11.4837 16.2721 11.6501 16.2768C11.8164 16.2815 11.9813 16.2447 12.1298 16.1696L15.6798 14.1196C15.8244 14.0316 15.9442 13.9084 16.0282 13.7615C16.1121 13.6146 16.1574 13.4487 16.1598 13.2796V9.17956C16.1511 9.01337 16.1011 8.85198 16.0142 8.71002C15.9274 8.56806 15.8065 8.45002 15.6625 8.3666C15.5185 8.28318 15.3559 8.23702 15.1896 8.2323C15.0232 8.22757 14.8583 8.26444 14.7098 8.33956ZM5.99984 5.88956L9.53984 3.82956C9.68964 3.73546 9.86295 3.68555 10.0398 3.68555C10.2167 3.68555 10.39 3.73546 10.5398 3.82956L14.0998 5.82956C14.2381 5.92064 14.3515 6.04461 14.43 6.19035C14.5085 6.33608 14.5496 6.49903 14.5496 6.66456C14.5496 6.83009 14.5085 6.99303 14.43 7.13877C14.3515 7.2845 14.2381 7.40847 14.0998 7.49956L10.5698 9.59956C10.4178 9.68733 10.2454 9.73353 10.0698 9.73353C9.89431 9.73353 9.72186 9.68733 9.56984 9.59956L5.99984 7.55956C5.86162 7.46847 5.74818 7.3445 5.66968 7.19877C5.59118 7.05303 5.55009 6.89009 5.55009 6.72456C5.55009 6.55903 5.59118 6.39608 5.66968 6.25035C5.74818 6.10461 5.86162 5.98064 5.99984 5.88956Z" fill="#EBFE9B"/>
</g>
</g>
</svg>
