<svg width="20" height="20" viewBox="0 0 20 20" fill="none" xmlns="http://www.w3.org/2000/svg">
<g id="delivery-logistics">
<g id="cube-3">
<path id="Vector" opacity="0.3" d="M14.05 0H5.95C2.66391 0 0 2.66391 0 5.95V14.05C0 17.3361 2.66391 20 5.95 20H14.05C17.3361 20 20 17.3361 20 14.05V5.95C20 2.66391 17.3361 0 14.05 0Z" fill="#E2FD70"/>
<path id="Vector_2" d="M5.28984 8.34005L8.83984 10.39C8.98438 10.478 9.10424 10.6012 9.18819 10.7481C9.27214 10.895 9.31744 11.0609 9.31984 11.23V15.33C9.31113 15.4962 9.26109 15.6576 9.17424 15.7996C9.08739 15.9415 8.96649 16.0596 8.82249 16.143C8.67849 16.2264 8.51594 16.2726 8.34959 16.2773C8.18324 16.282 8.01834 16.2452 7.86984 16.17L4.31984 14.12C4.1753 14.0321 4.05545 13.9089 3.9715 13.762C3.88755 13.615 3.84225 13.4492 3.83984 13.28V9.18005C3.84855 9.01386 3.8986 8.85247 3.98545 8.71051C4.0723 8.56855 4.1932 8.45051 4.3372 8.36709C4.4812 8.28367 4.64374 8.23751 4.81009 8.23278C4.97644 8.22806 5.14134 8.26493 5.28984 8.34005ZM14.7098 8.34005L11.1598 10.39C11.0153 10.478 10.8954 10.6012 10.8115 10.7481C10.7276 10.895 10.6823 11.0609 10.6798 11.23V15.33C10.6886 15.4962 10.7386 15.6576 10.8254 15.7996C10.9123 15.9415 11.0332 16.0596 11.1772 16.143C11.3212 16.2264 11.4837 16.2726 11.6501 16.2773C11.8164 16.282 11.9813 16.2452 12.1298 16.17L15.6798 14.12C15.8244 14.0321 15.9442 13.9089 16.0282 13.762C16.1121 13.615 16.1574 13.4492 16.1598 13.28V9.18005C16.1511 9.01386 16.1011 8.85247 16.0142 8.71051C15.9274 8.56855 15.8065 8.45051 15.6625 8.36709C15.5185 8.28367 15.3559 8.23751 15.1896 8.23278C15.0232 8.22806 14.8583 8.26493 14.7098 8.34005ZM5.99984 5.89005L9.53984 3.83005C9.68964 3.73595 9.86295 3.68604 10.0398 3.68604C10.2167 3.68604 10.39 3.73595 10.5398 3.83005L14.0998 5.83005C14.2381 5.92113 14.3515 6.0451 14.43 6.19084C14.5085 6.33657 14.5496 6.49951 14.5496 6.66505C14.5496 6.83058 14.5085 6.99352 14.43 7.13926C14.3515 7.28499 14.2381 7.40896 14.0998 7.50005L10.5698 9.60005C10.4178 9.68781 10.2454 9.73402 10.0698 9.73402C9.89431 9.73402 9.72186 9.68781 9.56984 9.60005L5.99984 7.56005C5.86162 7.46896 5.74818 7.34499 5.66968 7.19926C5.59118 7.05352 5.55009 6.89058 5.55009 6.72505C5.55009 6.55951 5.59118 6.39657 5.66968 6.25083C5.74818 6.1051 5.86162 5.98113 5.99984 5.89005Z" fill="#E2FD70"/>
</g>
</g>
</svg>
