<svg width="30" height="30" viewBox="0 0 30 30" fill="none" xmlns="http://www.w3.org/2000/svg">
<rect width="30" height="30" rx="2" fill="#252525"/>
<path d="M15 16.3998L10.1 21.2998C9.91665 21.4831 9.68332 21.5748 9.39999 21.5748C9.11665 21.5748 8.88332 21.4831 8.69999 21.2998C8.51665 21.1165 8.42499 20.8831 8.42499 20.5998C8.42499 20.3165 8.51665 20.0831 8.69999 19.8998L13.6 14.9998L8.69999 10.0998C8.51665 9.91647 8.42499 9.68314 8.42499 9.3998C8.42499 9.11647 8.51665 8.88314 8.69999 8.6998C8.88332 8.51647 9.11665 8.4248 9.39999 8.4248C9.68332 8.4248 9.91665 8.51647 10.1 8.6998L15 13.5998L19.9 8.6998C20.0833 8.51647 20.3167 8.4248 20.6 8.4248C20.8833 8.4248 21.1167 8.51647 21.3 8.6998C21.4833 8.88314 21.575 9.11647 21.575 9.3998C21.575 9.68314 21.4833 9.91647 21.3 10.0998L16.4 14.9998L21.3 19.8998C21.4833 20.0831 21.575 20.3165 21.575 20.5998C21.575 20.8831 21.4833 21.1165 21.3 21.2998C21.1167 21.4831 20.8833 21.5748 20.6 21.5748C20.3167 21.5748 20.0833 21.4831 19.9 21.2998L15 16.3998Z" fill="#E4E4E4"/>
</svg>
