<svg width="20" height="20" viewBox="0 0 20 20" fill="none" xmlns="http://www.w3.org/2000/svg">
<g id="general">
<g id="gift">
<path id="Vector" opacity="0.3" d="M2 5.5H18V17.13C18 17.5069 17.9258 17.8801 17.7815 18.2283C17.6373 18.5765 17.4259 18.8929 17.1594 19.1594C16.8929 19.4259 16.5765 19.6373 16.2283 19.7815C15.8801 19.9258 15.5069 20 15.13 20H4.87C4.10883 20 3.37883 19.6976 2.8406 19.1594C2.30237 18.6212 2 17.8912 2 17.13V5.5Z" fill="#EBFE9B"/>
<path id="Vector_2" d="M17.84 3H2.16C1.24321 3 0.5 3.74321 0.5 4.66V6.34C0.5 7.25679 1.24321 8 2.16 8H17.84C18.7568 8 19.5 7.25679 19.5 6.34V4.66C19.5 3.74321 18.7568 3 17.84 3Z" fill="#EBFE9B"/>
<path id="Vector_3" opacity="0.3" d="M15.8108 1.70967L14.3808 0.279666C14.2083 0.107462 13.9745 0.0107422 13.7308 0.0107422C13.4871 0.0107422 13.2533 0.107462 13.0808 0.279666L10.0008 3.34967L6.9208 0.279666C6.74831 0.107462 6.51454 0.0107422 6.2708 0.0107422C6.02706 0.0107422 5.79329 0.107462 5.6208 0.279666L4.1908 1.70967C4.01859 1.88216 3.92188 2.11593 3.92188 2.35967C3.92188 2.6034 4.01859 2.83718 4.1908 3.00967L7.5108 6.32967C7.68329 6.50187 7.91706 6.59859 8.1608 6.59859C8.40453 6.59859 8.63831 6.50187 8.8108 6.32967L10.0008 5.13967L11.1908 6.32967C11.3633 6.50187 11.5971 6.59859 11.8408 6.59859C12.0845 6.59859 12.3183 6.50187 12.4908 6.32967L15.8108 2.99967C15.98 2.8276 16.0748 2.59596 16.0748 2.35467C16.0748 2.11337 15.98 1.88173 15.8108 1.70967Z" fill="#EBFE9B"/>
<path id="Vector_4" opacity="0.3" d="M11.46 13.93L10.7 13.42C10.4923 13.2828 10.2489 13.2097 10 13.2097C9.7511 13.2097 9.50768 13.2828 9.3 13.42L8.54 13.93C8.38975 14.0264 8.21642 14.0809 8.03802 14.0877C7.85962 14.0945 7.68265 14.0534 7.52549 13.9687C7.36833 13.884 7.23672 13.7587 7.14431 13.606C7.0519 13.4532 7.00207 13.2785 7 13.1V6H13V13.1C12.9979 13.2785 12.9481 13.4532 12.8557 13.606C12.7633 13.7587 12.6317 13.884 12.4745 13.9687C12.3174 14.0534 12.1404 14.0945 11.962 14.0877C11.7836 14.0809 11.6103 14.0264 11.46 13.93Z" fill="#EBFE9B"/>
</g>
</g>
</svg>
