<svg width="30" height="30" viewBox="0 0 30 30" fill="none" xmlns="http://www.w3.org/2000/svg">
<rect width="30" height="30" rx="2" fill="#252525"/>
<path d="M7 22C6.71667 22 6.47917 21.9042 6.2875 21.7125C6.09583 21.5208 6 21.2833 6 21C6 20.7167 6.09583 20.4792 6.2875 20.2875C6.47917 20.0958 6.71667 20 7 20H23C23.2833 20 23.5208 20.0958 23.7125 20.2875C23.9042 20.4792 24 20.7167 24 21C24 21.2833 23.9042 21.5208 23.7125 21.7125C23.5208 21.9042 23.2833 22 23 22H7ZM13 16C12.7167 16 12.4792 15.9042 12.2875 15.7125C12.0958 15.5208 12 15.2833 12 15C12 14.7167 12.0958 14.4792 12.2875 14.2875C12.4792 14.0958 12.7167 14 13 14H23C23.2833 14 23.5208 14.0958 23.7125 14.2875C23.9042 14.4792 24 14.7167 24 15C24 15.2833 23.9042 15.5208 23.7125 15.7125C23.5208 15.9042 23.2833 16 23 16H13ZM7 10C6.71667 10 6.47917 9.90417 6.2875 9.7125C6.09583 9.52083 6 9.28333 6 9C6 8.71667 6.09583 8.47917 6.2875 8.2875C6.47917 8.09583 6.71667 8 7 8H23C23.2833 8 23.5208 8.09583 23.7125 8.2875C23.9042 8.47917 24 8.71667 24 9C24 9.28333 23.9042 9.52083 23.7125 9.7125C23.5208 9.90417 23.2833 10 23 10H7Z" fill="#E4E4E4"/>
</svg>
