<svg width="75" height="40" viewBox="0 0 75 40" fill="none" xmlns="http://www.w3.org/2000/svg">
<g id="Frame 33733">
<g id="Vector">
<path d="M2.37221 28.5078C2.3767 29.492 2.84459 30.2204 3.46965 30.865C4.63968 32.0717 6.00977 32.8788 7.73891 32.7669C8.64421 32.7083 9.55561 32.5611 10.4361 32.3399C11.8051 31.9961 12.5212 30.9827 12.6406 29.6263C12.7765 28.0812 12.7818 26.5237 12.8183 24.971C12.8309 24.4376 12.4472 24.1499 11.8854 24.0876C10.6688 23.9528 9.45367 23.7978 8.24303 23.6166C6.65784 23.3794 5.46007 22.4946 4.48274 21.2566C3.17137 19.5956 2.14882 17.7748 1.47604 15.7605C1.38311 15.4823 1.33865 15.1876 1.27176 14.9006C1.31231 14.8689 1.35287 14.8373 1.39343 14.8057C1.53811 14.9 1.71276 14.9678 1.82226 15.0933C2.28151 15.6197 2.74464 16.1456 3.16388 16.7042C4.58411 18.5962 6.87717 19.3934 9.1573 18.7889C9.90541 18.5906 10.6643 18.4226 11.4275 18.2975C11.834 18.2309 12.26 18.2857 12.7176 18.2857C12.8765 12.8245 12.8583 7.31401 12.7399 1.7581C13.3971 4.30356 14.9189 5.98565 17.4753 6.79915C17.4753 6.84091 17.4753 6.98859 17.4753 7.13626C17.4753 10.4833 17.475 13.8304 17.4756 17.1775C17.4757 17.9302 17.6661 18.1436 18.3993 18.2609C18.9365 18.3468 19.4747 18.4334 20.0048 18.5541C20.6712 18.7057 21.2939 18.965 21.7911 19.4626C21.7911 15.193 21.7911 10.9378 21.7911 6.72947C22.5465 7.01437 23.3194 7.34735 24.118 7.59611C25.0381 7.88272 25.8694 7.52242 26.3269 6.74583C26.3269 6.99565 26.3292 7.24549 26.3266 7.49527C26.3095 9.07868 26.2775 10.6621 26.2761 12.2455C26.2703 18.6504 26.25 25.0554 26.2908 31.46C26.3009 33.0543 26.6287 34.6244 27.3275 36.0817C27.7932 37.0529 28.4443 37.4978 29.2737 37.3126C29.7504 37.2062 30.2012 36.9323 30.631 36.6776C30.9927 36.4633 31.302 36.1607 31.6449 35.9118C31.8015 35.7981 31.9832 35.7195 32.1535 35.625C32.1951 35.6562 32.2367 35.6875 32.2783 35.7187C32.198 35.9672 32.1568 36.2383 32.0309 36.4606C31.2231 37.8875 30.0345 38.9075 28.5335 39.4997C27.4722 39.9184 26.4323 39.5366 25.4542 39.0898C24.1431 38.491 23.3363 37.394 22.7302 36.1255C21.7614 34.0982 21.4495 31.9367 21.4792 29.7128C21.5036 27.8826 21.5541 26.0528 21.5936 24.2229C21.5965 24.0855 21.587 23.945 21.612 23.8114C21.7105 23.2831 21.6706 23.189 21.1421 23.078C20.2771 22.8965 19.4373 23.1142 18.5984 23.2926C18.3999 23.3348 18.2047 23.3951 18.011 23.4566C17.5367 23.6073 17.3287 23.8978 17.3186 24.4011C17.2933 25.6532 17.3477 26.9137 17.2222 28.1556C16.9647 30.7041 16.0487 32.9474 14.0856 34.7043C13.0424 35.638 11.9729 36.4877 10.6483 36.9576C7.88073 37.9395 5.2653 37.5385 3.03066 35.6872C1.53938 34.4517 0.466117 32.7817 0.084497 30.8086C-0.128126 29.7092 0.0932563 28.5968 0.299124 27.4959C0.554345 26.131 1.4172 25.1371 2.21517 24.0975C2.48217 23.7496 2.77253 23.4189 3.06682 23.0939C3.20883 22.937 3.3847 22.8113 3.54524 22.6715C3.58814 22.6901 3.63103 22.7088 3.67392 22.7274C3.64523 22.914 3.64565 23.1113 3.58234 23.2851C3.39942 23.787 3.21323 24.29 2.98787 24.7735C2.43897 25.951 2.3543 27.2014 2.37221 28.5078Z" fill="url(#paint0_linear_1524_10902)"/>
<path d="M50.196 31.6228C49.5059 32.78 48.5355 33.5759 47.3879 34.1798C47.1692 34.2948 47.0291 34.2651 46.847 34.1124C46.1891 33.5609 45.5166 33.027 44.7905 32.4386C44.7905 33.0294 44.7905 33.556 44.7905 34.1376C43.337 34.1927 41.9259 34.2463 40.4833 34.3011C40.4833 25.2423 40.4833 16.2106 40.4833 7.13111C40.6271 7.20818 40.7382 7.28002 40.8583 7.32984C41.2598 7.49643 41.6518 7.7203 42.0707 7.80397C43.1024 8.01006 43.8948 7.58044 44.2759 6.55097C44.5483 5.81496 44.6777 5.02514 44.8542 4.32579C44.8542 6.22549 44.8542 8.2054 44.8542 10.1853C44.8542 12.1674 44.8542 14.1495 44.8542 16.2033C45.0721 15.9939 45.2411 15.8141 45.4277 15.6555C46.0941 15.089 46.8821 14.9757 47.6193 15.441C49.0817 16.3641 50.1982 17.6295 50.7622 19.2774C51.0181 20.0252 51.0548 20.8718 51.071 21.6761C51.1126 23.7381 51.1419 25.8036 51.0682 27.8637C51.0223 29.1448 50.9063 30.4489 50.196 31.6228ZM44.5419 22.4208C44.4467 23.6659 44.291 24.9103 44.2768 26.1563C44.2667 27.0366 44.3649 27.9393 44.5683 28.7949C44.7587 29.5962 45.4579 29.7324 46.0819 29.1856C46.2231 29.062 46.3415 28.9024 46.4404 28.7408C46.8539 28.0653 46.9542 27.3003 46.9983 26.5326C47.0845 25.0296 46.9085 23.543 46.6538 22.0651C46.5038 21.1951 46.1191 20.4273 45.5856 19.7374C45.4985 19.6247 45.2987 19.5159 45.1781 19.5405C45.078 19.5609 44.9725 19.7719 44.9473 19.9127C44.8023 20.7219 44.6805 21.5354 44.5419 22.4208Z" fill="url(#paint1_linear_1524_10902)"/>
<path d="M58.6692 7.27228C59.2589 7.61364 59.8376 7.86524 60.5088 7.84435C61.0846 7.82642 61.5321 7.59114 61.8683 7.13053C62.4147 6.38226 62.5598 5.50461 62.6552 4.61243C62.6695 4.47881 62.672 4.34392 62.7387 4.21153C62.7387 8.21131 62.7387 12.2111 62.7387 16.2281C63.0226 15.9684 63.2599 15.7076 63.5389 15.5052C64.1049 15.0945 64.7625 15.0123 65.3522 15.3542C67.0061 16.313 68.2265 17.6923 68.7495 19.5585C68.9863 20.4033 68.9814 21.3256 69.0225 22.2158C69.1284 24.5119 69.1241 26.8056 68.8807 29.098C68.6265 31.4927 67.3512 33.1155 65.28 34.1888C65.0743 34.2954 64.941 34.2633 64.7712 34.1215C64.1218 33.5789 63.4599 33.0514 62.7325 32.4614C62.7002 33.0549 62.6718 33.5784 62.6412 34.1418C61.2354 34.1941 59.8352 34.2461 58.4127 34.299C58.4127 25.2446 58.4127 16.2082 58.4127 7.12303C58.5098 7.17912 58.5756 7.21706 58.6692 7.27228ZM62.1619 25.801C62.2476 26.7686 62.2422 27.7561 62.4444 28.6983C62.6506 29.6597 63.4976 29.785 64.1456 29.0251C64.2858 28.8606 64.4326 28.6749 64.4933 28.4735C64.6465 27.9649 64.7963 27.448 64.8688 26.9234C65.0571 25.5619 64.8594 24.2096 64.7014 22.8586C64.5703 21.7372 64.2418 20.688 63.5434 19.7882C63.4415 19.6569 63.2309 19.5357 63.0801 19.5463C62.9853 19.553 62.8506 19.807 62.8317 19.9622C62.5984 21.8804 62.3831 23.8007 62.1619 25.801Z" fill="url(#paint2_linear_1524_10902)"/>
<path d="M35.6829 14.0937C35.834 13.8792 35.9682 13.6889 36.1012 13.4978C36.6987 12.6387 36.5148 11.7813 36.073 10.939C35.9939 10.7882 35.8144 10.691 35.7052 10.591C36.3268 10.4434 36.7694 10.5906 37.2723 11.1696C38.0615 12.0782 38.3729 13.1808 38.4477 14.35C38.4869 14.9633 38.4203 15.5853 38.3717 16.2009C38.3602 16.3467 38.2446 16.4948 38.1501 16.6215C37.815 17.0708 37.4581 17.5039 37.1322 17.9595C37.0285 18.1045 36.9954 18.3008 36.8994 18.5544C37.0989 18.5544 37.2145 18.5711 37.3237 18.5516C37.9688 18.4369 38.2932 18.682 38.2996 19.3412C38.3081 20.2082 38.2805 21.0756 38.2818 21.9428C38.2848 23.841 38.2744 25.7397 38.319 27.6371C38.3309 28.147 38.4801 28.666 38.639 29.1569C38.8425 29.7852 39.0068 29.8655 39.6633 29.8718C39.7435 29.8725 39.8236 29.8793 39.9444 29.8852C39.9444 30.6904 39.9514 31.4855 39.9352 32.28C39.9333 32.3748 39.8198 32.4839 39.7338 32.5577C39.2042 33.0126 38.6412 33.4318 38.1419 33.9178C37.772 34.2778 37.3944 34.2921 37.0476 34.0161C36.4104 33.5091 35.8077 32.9549 35.2188 32.3906C34.9651 32.1475 34.7817 31.83 34.5443 31.5173C34.4602 31.5783 34.3705 31.6324 34.2936 31.7011C33.4562 32.4489 32.6086 33.1859 31.7918 33.9562C31.5324 34.2007 31.2986 34.2357 30.9854 34.1331C30.1033 33.8442 29.4325 33.2639 28.9015 32.533C26.5918 29.3539 26.2096 25.9247 27.686 22.2901C27.9895 21.543 28.3782 20.8286 28.7609 20.1174C29.2559 19.1975 30.1028 18.6039 30.8783 17.9655C31.9755 17.0623 33.1429 16.2463 34.2614 15.3686C34.7534 14.9826 35.1989 14.5364 35.6829 14.0937ZM33.8531 26.3522C33.8347 24.7671 33.7965 23.1834 33.5376 21.4876C33.2003 21.8196 32.9006 22.0432 32.6904 22.3329C31.1514 24.4533 31.1245 26.7283 32.0703 29.083C32.1956 29.395 32.4027 29.6665 32.8151 29.5773C33.2887 29.475 33.7001 29.0834 33.7249 28.6937C33.773 27.9394 33.8109 27.1845 33.8531 26.3522Z" fill="url(#paint3_linear_1524_10902)"/>
<path d="M71.9108 1.45544C71.8671 5.32016 71.8252 9.14364 71.784 12.9075C72.0983 12.8861 72.3442 12.8072 72.5469 12.8699C72.8611 12.9671 72.8958 13.2615 72.8947 13.5773C72.8846 16.4968 72.8887 19.4164 72.8887 22.3902C73.0034 22.3355 73.077 22.296 73.1539 22.2644C73.5523 22.1004 74.0241 22.3973 74.0245 22.8275C74.028 26.491 74.0265 30.1546 74.0255 33.8181C74.0255 33.8704 74.0121 33.9227 74.0024 33.9933C72.6127 33.9933 71.2375 33.9933 69.8326 33.9933C69.8228 33.9153 69.8016 33.8253 69.8015 33.7353C69.8005 28.2538 69.8005 22.7722 69.8056 17.2907C69.8057 17.1647 69.8654 17.0387 69.8973 16.9127C70.0137 16.9488 70.1301 16.9849 70.2834 17.0325C70.2834 16.8629 70.2832 16.6782 70.2834 16.4935C70.2864 13.8216 70.2894 11.1497 70.2924 8.47784C70.2925 8.40898 70.2707 8.33023 70.2963 8.273C70.3984 8.04486 70.4716 7.77195 70.6456 7.62197C70.7284 7.55059 71.0137 7.71801 71.2398 7.78724C71.2901 5.22733 71.3413 2.6228 71.3929 0C71.5734 0 71.719 0 71.9127 0C71.9127 0.460395 71.9127 0.937287 71.9108 1.45544Z" fill="url(#paint4_linear_1524_10902)"/>
<path d="M56.18 21.2027C56.2309 23.4569 56.2738 25.6708 56.3406 27.884C56.3516 28.2485 56.4281 28.6229 56.5424 28.9699C56.818 29.8065 57.2034 29.9754 58.04 29.625C58.04 30.2454 57.9961 30.8445 58.0519 31.434C58.1112 32.06 57.9297 32.4912 57.3995 32.8449C56.8907 33.1842 56.4335 33.6063 55.9752 34.0164C55.7702 34.2 55.5924 34.2182 55.3495 34.1194C54.2187 33.6591 53.4391 32.8112 52.8506 31.7782C52.1227 30.5006 51.6826 29.1572 51.7203 27.634C51.7881 24.8972 51.7305 22.1574 51.7592 19.4192C51.763 19.0552 51.9064 18.6606 52.0853 18.3363C52.6947 17.2315 53.6458 16.4405 54.6238 15.6872C55.0648 15.3476 55.53 15.0398 56.0689 14.6575C56.1071 16.8917 56.1435 19.0269 56.18 21.2027Z" fill="url(#paint5_linear_1524_10902)"/>
<path d="M49.8094 13.436C49.2807 13.636 49.2938 13.5251 48.9464 13.1544C48.4586 12.6338 48.8741 12.3815 49.103 12.0409C49.1408 11.9845 49.2212 11.9434 49.233 11.8851C49.4445 10.8424 50.3343 10.9606 51.0577 10.7985C51.1627 10.775 51.2766 10.7715 51.384 10.7827C52.0226 10.849 52.5342 10.5429 53.0337 10.2103C53.1108 10.159 53.1851 10.0522 53.1973 9.96228C53.2345 9.68813 53.3657 9.52159 53.6433 9.52569C53.9479 9.53021 54.2497 9.56777 54.3862 9.91404C54.5516 10.3333 54.8922 10.4567 55.2827 10.2426C55.5848 10.077 55.8788 10.026 56.1215 10.3422C56.3794 10.6779 56.3971 11.1433 56.1214 11.3981C55.9418 11.5641 55.9469 11.7019 55.9726 11.927C56.0455 12.5654 56.0754 13.2107 56.08 13.8535C56.0809 13.9662 55.8981 14.1295 55.7651 14.1862C54.6245 14.6729 53.5397 15.2526 52.7309 16.2226C52.3436 16.687 52.0528 17.2333 51.7312 17.7228C51.7287 17.6961 51.7116 17.5997 51.7115 17.5032C51.71 16.375 51.7021 15.2466 51.7178 14.1185C51.7215 13.8527 51.6363 13.7177 51.3895 13.6436C50.8833 13.4917 50.3911 13.2574 49.8094 13.436Z" fill="url(#paint6_linear_1524_10902)"/>
</g>
</g>
<defs>
<linearGradient id="paint0_linear_1524_10902" x1="-0.0019534" y1="19.8401" x2="74.0267" y2="19.8401" gradientUnits="userSpaceOnUse">
<stop stop-color="#57D37D"/>
<stop offset="1" stop-color="#E0FC70"/>
</linearGradient>
<linearGradient id="paint1_linear_1524_10902" x1="-0.0019534" y1="19.8401" x2="74.0267" y2="19.8401" gradientUnits="userSpaceOnUse">
<stop stop-color="#57D37D"/>
<stop offset="1" stop-color="#E0FC70"/>
</linearGradient>
<linearGradient id="paint2_linear_1524_10902" x1="-0.0019534" y1="19.8401" x2="74.0267" y2="19.8401" gradientUnits="userSpaceOnUse">
<stop stop-color="#57D37D"/>
<stop offset="1" stop-color="#E0FC70"/>
</linearGradient>
<linearGradient id="paint3_linear_1524_10902" x1="-0.0019534" y1="19.8401" x2="74.0267" y2="19.8401" gradientUnits="userSpaceOnUse">
<stop stop-color="#57D37D"/>
<stop offset="1" stop-color="#E0FC70"/>
</linearGradient>
<linearGradient id="paint4_linear_1524_10902" x1="-0.0019534" y1="19.8401" x2="74.0267" y2="19.8401" gradientUnits="userSpaceOnUse">
<stop stop-color="#57D37D"/>
<stop offset="1" stop-color="#E0FC70"/>
</linearGradient>
<linearGradient id="paint5_linear_1524_10902" x1="-0.0019534" y1="19.8401" x2="74.0267" y2="19.8401" gradientUnits="userSpaceOnUse">
<stop stop-color="#57D37D"/>
<stop offset="1" stop-color="#E0FC70"/>
</linearGradient>
<linearGradient id="paint6_linear_1524_10902" x1="-0.0019534" y1="19.8401" x2="74.0267" y2="19.8401" gradientUnits="userSpaceOnUse">
<stop stop-color="#57D37D"/>
<stop offset="1" stop-color="#E0FC70"/>
</linearGradient>
</defs>
</svg>
