<svg width="20" height="21" viewBox="0 0 20 21" fill="none" xmlns="http://www.w3.org/2000/svg">
<g id="business">
<g id="chart">
<path id="Vector" d="M11.0002 3.94001C11.0002 4.55001 11.2402 4.94001 11.6002 5.00001C12.8719 5.36393 13.99 6.13332 14.7842 7.19113C15.5785 8.24893 16.0054 9.53723 16.0002 10.86C15.9986 11.3692 15.9348 11.8763 15.8102 12.37C15.7557 12.5585 15.7666 12.7599 15.841 12.9414C15.9155 13.1229 16.0491 13.274 16.2202 13.37L17.8502 14.37C18.0136 14.4637 18.1964 14.5184 18.3845 14.5296C18.5725 14.5408 18.7606 14.5083 18.934 14.4347C19.1074 14.3611 19.2614 14.2483 19.3839 14.1053C19.5064 13.9622 19.5941 13.7927 19.6402 13.61C19.8902 12.7151 20.0114 11.7891 20.0002 10.86C20.019 8.61348 19.289 6.42467 17.9254 4.63919C16.5618 2.8537 14.6424 1.57325 12.4702 1.00001C12.2883 0.957665 12.099 0.958349 11.9175 1.00201C11.7359 1.04567 11.5671 1.1311 11.4243 1.2515C11.2816 1.37191 11.1689 1.52396 11.0953 1.69557C11.0216 1.86718 10.9891 2.0536 11.0002 2.24001V3.94001Z" fill="#E2FD70"/>
<path id="Vector_2" opacity="0.3" d="M16.8504 16C17.0103 16.0922 17.1475 16.2191 17.2517 16.3715C17.3559 16.5239 17.4245 16.6978 17.4524 16.8803C17.4802 17.0628 17.4666 17.2492 17.4126 17.4257C17.3586 17.6022 17.2656 17.7643 17.1404 17.9C16.2195 18.867 15.1117 19.6368 13.8844 20.1628C12.6571 20.6888 11.3357 20.96 10.0004 20.96C8.66505 20.96 7.34365 20.6888 6.11631 20.1628C4.88897 19.6368 3.78126 18.867 2.86035 17.9C2.73516 17.7643 2.6421 17.6022 2.58809 17.4257C2.53408 17.2492 2.5205 17.0628 2.54835 16.8803C2.57621 16.6978 2.64478 16.5239 2.749 16.3715C2.85321 16.2191 2.99039 16.0922 3.15035 16L4.78035 15.05C4.93658 14.958 5.1184 14.9189 5.29864 14.9388C5.47889 14.9586 5.64788 15.0362 5.78035 15.16C6.8943 16.2738 8.40507 16.8996 9.98035 16.8996C11.5556 16.8996 13.0664 16.2738 14.1804 15.16C14.3128 15.0362 14.4818 14.9586 14.6621 14.9388C14.8423 14.9189 15.0241 14.958 15.1804 15.05L16.8504 16ZM3.78035 13.33C3.95144 13.234 4.08504 13.0829 4.15947 12.9014C4.2339 12.7199 4.24478 12.5185 4.19035 12.33C4.06894 11.8493 4.00516 11.3558 4.00035 10.86C3.99507 9.53723 4.42204 8.24893 5.2163 7.19113C6.01055 6.13332 7.12861 5.36393 8.40035 5.00001C8.577 4.9457 8.73113 4.83529 8.83939 4.68552C8.94766 4.53575 9.00417 4.35478 9.00035 4.17001V2.24001C9.01144 2.0536 8.97888 1.86718 8.90524 1.69557C8.83161 1.52396 8.71894 1.37191 8.5762 1.2515C8.43347 1.1311 8.2646 1.04567 8.08304 1.00201C7.90147 0.958349 7.71223 0.957665 7.53035 1.00001C5.35811 1.57325 3.43867 2.8537 2.07511 4.63919C0.71155 6.42467 -0.0184554 8.61348 0.000354603 10.86C-0.00339407 11.7624 0.117755 12.6609 0.360355 13.53C0.406407 13.7127 0.494129 13.8822 0.616648 14.0253C0.739166 14.1683 0.893152 14.2811 1.06654 14.3547C1.23993 14.4283 1.42801 14.4608 1.61604 14.4496C1.80408 14.4384 1.98696 14.3837 2.15035 14.29L3.78035 13.33Z" fill="#E2FD70"/>
</g>
</g>
</svg>
