<svg width="24" height="24" viewBox="0 0 24 24" fill="none" xmlns="http://www.w3.org/2000/svg">
<path opacity="0.3" d="M15.45 6.00012C15.4032 4.94968 14.9446 3.95991 14.1736 3.245C13.4025 2.53009 12.3809 2.14753 11.33 2.18012H6.99997C5.9422 2.13674 4.91037 2.51446 4.1306 3.2305C3.35083 3.94654 2.88672 4.9425 2.83997 6.00012V18.0001C2.88414 19.0595 3.34714 20.058 4.12719 20.7762C4.90725 21.4944 5.94054 21.8735 6.99997 21.8301H11.37C12.4158 21.852 13.4285 21.4633 14.1912 20.7474C14.9539 20.0314 15.4057 19.0452 15.45 18.0001V6.00012Z" fill="#9C9C9C"/>
<path d="M8.68994 11.2502H18.5999L16.9999 9.61023C16.8595 9.4696 16.7806 9.27898 16.7806 9.08023C16.7806 8.88148 16.8595 8.69086 16.9999 8.55023C17.0689 8.47947 17.1513 8.42324 17.2423 8.38484C17.3334 8.34644 17.4311 8.32666 17.5299 8.32666C17.6287 8.32666 17.7265 8.34644 17.8176 8.38484C17.9086 8.42324 17.991 8.47947 18.0599 8.55023L20.9899 11.4702C21.1304 11.6109 21.2093 11.8015 21.2093 12.0002C21.2093 12.199 21.1304 12.3896 20.9899 12.5302L17.9999 15.4502C17.931 15.5208 17.8486 15.5767 17.7575 15.6145C17.6664 15.6523 17.5686 15.6713 17.4699 15.6702C17.3714 15.6707 17.2738 15.6515 17.1827 15.6137C17.0917 15.5759 17.0092 15.5203 16.9399 15.4502C16.7995 15.3096 16.7206 15.119 16.7206 14.9202C16.7206 14.7215 16.7995 14.5309 16.9399 14.3902L18.5899 12.7502H8.68994C8.49103 12.7502 8.30026 12.6712 8.15961 12.5306C8.01896 12.3899 7.93994 12.1991 7.93994 12.0002C7.93994 11.8013 8.01896 11.6106 8.15961 11.4699C8.30026 11.3292 8.49103 11.2502 8.68994 11.2502Z" fill="#9C9C9C"/>
</svg>
