<svg width="40" height="40" viewBox="0 0 40 40" fill="none" xmlns="http://www.w3.org/2000/svg">
<rect width="40" height="40" rx="4" fill="#E2FD70" fill-opacity="0.1"/>
<path opacity="0.3" d="M24.0206 9.97303L15.8807 10.0171C12.5891 10.0349 9.93521 12.7177 9.95302 16.0092L9.99674 24.0891C10.0145 27.3807 12.6973 30.0346 15.9889 30.0168L24.1288 29.9727C27.4203 29.9549 30.0743 27.2721 30.0564 23.9806L30.0127 15.9007C29.9949 12.6091 27.3121 9.95522 24.0206 9.97303Z" fill="#E2FD70"/>
<path d="M20 23.7099C22.0986 23.7099 23.8 22.0085 23.8 19.9099C23.8 17.8112 22.0986 16.1099 20 16.1099C17.9013 16.1099 16.2 17.8112 16.2 19.9099C16.2 22.0085 17.9013 23.7099 20 23.7099Z" fill="#E2FD70"/>
<path d="M26.5 29.4698C26.0267 28.1237 25.1472 26.9577 23.9829 26.1328C22.8186 25.308 21.4269 24.865 20 24.865C18.5731 24.865 17.1814 25.308 16.0171 26.1328C14.8528 26.9577 13.9733 28.1237 13.5 29.4698C14.2843 29.8279 15.1379 30.0089 16 29.9998H24.13C24.9476 29.9843 25.7537 29.804 26.5 29.4698Z" fill="#E2FD70"/>
</svg>
