<svg width="28" height="28" viewBox="0 0 28 28" fill="none" xmlns="http://www.w3.org/2000/svg">
<path d="M21.9099 13.9184L17.2432 9.25177C17.1526 9.14737 17.0318 9.07377 16.8975 9.0412C16.7632 9.00863 16.6221 9.0187 16.4938 9.07002C16.3655 9.12135 16.2564 9.21137 16.1816 9.32757C16.1068 9.44377 16.0701 9.58039 16.0765 9.71843V13.4868H6.63818C6.40612 13.4868 6.18356 13.579 6.01947 13.743C5.85537 13.9071 5.76318 14.1297 5.76318 14.3618C5.76318 14.5938 5.85537 14.8164 6.01947 14.9805C6.18356 15.1446 6.40612 15.2368 6.63818 15.2368H16.1465V19.0168C16.1401 19.1548 16.1768 19.2914 16.2516 19.4076C16.3264 19.5238 16.4355 19.6139 16.5638 19.6652C16.6921 19.7165 16.8332 19.7266 16.9675 19.694C17.1018 19.6614 17.2226 19.5878 17.3132 19.4834L21.9799 14.8168C22.0831 14.6856 22.1332 14.5204 22.1202 14.3539C22.1072 14.1875 22.0321 14.0321 21.9099 13.9184Z" fill="#D3CE57"/>
<path opacity="0.3" d="M25.5264 22.3534C25.2943 22.3534 25.0717 22.2612 24.9077 22.0971C24.7436 21.933 24.6514 21.7105 24.6514 21.4784V6.52173C24.6514 6.28966 24.7436 6.0671 24.9077 5.90301C25.0717 5.73892 25.2943 5.64673 25.5264 5.64673C25.7584 5.64673 25.981 5.73892 26.1451 5.90301C26.3092 6.0671 26.4014 6.28966 26.4014 6.52173V21.4784C26.4029 21.5937 26.3814 21.7082 26.338 21.8151C26.2945 21.922 26.2302 22.019 26.1486 22.1006C26.067 22.1822 25.9699 22.2466 25.8631 22.29C25.7562 22.3334 25.6417 22.355 25.5264 22.3534Z" fill="#D3CE57"/>
</svg>
