<svg width="28" height="28" viewBox="0 0 28 28" fill="none" xmlns="http://www.w3.org/2000/svg">
<path opacity="0.3" d="M19.0402 7.17505H6.66183C4.27136 7.17505 2.3335 9.11291 2.3335 11.5034V20.3467C2.3335 22.7372 4.27136 24.675 6.66183 24.675H19.0402C21.4306 24.675 23.3685 22.7372 23.3685 20.3467V11.5034C23.3685 9.11291 21.4306 7.17505 19.0402 7.17505Z" fill="#57D37D"/>
<path d="M22.0968 18.3165H24.5818C24.8695 18.3165 25.1455 18.2022 25.349 17.9987C25.5524 17.7953 25.6668 17.5193 25.6668 17.2315V14.6182C25.6668 14.3304 25.5524 14.0545 25.349 13.851C25.1455 13.6475 24.8695 13.5332 24.5818 13.5332H22.0968C21.7854 13.5331 21.4771 13.5953 21.1901 13.7162C20.9032 13.8371 20.6433 14.0142 20.4259 14.2371C20.2084 14.46 20.0378 14.7242 19.924 15.014C19.8102 15.3039 19.7556 15.6136 19.7634 15.9249C19.7556 16.2362 19.8102 16.5459 19.924 16.8357C20.0378 17.1256 20.2084 17.3897 20.4259 17.6126C20.6433 17.8355 20.9032 18.0126 21.1901 18.1335C21.4771 18.2544 21.7854 18.3166 22.0968 18.3165Z" fill="#57D37D"/>
<path d="M2.3335 11.4916C2.33658 10.3457 2.79397 9.24778 3.60535 8.43858C4.41674 7.62938 5.5159 7.17497 6.66183 7.17497H17.5002C17.4788 6.14442 17.0535 5.1635 16.316 4.44342C15.5784 3.72333 14.5876 3.32169 13.5568 3.32497H6.2885C5.76967 3.32344 5.25564 3.4243 4.77586 3.62178C4.29609 3.81927 3.86 4.10949 3.49259 4.47581C3.12518 4.84214 2.83368 5.27737 2.63478 5.75656C2.43588 6.23575 2.33349 6.74948 2.3335 7.2683V11.4916Z" fill="#57D37D"/>
<path d="M13.8717 13.2183H6.68506C6.45299 13.2183 6.23043 13.1261 6.06634 12.962C5.90225 12.7979 5.81006 12.5753 5.81006 12.3433C5.81006 12.1112 5.90225 11.8886 6.06634 11.7245C6.23043 11.5604 6.45299 11.4683 6.68506 11.4683H13.8717C14.1038 11.4683 14.3263 11.5604 14.4904 11.7245C14.6545 11.8886 14.7467 12.1112 14.7467 12.3433C14.7467 12.5753 14.6545 12.7979 14.4904 12.962C14.3263 13.1261 14.1038 13.2183 13.8717 13.2183Z" fill="#57D37D"/>
</svg>
