<svg width="18" height="18" viewBox="0 0 18 18" fill="none" xmlns="http://www.w3.org/2000/svg">
<path opacity="0.3" d="M9 16.5C13.1421 16.5 16.5 13.1421 16.5 9C16.5 4.85786 13.1421 1.5 9 1.5C4.85786 1.5 1.5 4.85786 1.5 9C1.5 13.1421 4.85786 16.5 9 16.5Z" fill="#5AC4CB"/>
<path d="M12.1801 10.5974C12.185 11.0597 12.0547 11.5133 11.8051 11.9024C11.5335 12.3027 11.1537 12.6174 10.7101 12.8099C10.1695 13.038 9.58652 13.148 9.00005 13.1324C8.32258 13.1576 7.65031 13.0051 7.05005 12.6899C6.6908 12.4767 6.38744 12.1811 6.16505 11.8274C5.95407 11.5194 5.83447 11.158 5.82005 10.7849C5.81459 10.6922 5.8277 10.5994 5.85861 10.5118C5.88952 10.4242 5.93761 10.3437 6.00005 10.2749C6.06746 10.2065 6.14813 10.1526 6.23712 10.1165C6.32611 10.0804 6.42154 10.0628 6.51755 10.0649C6.67816 10.0632 6.83352 10.1221 6.95255 10.2299C7.08863 10.3673 7.19128 10.5341 7.25255 10.7174C7.34241 10.9398 7.45289 11.1532 7.58255 11.3549C7.71037 11.5365 7.88365 11.6814 8.08505 11.7749C8.34943 11.9002 8.64026 11.9594 8.93255 11.9474C9.34904 11.9665 9.76022 11.8479 10.1026 11.6099C10.2407 11.5176 10.3541 11.3927 10.4326 11.2462C10.511 11.0997 10.5522 10.9361 10.5526 10.7699C10.5571 10.6513 10.5375 10.5329 10.495 10.4221C10.4524 10.3112 10.3878 10.2101 10.3051 10.1249C10.1507 9.9597 9.96096 9.83151 9.75005 9.74994C9.48755 9.65994 9.15005 9.56994 8.71505 9.46494C8.20732 9.36329 7.71198 9.2074 7.23755 8.99994C6.86837 8.83717 6.54975 8.57813 6.31505 8.24994C6.0907 7.91067 5.98036 7.5087 6.00005 7.10244C5.99242 6.68406 6.11854 6.27416 6.36005 5.93244C6.61493 5.57333 6.96958 5.29691 7.38005 5.13744C7.89782 4.94468 8.44776 4.85302 9.00005 4.86744C9.432 4.85801 9.8626 4.9188 10.2751 5.04744C10.6017 5.14967 10.905 5.31533 11.1676 5.53494C11.3843 5.70729 11.5609 5.92485 11.6851 6.17244C11.7913 6.37097 11.8479 6.59227 11.8501 6.81744C11.8513 7.0095 11.7788 7.19473 11.6476 7.33494C11.5855 7.40956 11.5074 7.46923 11.4191 7.50948C11.3308 7.54974 11.2346 7.56955 11.1376 7.56744C10.9831 7.57859 10.8301 7.53029 10.7101 7.43244C10.5892 7.29312 10.4859 7.13947 10.4026 6.97494C10.277 6.70687 10.0984 6.46704 9.87755 6.26994C9.58551 6.06289 9.22904 5.96713 8.87255 5.99994C8.51402 5.98137 8.15902 6.07866 7.86005 6.27744C7.74608 6.34656 7.65131 6.44323 7.58447 6.55856C7.51763 6.6739 7.48087 6.80418 7.47755 6.93744C7.47375 7.08519 7.51854 7.23011 7.60505 7.34994C7.70217 7.47458 7.82494 7.57689 7.96505 7.64994C8.11278 7.73304 8.26858 7.80089 8.43005 7.85244L9.18005 8.05494C9.5959 8.15099 10.0065 8.26865 10.4101 8.40744C10.741 8.51652 11.0542 8.67316 11.3401 8.87244C11.5933 9.05009 11.7993 9.28697 11.9401 9.56244C12.1032 9.88272 12.1856 10.238 12.1801 10.5974V10.5974Z" fill="#5AC4CB"/>
<path d="M8.9999 14.0401C8.9248 14.0452 8.84944 14.0351 8.7783 14.0106C8.70715 13.986 8.64166 13.9474 8.58571 13.897C8.52976 13.8466 8.48448 13.7856 8.45257 13.7174C8.42065 13.6492 8.40274 13.5753 8.3999 13.5001L8.4749 4.50012C8.4749 4.4266 8.4895 4.35381 8.51786 4.28598C8.54621 4.21815 8.58777 4.15663 8.6401 4.105C8.69243 4.05336 8.75451 4.01264 8.82271 3.98519C8.89091 3.95775 8.96389 3.94413 9.0374 3.94512V3.94512C9.1853 3.94511 9.32725 4.00334 9.43252 4.10721C9.5378 4.21108 9.59793 4.35224 9.5999 4.50012L9.5249 13.5001C9.52133 13.6397 9.46532 13.7727 9.36802 13.8728C9.27072 13.9729 9.13928 14.0326 8.9999 14.0401V14.0401Z" fill="#5AC4CB"/>
</svg>
