<svg width="28" height="28" viewBox="0 0 28 28" fill="none" xmlns="http://www.w3.org/2000/svg">
<circle cx="14" cy="14" r="13" fill="#E2FD70" stroke="#BCD35A" stroke-width="2"/>
<path d="M12.95 15.35L11.3375 13.7375C11.2 13.6 11.025 13.5313 10.8125 13.5313C10.6 13.5313 10.425 13.6 10.2875 13.7375C10.15 13.875 10.0813 14.05 10.0813 14.2625C10.0813 14.475 10.15 14.65 10.2875 14.7875L12.425 16.925C12.575 17.075 12.75 17.15 12.95 17.15C13.15 17.15 13.325 17.075 13.475 16.925L17.7125 12.6875C17.85 12.55 17.9188 12.375 17.9188 12.1625C17.9188 11.95 17.85 11.775 17.7125 11.6375C17.575 11.5 17.4 11.4313 17.1875 11.4313C16.975 11.4313 16.8 11.5 16.6625 11.6375L12.95 15.35ZM14 21.5C12.9625 21.5 11.9875 21.3031 11.075 20.9094C10.1625 20.5156 9.36875 19.9813 8.69375 19.3063C8.01875 18.6313 7.48438 17.8375 7.09063 16.925C6.69688 16.0125 6.5 15.0375 6.5 14C6.5 12.9625 6.69688 11.9875 7.09063 11.075C7.48438 10.1625 8.01875 9.36875 8.69375 8.69375C9.36875 8.01875 10.1625 7.48438 11.075 7.09063C11.9875 6.69688 12.9625 6.5 14 6.5C15.0375 6.5 16.0125 6.69688 16.925 7.09063C17.8375 7.48438 18.6313 8.01875 19.3063 8.69375C19.9813 9.36875 20.5156 10.1625 20.9094 11.075C21.3031 11.9875 21.5 12.9625 21.5 14C21.5 15.0375 21.3031 16.0125 20.9094 16.925C20.5156 17.8375 19.9813 18.6313 19.3063 19.3063C18.6313 19.9813 17.8375 20.5156 16.925 20.9094C16.0125 21.3031 15.0375 21.5 14 21.5Z" fill="#0D0D0D"/>
</svg>
