<svg width="21" height="20" viewBox="0 0 21 20" fill="none" xmlns="http://www.w3.org/2000/svg">
<path opacity="0.3" d="M10.4998 18.3334C15.1022 18.3334 18.8332 14.6025 18.8332 10.0001C18.8332 5.39771 15.1022 1.66675 10.4998 1.66675C5.89746 1.66675 2.1665 5.39771 2.1665 10.0001C2.1665 14.6025 5.89746 18.3334 10.4998 18.3334Z" fill="#57D37D"/>
<path d="M10.2583 13.0917L15.2583 8.09174C15.336 8.01404 15.3977 7.9218 15.4397 7.82028C15.4818 7.71876 15.5034 7.60996 15.5034 7.50007C15.5034 7.39019 15.4818 7.28138 15.4397 7.17987C15.3977 7.07835 15.336 6.98611 15.2583 6.90841C15.1806 6.83071 15.0884 6.76907 14.9869 6.72702C14.8853 6.68497 14.7765 6.66333 14.6667 6.66333C14.5568 6.66333 14.448 6.68497 14.3465 6.72702C14.2449 6.76907 14.1527 6.83071 14.075 6.90841L9.66666 11.3251L6.92499 8.57507C6.76807 8.41815 6.55524 8.33 6.33333 8.33C6.11141 8.33 5.89858 8.41815 5.74166 8.57507C5.58474 8.73199 5.49658 8.94482 5.49658 9.16674C5.49658 9.38866 5.58474 9.60149 5.74166 9.75841L9.07499 13.0917C9.15246 13.1698 9.24463 13.2318 9.34618 13.2741C9.44773 13.3165 9.55665 13.3382 9.66666 13.3382C9.77667 13.3382 9.88559 13.3165 9.98714 13.2741C10.0887 13.2318 10.1809 13.1698 10.2583 13.0917Z" fill="#57D37D"/>
</svg>
