<svg width="24" height="24" viewBox="0 0 24 24" fill="none" xmlns="http://www.w3.org/2000/svg">
<circle cx="12" cy="12" r="11.5" fill="#252525" stroke="#3D3D3D"/>
<path opacity="0.3" d="M11.9993 20.3337C16.6017 20.3337 20.3327 16.6027 20.3327 12.0003C20.3327 7.39795 16.6017 3.66699 11.9993 3.66699C7.39698 3.66699 3.66602 7.39795 3.66602 12.0003C3.66602 16.6027 7.39698 20.3337 11.9993 20.3337Z" fill="#B4B4B4"/>
<path d="M13.1753 12.0004L15.5336 9.64207C15.6208 9.56736 15.6917 9.47543 15.7417 9.37204C15.7917 9.26866 15.8198 9.15605 15.8243 9.04128C15.8287 8.92651 15.8094 8.81207 15.7675 8.70513C15.7256 8.59819 15.662 8.50107 15.5808 8.41986C15.4996 8.33865 15.4025 8.2751 15.2955 8.2332C15.1886 8.19131 15.0742 8.17197 14.9594 8.1764C14.8446 8.18084 14.732 8.20894 14.6286 8.25896C14.5252 8.30898 14.4333 8.37983 14.3586 8.46707L12.0003 10.8254L9.64194 8.46707C9.48252 8.33055 9.27746 8.25921 9.06773 8.26731C8.858 8.27541 8.65905 8.36235 8.51063 8.51076C8.36222 8.65918 8.27528 8.85813 8.26718 9.06786C8.25908 9.27759 8.33041 9.48265 8.46694 9.64207L10.8253 12.0004L8.46694 14.3587C8.31173 14.5149 8.22461 14.7261 8.22461 14.9462C8.22461 15.1664 8.31173 15.3776 8.46694 15.5337C8.62307 15.6889 8.83428 15.7761 9.05444 15.7761C9.27459 15.7761 9.4858 15.6889 9.64194 15.5337L12.0003 13.1754L14.3586 15.5337C14.5147 15.6889 14.7259 15.7761 14.9461 15.7761C15.1663 15.7761 15.3775 15.6889 15.5336 15.5337C15.6888 15.3776 15.7759 15.1664 15.7759 14.9462C15.7759 14.7261 15.6888 14.5149 15.5336 14.3587L13.1753 12.0004Z" fill="#B4B4B4"/>
</svg>
