<svg width="24" height="24" viewBox="0 0 24 24" fill="none" xmlns="http://www.w3.org/2000/svg">
<path opacity="0.3" d="M16.19 2H7.81C4.60123 2 2 4.60123 2 7.81V16.19C2 19.3988 4.60123 22 7.81 22H16.19C19.3988 22 22 19.3988 22 16.19V7.81C22 4.60123 19.3988 2 16.19 2Z" fill="#132C1A"/>
<path d="M11.7102 15.7099L17.7102 9.70994C17.8034 9.6167 17.8774 9.50601 17.9278 9.38419C17.9783 9.26237 18.0043 9.1318 18.0043 8.99994C18.0043 8.86808 17.9783 8.73751 17.9278 8.61569C17.8774 8.49387 17.8034 8.38318 17.7102 8.28994C17.6169 8.1967 17.5063 8.12274 17.3844 8.07228C17.2626 8.02182 17.132 7.99585 17.0002 7.99585C16.8683 7.99585 16.7378 8.02182 16.6159 8.07228C16.4941 8.12274 16.3834 8.1967 16.2902 8.28994L11.0002 13.5899L7.71019 10.2899C7.52188 10.1016 7.26649 9.99585 7.00019 9.99585C6.73388 9.99585 6.47849 10.1016 6.29019 10.2899C6.10188 10.4782 5.99609 10.7336 5.99609 10.9999C5.99609 11.2662 6.10188 11.5216 6.29019 11.7099L10.2902 15.7099C10.3831 15.8037 10.4937 15.8781 10.6156 15.9288C10.7375 15.9796 10.8682 16.0057 11.0002 16.0057C11.1322 16.0057 11.2629 15.9796 11.3848 15.9288C11.5066 15.8781 11.6172 15.8037 11.7102 15.7099Z" fill="#132C1A"/>
</svg>
