<svg width="40" height="40" viewBox="0 0 40 40" fill="none" xmlns="http://www.w3.org/2000/svg">
<path opacity="0.3" d="M19.9997 36.6666C29.2044 36.6666 36.6663 29.2047 36.6663 19.9999C36.6663 10.7952 29.2044 3.33325 19.9997 3.33325C10.7949 3.33325 3.33301 10.7952 3.33301 19.9999C3.33301 29.2047 10.7949 36.6666 19.9997 36.6666Z" fill="#57D37D"/>
<path d="M19.5167 26.1832L29.5166 16.1832C29.672 16.0278 29.7953 15.8434 29.8794 15.6403C29.9635 15.4373 30.0068 15.2197 30.0068 14.9999C30.0068 14.7801 29.9635 14.5625 29.8794 14.3595C29.7953 14.1564 29.672 13.972 29.5166 13.8166C29.3612 13.6612 29.1768 13.5379 28.9737 13.4538C28.7707 13.3697 28.5531 13.3264 28.3333 13.3264C28.1136 13.3264 27.8959 13.3697 27.6929 13.4538C27.4899 13.5379 27.3054 13.6612 27.15 13.8166L18.3333 22.6499L12.85 17.1499C12.5361 16.8361 12.1105 16.6598 11.6667 16.6598C11.2228 16.6598 10.7972 16.8361 10.4833 17.1499C10.1695 17.4637 9.99316 17.8894 9.99316 18.3332C9.99316 18.7771 10.1695 19.2027 10.4833 19.5166L17.15 26.1832C17.3049 26.3395 17.4893 26.4634 17.6924 26.5481C17.8955 26.6327 18.1133 26.6762 18.3333 26.6762C18.5533 26.6762 18.7712 26.6327 18.9743 26.5481C19.1774 26.4634 19.3617 26.3395 19.5167 26.1832V26.1832Z" fill="#57D37D"/>
</svg>
