<svg width="120" height="120" viewBox="0 0 120 120" fill="none" xmlns="http://www.w3.org/2000/svg">
<rect width="120" height="120" rx="60" fill="#57D37D"/>
<path opacity="0.3" d="M60.0013 93.3327C78.4108 93.3327 93.3346 78.4088 93.3346 59.9994C93.3346 41.5899 78.4108 26.666 60.0013 26.666C41.5918 26.666 26.668 41.5899 26.668 59.9994C26.668 78.4088 41.5918 93.3327 60.0013 93.3327Z" fill="#0D0D0D"/>
<path d="M59.0353 72.366L79.0352 52.366C79.346 52.0552 79.5926 51.6862 79.7608 51.2801C79.929 50.8741 80.0156 50.4388 80.0156 49.9993C80.0156 49.5598 79.929 49.1246 79.7608 48.7185C79.5926 48.3124 79.346 47.9434 79.0352 47.6326C78.7245 47.3219 78.3555 47.0753 77.9494 46.9071C77.5433 46.7389 77.1081 46.6523 76.6686 46.6523C76.2291 46.6523 75.7938 46.7389 75.3878 46.9071C74.9817 47.0753 74.6127 47.3219 74.3019 47.6326L56.6686 65.2993L45.7019 54.2993C45.0742 53.6716 44.2229 53.319 43.3353 53.319C42.4476 53.319 41.5963 53.6716 40.9686 54.2993C40.3409 54.927 39.9883 55.7783 39.9883 56.666C39.9883 57.5537 40.3409 58.405 40.9686 59.0327L54.3019 72.366C54.6118 72.6784 54.9805 72.9264 55.3867 73.0956C55.7929 73.2649 56.2285 73.352 56.6686 73.352C57.1086 73.352 57.5443 73.2649 57.9505 73.0956C58.3567 72.9264 58.7254 72.6784 59.0353 72.366Z" fill="#0D0D0D"/>
</svg>
