<svg width="102" height="68" viewBox="0 0 102 68" fill="none" xmlns="http://www.w3.org/2000/svg">
<rect x="53.5" y="10" width="48" height="48" rx="24" fill="#D3CE57"/>
<path opacity="0.3" d="M77.5003 47.3334C84.8641 47.3334 90.8337 41.3638 90.8337 34C90.8337 26.6362 84.8641 20.6667 77.5003 20.6667C70.1365 20.6667 64.167 26.6362 64.167 34C64.167 41.3638 70.1365 47.3334 77.5003 47.3334Z" fill="#252525"/>
<path d="M83.1676 35.0001H77.501C77.2368 34.9966 76.9845 34.8901 76.7977 34.7033C76.6109 34.5166 76.5044 34.2642 76.501 34.0001V26.0001C76.501 25.7348 76.6063 25.4805 76.7939 25.293C76.9814 25.1054 77.2358 25.0001 77.501 25.0001C77.7662 25.0001 78.0205 25.1054 78.2081 25.293C78.3956 25.4805 78.501 25.7348 78.501 26.0001V33.0267H83.1676C83.4329 33.0267 83.6872 33.1321 83.8748 33.3196C84.0623 33.5072 84.1676 33.7615 84.1676 34.0267C84.1676 34.2919 84.0623 34.5463 83.8748 34.7338C83.6872 34.9214 83.4329 35.0267 83.1676 35.0267V35.0001Z" fill="#252525"/>
<rect x="2.5" y="2" width="64" height="64" rx="32" fill="#57D37D"/>
<rect x="2.5" y="2" width="64" height="64" rx="32" stroke="#25241E" stroke-width="4"/>
<path opacity="0.3" d="M34.4997 50.6666C43.7044 50.6666 51.1663 43.2047 51.1663 34C51.1663 24.7952 43.7044 17.3333 34.4997 17.3333C25.2949 17.3333 17.833 24.7952 17.833 34C17.833 43.2047 25.2949 50.6666 34.4997 50.6666Z" fill="#0D0D0D"/>
<path d="M34.0167 40.1833L44.0166 30.1833C44.172 30.0279 44.2953 29.8434 44.3794 29.6404C44.4635 29.4373 44.5068 29.2197 44.5068 29C44.5068 28.7802 44.4635 28.5626 44.3794 28.3595C44.2953 28.1565 44.172 27.972 44.0166 27.8166C43.8612 27.6612 43.6768 27.538 43.4737 27.4539C43.2707 27.3698 43.0531 27.3265 42.8333 27.3265C42.6136 27.3265 42.3959 27.3698 42.1929 27.4539C41.9899 27.538 41.8054 27.6612 41.65 27.8166L32.8333 36.65L27.35 31.15C27.0361 30.8361 26.6105 30.6598 26.1667 30.6598C25.7228 30.6598 25.2972 30.8361 24.9833 31.15C24.6695 31.4638 24.4932 31.8895 24.4932 32.3333C24.4932 32.7771 24.6695 33.2028 24.9833 33.5166L31.65 40.1833C31.8049 40.3395 31.9893 40.4635 32.1924 40.5481C32.3955 40.6327 32.6133 40.6763 32.8333 40.6763C33.0533 40.6763 33.2712 40.6327 33.4743 40.5481C33.6774 40.4635 33.8617 40.3395 34.0167 40.1833Z" fill="#0D0D0D"/>
</svg>
