<svg width="61" height="60" viewBox="0 0 61 60" fill="none" xmlns="http://www.w3.org/2000/svg">
<rect x="0.5" width="60" height="60" rx="30" fill="#E26666"/>
<path opacity="0.3" d="M30.5002 46.6666C39.7049 46.6666 47.1668 39.2047 47.1668 29.9999C47.1668 20.7952 39.7049 13.3333 30.5002 13.3333C21.2954 13.3333 13.8335 20.7952 13.8335 29.9999C13.8335 39.2047 21.2954 46.6666 30.5002 46.6666Z" fill="#252525"/>
<path d="M32.8501 29.9998L37.5667 25.2832C37.7412 25.1337 37.8829 24.9499 37.9829 24.7431C38.083 24.5363 38.1392 24.3111 38.148 24.0816C38.1569 23.852 38.1182 23.6232 38.0344 23.4093C37.9507 23.1954 37.8236 23.0012 37.6611 22.8387C37.4987 22.6763 37.3045 22.5492 37.0906 22.4654C36.8767 22.3816 36.6478 22.343 36.4183 22.3518C36.1888 22.3607 35.9635 22.4169 35.7568 22.5169C35.55 22.617 35.3661 22.7587 35.2167 22.9332L30.5001 27.6498L25.7834 22.9332C25.4645 22.6601 25.0544 22.5174 24.635 22.5336C24.2155 22.5498 23.8176 22.7237 23.5208 23.0206C23.224 23.3174 23.0501 23.7153 23.0339 24.1347C23.0177 24.5542 23.1603 24.9643 23.4334 25.2832L28.1501 29.9998L23.4334 34.7165C23.123 35.0288 22.9487 35.4512 22.9487 35.8915C22.9487 36.3318 23.123 36.7542 23.4334 37.0665C23.7457 37.3769 24.1681 37.5511 24.6084 37.5511C25.0487 37.5511 25.4711 37.3769 25.7834 37.0665L30.5001 32.3498L35.2167 37.0665C35.529 37.3769 35.9514 37.5511 36.3917 37.5511C36.832 37.5511 37.2544 37.3769 37.5667 37.0665C37.8771 36.7542 38.0514 36.3318 38.0514 35.8915C38.0514 35.4512 37.8771 35.0288 37.5667 34.7165L32.8501 29.9998Z" fill="#252525"/>
</svg>
