<svg width="61" height="60" viewBox="0 0 61 60" fill="none" xmlns="http://www.w3.org/2000/svg">
<rect x="0.5" width="60" height="60" rx="30" fill="#57D37D"/>
<path opacity="0.3" d="M30.4999 46.6666C39.7047 46.6666 47.1666 39.2047 47.1666 29.9999C47.1666 20.7952 39.7047 13.3333 30.4999 13.3333C21.2952 13.3333 13.8333 20.7952 13.8333 29.9999C13.8333 39.2047 21.2952 46.6666 30.4999 46.6666Z" fill="#0D0D0D"/>
<path d="M30.0167 36.1832L40.0166 26.1832C40.172 26.0278 40.2953 25.8434 40.3794 25.6403C40.4635 25.4373 40.5068 25.2197 40.5068 24.9999C40.5068 24.7801 40.4635 24.5625 40.3794 24.3595C40.2953 24.1564 40.172 23.972 40.0166 23.8166C39.8612 23.6612 39.6768 23.5379 39.4737 23.4538C39.2707 23.3697 39.0531 23.3264 38.8333 23.3264C38.6136 23.3264 38.3959 23.3697 38.1929 23.4538C37.9899 23.5379 37.8054 23.6612 37.65 23.8166L28.8333 32.6499L23.35 27.1499C23.0361 26.8361 22.6105 26.6598 22.1667 26.6598C21.7228 26.6598 21.2972 26.8361 20.9833 27.1499C20.6695 27.4637 20.4932 27.8894 20.4932 28.3332C20.4932 28.7771 20.6695 29.2027 20.9833 29.5166L27.65 36.1832C27.8049 36.3395 27.9893 36.4634 28.1924 36.5481C28.3955 36.6327 28.6133 36.6762 28.8333 36.6762C29.0533 36.6762 29.2712 36.6327 29.4743 36.5481C29.6774 36.4634 29.8617 36.3395 30.0167 36.1832Z" fill="#0D0D0D"/>
</svg>
