<svg width="24" height="24" viewBox="0 0 24 24" fill="none" xmlns="http://www.w3.org/2000/svg">
<path opacity="0.1" d="M16.609 1H7.391C3.86135 1 1 3.86135 1 7.391V16.609C1 20.1387 3.86135 23 7.391 23H16.609C20.1387 23 23 20.1387 23 16.609V7.391C23 3.86135 20.1387 1 16.609 1Z" fill="#E2FD70"/>
<g opacity="0.3">
<path d="M15.8289 17.4812H8.09891C7.92409 17.48 7.75389 17.425 7.61135 17.3238C7.46881 17.2226 7.36082 17.0801 7.302 16.9154L4.11439 7.65569C4.05027 7.49348 4.04114 7.31472 4.08841 7.14682C4.13567 6.97893 4.23671 6.83118 4.37603 6.72623C4.51536 6.62129 4.68526 6.56496 4.85968 6.56588C5.03411 6.56679 5.20341 6.62491 5.34162 6.73131L8.52923 9.02632C8.61728 9.09123 8.71915 9.1349 8.82688 9.1539C8.93461 9.17291 9.04528 9.16673 9.15022 9.13587C9.25517 9.105 9.35155 9.05028 9.43184 8.97598C9.51212 8.90168 9.57413 8.80982 9.61302 8.70757L11.2068 4.54786C11.2527 4.37905 11.3529 4.23002 11.4918 4.12377C11.6308 4.01753 11.8009 3.95996 11.9758 3.95996C12.1508 3.95996 12.3209 4.01753 12.4598 4.12377C12.5988 4.23002 12.699 4.37905 12.7448 4.54786L14.2908 8.73148C14.3294 8.835 14.3916 8.92808 14.4725 9.00332C14.5533 9.07855 14.6507 9.13385 14.7567 9.16481C14.8628 9.19577 14.9746 9.20153 15.0832 9.18164C15.1919 9.16175 15.2944 9.11675 15.3826 9.05023L18.6738 6.60381C18.8106 6.485 18.9839 6.41637 19.1649 6.40924C19.346 6.40211 19.5241 6.4569 19.6698 6.56458C19.8156 6.67227 19.9203 6.82641 19.9667 7.00158C20.013 7.17675 19.9983 7.3625 19.9249 7.52819L16.6258 16.9154C16.5746 17.0848 16.4685 17.2324 16.3242 17.3348C16.1799 17.4373 16.0057 17.4888 15.8289 17.4812Z" fill="#E2FD70"/>
</g>
<path d="M13.9982 14.1104H10.0137C9.85518 14.1104 9.70316 14.0474 9.59107 13.9353C9.47899 13.8232 9.41602 13.6712 9.41602 13.5127C9.41602 13.3542 9.47899 13.2022 9.59107 13.0901C9.70316 12.978 9.85518 12.915 10.0137 12.915H13.9982C14.1567 12.915 14.3087 12.978 14.4208 13.0901C14.5329 13.2022 14.5959 13.3542 14.5959 13.5127C14.5959 13.6712 14.5329 13.8232 14.4208 13.9353C14.3087 14.0474 14.1567 14.1104 13.9982 14.1104Z" fill="#E2FD70"/>
<path d="M16.084 19.96H7.93166C7.77315 19.96 7.62113 19.897 7.50904 19.7849C7.39695 19.6728 7.33398 19.5208 7.33398 19.3623C7.33398 19.2038 7.39695 19.0518 7.50904 18.9397C7.62113 18.8276 7.77315 18.7646 7.93166 18.7646H16.084C16.2425 18.7646 16.3945 18.8276 16.5066 18.9397C16.6187 19.0518 16.6816 19.2038 16.6816 19.3623C16.6816 19.5208 16.6187 19.6728 16.5066 19.7849C16.3945 19.897 16.2425 19.96 16.084 19.96Z" fill="#E2FD70"/>
</svg>
