<svg width="46" height="46" viewBox="0 0 46 46" fill="none" xmlns="http://www.w3.org/2000/svg">
<rect width="46" height="46" fill="#272727"/>
<path opacity="0.3" d="M32.5014 30.4199L29.3314 27.4199C28.7287 28.1959 28.0063 28.871 27.1914 29.4199L30.4514 32.5199C30.5885 32.68 30.758 32.8092 30.9487 32.899C31.1394 32.9887 31.3469 33.037 31.5577 33.0406C31.7684 33.0442 31.9775 33.0031 32.1712 32.9199C32.3649 32.8368 32.5387 32.7134 32.6812 32.5581C32.8237 32.4028 32.9316 32.2191 32.9978 32.019C33.064 31.8189 33.087 31.607 33.0653 31.3973C33.0436 31.1877 32.9776 30.985 32.8718 30.8028C32.766 30.6205 32.6227 30.4627 32.4514 30.3399L32.5014 30.4199Z" fill="#B4B4B4"/>
<path d="M22.1406 13C20.3606 13 18.6205 13.5278 17.1405 14.5168C15.6605 15.5057 14.5069 16.9113 13.8257 18.5558C13.1445 20.2004 12.9663 22.01 13.3136 23.7558C13.6608 25.5016 14.518 27.1053 15.7767 28.364C17.0353 29.6226 18.639 30.4798 20.3848 30.8271C22.1306 31.1743 23.9402 30.9961 25.5848 30.3149C27.2293 29.6337 28.6349 28.4802 29.6239 27.0001C30.6128 25.5201 31.1406 23.78 31.1406 22C31.1406 19.6131 30.1924 17.3239 28.5046 15.636C26.8168 13.9482 24.5276 13 22.1406 13ZM22.1406 28.36C20.8851 28.36 19.6578 27.9878 18.6138 27.2905C17.5698 26.5932 16.7559 25.6021 16.275 24.4423C15.794 23.2826 15.6677 22.0064 15.9119 20.7748C16.1561 19.5433 16.7599 18.4119 17.647 17.5234C18.534 16.6349 19.6646 16.0294 20.8957 15.7832C22.1268 15.5371 23.4033 15.6614 24.5637 16.1405C25.7242 16.6196 26.7167 17.4319 27.4156 18.4749C28.1146 19.5178 28.4887 20.7445 28.4906 22C28.4933 22.8351 28.3309 23.6625 28.0128 24.4347C27.6948 25.2068 27.2273 25.9086 26.6372 26.4995C26.0472 27.0905 25.3462 27.5591 24.5745 27.8784C23.8029 28.1976 22.9757 28.3613 22.1406 28.36Z" fill="#B4B4B4"/>
</svg>
