<svg width="24" height="24" viewBox="0 0 24 24" fill="none" xmlns="http://www.w3.org/2000/svg">
<path opacity="0.3" d="M20.7797 22.0601H3.21973C3.02081 22.0601 2.83005 21.981 2.6894 21.8404C2.54874 21.6997 2.46973 21.509 2.46973 21.3101C2.46973 21.1111 2.54874 20.9204 2.6894 20.7797C2.83005 20.6391 3.02081 20.5601 3.21973 20.5601H20.7797C20.9786 20.5601 21.1694 20.6391 21.3101 20.7797C21.4507 20.9204 21.5297 21.1111 21.5297 21.3101C21.5297 21.509 21.4507 21.6997 21.3101 21.8404C21.1694 21.981 20.9786 22.0601 20.7797 22.0601Z" fill="#E2FD70"/>
<g opacity="0.3">
<path d="M17.7894 6.22998H16.8294C16.1777 6.22998 15.6494 6.75828 15.6494 7.40998V17.87C15.6494 18.5217 16.1777 19.05 16.8294 19.05H17.7894C18.4411 19.05 18.9694 18.5217 18.9694 17.87V7.40998C18.9694 6.75828 18.4411 6.22998 17.7894 6.22998Z" fill="#E2FD70"/>
</g>
<path d="M11.9597 1.93994H11.2197C10.5072 1.93994 9.92969 2.51749 9.92969 3.22994V17.7599C9.92969 18.4724 10.5072 19.0499 11.2197 19.0499H11.9597C12.6721 19.0499 13.2497 18.4724 13.2497 17.7599V3.22994C13.2497 2.51749 12.6721 1.93994 11.9597 1.93994Z" fill="#E2FD70"/>
<g opacity="0.3">
<path d="M6.35973 11.1602H5.39973C4.74803 11.1602 4.21973 11.6885 4.21973 12.3402V17.8702C4.21973 18.5219 4.74803 19.0502 5.39973 19.0502H6.35973C7.01142 19.0502 7.53973 18.5219 7.53973 17.8702V12.3402C7.53973 11.6885 7.01142 11.1602 6.35973 11.1602Z" fill="#E2FD70"/>
</g>
</svg>
