<svg width="20" height="20" viewBox="0 0 20 20" fill="none" xmlns="http://www.w3.org/2000/svg">
<g id="Frame 14">
<path id="Vector" d="M5.74609 10.7133L10.4753 15.4425C10.6003 15.5675 10.6628 15.7133 10.6628 15.88C10.6628 16.0466 10.6003 16.1925 10.4753 16.3175C10.3503 16.4425 10.2044 16.505 10.0378 16.505C9.87109 16.505 9.72526 16.4425 9.60026 16.3175L3.80859 10.5258C3.73915 10.4564 3.69054 10.3869 3.66276 10.3175C3.63498 10.248 3.62109 10.1716 3.62109 10.0883C3.62109 10.005 3.63498 9.92858 3.66276 9.85913C3.69054 9.78969 3.73915 9.72024 3.80859 9.6508L9.60026 3.85913C9.72526 3.73413 9.87109 3.67163 10.0378 3.67163C10.2044 3.67163 10.3503 3.73413 10.4753 3.85913C10.6003 3.98413 10.6628 4.12996 10.6628 4.29663C10.6628 4.4633 10.6003 4.60913 10.4753 4.73413L5.74609 9.4633L16.0794 9.4633C16.26 9.4633 16.4093 9.52233 16.5273 9.64038C16.6454 9.75844 16.7044 9.90774 16.7044 10.0883C16.7044 10.2689 16.6454 10.4182 16.5273 10.5362C16.4093 10.6543 16.26 10.7133 16.0794 10.7133L5.74609 10.7133Z" fill="#CCCCCC"/>
</g>
</svg>
