<svg width="40" height="40" viewBox="0 0 40 40" fill="none" xmlns="http://www.w3.org/2000/svg">
<path opacity="0.3" d="M19.9997 36.6668C29.2044 36.6668 36.6663 29.2049 36.6663 20.0002C36.6663 10.7954 29.2044 3.3335 19.9997 3.3335C10.7949 3.3335 3.33301 10.7954 3.33301 20.0002C3.33301 29.2049 10.7949 36.6668 19.9997 36.6668Z" fill="#E26666"/>
<path d="M24.8829 21.6667C24.5514 21.6667 24.2334 21.535 23.999 21.3005C23.7646 21.0661 23.6329 20.7482 23.6329 20.4167V15.6333C23.6285 14.87 23.3233 14.1391 22.7835 13.5993C22.2437 13.0596 21.5129 12.7544 20.7495 12.75H19.2495C18.4862 12.7544 17.7553 13.0596 17.2156 13.5993C16.6758 14.1391 16.3706 14.87 16.3662 15.6333V20.4333C16.3662 20.7649 16.2345 21.0828 16.0001 21.3172C15.7657 21.5516 15.4477 21.6833 15.1162 21.6833C14.7847 21.6833 14.4667 21.5516 14.2323 21.3172C13.9979 21.0828 13.8662 20.7649 13.8662 20.4333V15.6333C13.8662 14.2056 14.4334 12.8363 15.443 11.8267C16.4525 10.8172 17.8218 10.25 19.2495 10.25H20.7495C21.4565 10.25 22.1565 10.3892 22.8097 10.6598C23.4628 10.9303 24.0562 11.3269 24.5561 11.8267C25.056 12.3266 25.4526 12.9201 25.7231 13.5732C25.9936 14.2264 26.1329 14.9264 26.1329 15.6333V20.4333C26.1243 20.7606 25.9893 21.0718 25.7563 21.3018C25.5232 21.5317 25.2102 21.6625 24.8829 21.6667Z" fill="#E26666"/>
<path d="M25.3663 17.417H14.633C13.718 17.417 12.8405 17.7805 12.1935 18.4275C11.5465 19.0745 11.183 19.952 11.183 20.867V25.0003C11.1764 25.4576 11.2607 25.9116 11.4311 26.3359C11.6015 26.7603 11.8546 27.1466 12.1756 27.4722C12.4966 27.7979 12.8792 28.0565 13.3011 28.233C13.7229 28.4095 14.1757 28.5004 14.633 28.5003H25.3663C25.8236 28.5004 26.2764 28.4095 26.6982 28.233C27.1201 28.0565 27.5027 27.7979 27.8237 27.4722C28.1447 27.1466 28.3978 26.7603 28.5682 26.3359C28.7386 25.9116 28.8229 25.4576 28.8163 25.0003V20.867C28.8163 19.952 28.4528 19.0745 27.8058 18.4275C27.1588 17.7805 26.2813 17.417 25.3663 17.417ZM19.9996 24.7337C19.6455 24.737 19.2985 24.6347 19.0027 24.4401C18.7069 24.2454 18.4757 23.967 18.3387 23.6405C18.2016 23.314 18.1649 22.954 18.2332 22.6066C18.3015 22.2591 18.4716 21.9398 18.7221 21.6894C18.9725 21.439 19.2917 21.2688 19.6392 21.2005C19.9867 21.1323 20.3466 21.169 20.6732 21.306C20.9997 21.443 21.278 21.6742 21.4727 21.97C21.6674 22.2658 21.7696 22.6129 21.7663 22.967C21.7663 23.4355 21.5802 23.8849 21.2489 24.2162C20.9176 24.5475 20.4682 24.7337 19.9996 24.7337Z" fill="#E26666"/>
</svg>
