<svg width="24" height="24" viewBox="0 0 24 24" fill="none" xmlns="http://www.w3.org/2000/svg">
<path opacity="0.3" d="M16.25 2H7.75C4.57436 2 2 4.57436 2 7.75V16.25C2 19.4256 4.57436 22 7.75 22H16.25C19.4256 22 22 19.4256 22 16.25V7.75C22 4.57436 19.4256 2 16.25 2Z" fill="#260F0F"/>
<path d="M14.9303 12.9999C14.7314 12.9999 14.5406 12.9209 14.4 12.7802C14.2593 12.6396 14.1803 12.4488 14.1803 12.2499V9.3799C14.1777 8.92189 13.9946 8.48338 13.6707 8.15951C13.3468 7.83564 12.9083 7.65253 12.4503 7.6499H11.5503C11.0923 7.65253 10.6538 7.83564 10.3299 8.15951C10.006 8.48338 9.82294 8.92189 9.82031 9.3799V12.2599C9.82031 12.4588 9.7413 12.6496 9.60064 12.7902C9.45999 12.9309 9.26922 13.0099 9.07031 13.0099C8.8714 13.0099 8.68064 12.9309 8.53998 12.7902C8.39933 12.6496 8.32031 12.4588 8.32031 12.2599V9.3799C8.32031 8.52325 8.66062 7.70169 9.26636 7.09595C9.8721 6.4902 10.6937 6.1499 11.5503 6.1499H12.4503C12.8745 6.1499 13.2945 6.23345 13.6864 6.39577C14.0783 6.55809 14.4343 6.79601 14.7343 7.09595C15.0342 7.39588 15.2721 7.75195 15.4344 8.14383C15.5968 8.53572 15.6803 8.95573 15.6803 9.3799V12.2599C15.6752 12.4563 15.5942 12.643 15.4544 12.781C15.3145 12.9189 15.1267 12.9974 14.9303 12.9999Z" fill="#260F0F"/>
<path d="M15.2202 10.4497H8.78018C8.23118 10.4497 7.70467 10.6678 7.31647 11.056C6.92827 11.4442 6.71018 11.9707 6.71018 12.5197V14.9997C6.7062 15.2741 6.75681 15.5465 6.85905 15.8011C6.9613 16.0557 7.11314 16.2874 7.30576 16.4829C7.49837 16.6783 7.72791 16.8334 7.98103 16.9393C8.23415 17.0452 8.5058 17.0997 8.78018 17.0997H15.2202C15.4946 17.0997 15.7662 17.0452 16.0193 16.9393C16.2724 16.8334 16.502 16.6783 16.6946 16.4829C16.8872 16.2874 17.0391 16.0557 17.1413 15.8011C17.2435 15.5465 17.2942 15.2741 17.2902 14.9997V12.5197C17.2902 11.9707 17.0721 11.4442 16.6839 11.056C16.2957 10.6678 15.7692 10.4497 15.2202 10.4497ZM12.0002 14.8397C11.7877 14.8417 11.5795 14.7804 11.402 14.6636C11.2245 14.5467 11.0858 14.3797 11.0036 14.1838C10.9214 13.9879 10.8993 13.7719 10.9403 13.5634C10.9813 13.355 11.0834 13.1634 11.2336 13.0131C11.3839 12.8629 11.5754 12.7608 11.7839 12.7198C11.9924 12.6789 12.2084 12.7009 12.4043 12.7831C12.6002 12.8653 12.7672 13.004 12.884 13.1815C13.0008 13.359 13.0622 13.5672 13.0602 13.7797C13.0602 14.0608 12.9485 14.3305 12.7497 14.5292C12.5509 14.728 12.2813 14.8397 12.0002 14.8397Z" fill="#260F0F"/>
</svg>
