<svg width="24" height="24" viewBox="0 0 24 24" fill="none" xmlns="http://www.w3.org/2000/svg">
<path opacity="0.3" d="M16.25 2H7.75C4.57436 2 2 4.57436 2 7.75V16.25C2 19.4256 4.57436 22 7.75 22H16.25C19.4256 22 22 19.4256 22 16.25V7.75C22 4.57436 19.4256 2 16.25 2Z" fill="#E26666"/>
<path d="M14.9284 13.0004C14.7294 13.0004 14.5387 12.9214 14.398 12.7807C14.2574 12.6401 14.1784 12.4493 14.1784 12.2504V9.38039C14.1757 8.92238 13.9926 8.48387 13.6688 8.16C13.3449 7.83613 12.9064 7.65302 12.4484 7.65039H11.5484C11.0903 7.65302 10.6518 7.83613 10.328 8.16C10.0041 8.48387 9.82098 8.92238 9.81836 9.38039V12.2604C9.81836 12.4593 9.73934 12.6501 9.59869 12.7907C9.45804 12.9314 9.26727 13.0104 9.06836 13.0104C8.86945 13.0104 8.67868 12.9314 8.53803 12.7907C8.39738 12.6501 8.31836 12.4593 8.31836 12.2604V9.38039C8.31836 8.52374 8.65866 7.70218 9.26441 7.09644C9.87015 6.49069 10.6917 6.15039 11.5484 6.15039H12.4484C12.8725 6.15039 13.2925 6.23394 13.6844 6.39626C14.0763 6.55858 14.4324 6.7965 14.7323 7.09644C15.0322 7.39637 15.2702 7.75244 15.4325 8.14432C15.5948 8.5362 15.6784 8.95622 15.6784 9.38039V12.2604C15.6732 12.4568 15.5922 12.6435 15.4524 12.7814C15.3126 12.9194 15.1248 12.9979 14.9284 13.0004Z" fill="#E26666"/>
<path d="M15.2192 10.4502H8.7792C8.2302 10.4502 7.70369 10.6683 7.31549 11.0565C6.92729 11.4447 6.7092 11.9712 6.7092 12.5202V15.0002C6.70523 15.2745 6.75583 15.5469 6.85808 15.8016C6.96032 16.0562 7.11217 16.2879 7.30478 16.4833C7.4974 16.6787 7.72694 16.8339 7.98006 16.9398C8.23318 17.0457 8.50482 17.1002 8.7792 17.1002H15.2192C15.4936 17.1002 15.7652 17.0457 16.0183 16.9398C16.2715 16.8339 16.501 16.6787 16.6936 16.4833C16.8862 16.2879 17.0381 16.0562 17.1403 15.8016C17.2426 15.5469 17.2932 15.2745 17.2892 15.0002V12.5202C17.2892 11.9712 17.0711 11.4447 16.6829 11.0565C16.2947 10.6683 15.7682 10.4502 15.2192 10.4502ZM11.9992 14.8402C11.7867 14.8422 11.5785 14.7808 11.401 14.664C11.2235 14.5472 11.0848 14.3802 11.0026 14.1843C10.9204 13.9884 10.8984 13.7724 10.9393 13.5639C10.9803 13.3554 11.0824 13.1639 11.2326 13.0136C11.3829 12.8634 11.5745 12.7613 11.7829 12.7203C11.9914 12.6794 12.2074 12.7014 12.4033 12.7836C12.5992 12.8658 12.7662 13.0045 12.883 13.182C12.9999 13.3595 13.0612 13.5677 13.0592 13.7802C13.0592 14.0613 12.9475 14.3309 12.7487 14.5297C12.5499 14.7285 12.2803 14.8402 11.9992 14.8402Z" fill="#E26666"/>
</svg>
