<svg width="20" height="20" viewBox="0 0 20 20" fill="none" xmlns="http://www.w3.org/2000/svg">
<g opacity="0.3">
<path d="M13.9998 15.7418H5.91643C5.73362 15.7405 5.55564 15.6831 5.40658 15.5772C5.25752 15.4714 5.14459 15.3223 5.08309 15.1502L1.74976 5.46684C1.68271 5.29722 1.67316 5.11027 1.72258 4.9347C1.772 4.75912 1.87767 4.60461 2.02336 4.49487C2.16905 4.38513 2.34672 4.32622 2.52912 4.32717C2.71152 4.32813 2.88856 4.38891 3.03309 4.50018L6.36643 6.90018C6.4585 6.96806 6.56503 7.01372 6.67768 7.03359C6.79034 7.05347 6.90606 7.04701 7.0158 7.01473C7.12555 6.98245 7.22634 6.92523 7.3103 6.84753C7.39425 6.76983 7.4591 6.67376 7.49976 6.56684L9.16643 2.21684C9.2144 2.04031 9.31913 1.88446 9.46447 1.77336C9.6098 1.66225 9.78765 1.60205 9.97059 1.60205C10.1535 1.60205 10.3314 1.66225 10.4767 1.77336C10.622 1.88446 10.7268 2.04031 10.7748 2.21684L12.3914 6.59184C12.4317 6.7001 12.4968 6.79744 12.5814 6.87612C12.6659 6.95479 12.7677 7.01262 12.8786 7.045C12.9895 7.07737 13.1064 7.0834 13.22 7.0626C13.3337 7.04179 13.4409 6.99474 13.5331 6.92518L16.9748 4.36684C17.1178 4.2426 17.299 4.17083 17.4883 4.16337C17.6777 4.15591 17.8639 4.21321 18.0163 4.32582C18.1688 4.43843 18.2782 4.59962 18.3267 4.78281C18.3752 4.966 18.3598 5.16024 18.2831 5.33351L14.8331 15.1502C14.7796 15.3273 14.6687 15.4816 14.5178 15.5888C14.3669 15.6959 14.1846 15.7497 13.9998 15.7418Z" fill="#B4B4B4"/>
</g>
<path d="M12.0827 12.2168H7.91602C7.75026 12.2168 7.59128 12.1509 7.47407 12.0337C7.35686 11.9165 7.29102 11.7576 7.29102 11.5918C7.29102 11.426 7.35686 11.2671 7.47407 11.1499C7.59128 11.0326 7.75026 10.9668 7.91602 10.9668H12.0827C12.2484 10.9668 12.4074 11.0326 12.5246 11.1499C12.6418 11.2671 12.7077 11.426 12.7077 11.5918C12.7077 11.7576 12.6418 11.9165 12.5246 12.0337C12.4074 12.1509 12.2484 12.2168 12.0827 12.2168Z" fill="#B4B4B4"/>
<path d="M14.2672 18.3335H5.74219C5.57643 18.3335 5.41746 18.2676 5.30025 18.1504C5.18304 18.0332 5.11719 17.8743 5.11719 17.7085C5.11719 17.5427 5.18304 17.3838 5.30025 17.2666C5.41746 17.1493 5.57643 17.0835 5.74219 17.0835H14.2672C14.4329 17.0835 14.5919 17.1493 14.7091 17.2666C14.8263 17.3838 14.8922 17.5427 14.8922 17.7085C14.8922 17.8743 14.8263 18.0332 14.7091 18.1504C14.5919 18.2676 14.4329 18.3335 14.2672 18.3335Z" fill="#B4B4B4"/>
</svg>
