<svg width="20" height="20" viewBox="0 0 20 20" fill="none" xmlns="http://www.w3.org/2000/svg">
<path opacity="0.3" d="M13.3514 1.64395L6.56816 1.68065C3.82518 1.69549 1.61359 3.93114 1.62843 6.67411L1.66487 13.4073C1.67971 16.1503 3.91536 18.3619 6.65833 18.3471L13.4416 18.3104C16.1845 18.2955 18.3961 16.0599 18.3813 13.3169L18.3449 6.58367C18.33 3.84069 16.0944 1.62911 13.3514 1.64395Z" fill="#B4B4B4"/>
<path d="M10.0007 13.0916C11.7496 13.0916 13.1673 11.6739 13.1673 9.92497C13.1673 8.17607 11.7496 6.7583 10.0007 6.7583C8.25175 6.7583 6.83398 8.17607 6.83398 9.92497C6.83398 11.6739 8.25175 13.0916 10.0007 13.0916Z" fill="#B4B4B4"/>
<path d="M15.4173 17.8915C15.0229 16.7698 14.29 15.7981 13.3197 15.1107C12.3495 14.4234 11.1897 14.0542 10.0007 14.0542C8.81158 14.0542 7.65183 14.4234 6.68156 15.1107C5.71129 15.7981 4.97836 16.7698 4.58398 17.8915C5.23757 18.19 5.94886 18.3408 6.66732 18.3332H13.4423C14.1237 18.3203 14.7954 18.1701 15.4173 17.8915Z" fill="#B4B4B4"/>
</svg>
