<svg width="24" height="24" viewBox="0 0 24 24" fill="none" xmlns="http://www.w3.org/2000/svg">
<path opacity="0.1" d="M16.609 1H7.391C3.86135 1 1 3.86135 1 7.391V16.609C1 20.1387 3.86135 23 7.391 23H16.609C20.1387 23 23 20.1387 23 16.609V7.391C23 3.86135 20.1387 1 16.609 1Z" fill="#E4E4E4"/>
<path opacity="0.3" d="M9.6239 11.5201C11.7181 11.5201 13.4158 9.8367 13.4158 7.76007C13.4158 5.68344 11.7181 4 9.6239 4C7.52971 4 5.83203 5.68344 5.83203 7.76007C5.83203 9.8367 7.52971 11.5201 9.6239 11.5201Z" fill="#E4E4E4"/>
<path d="M9.6238 19.9996C12.7297 19.9996 15.2476 18.3162 15.2476 16.2396C15.2476 14.1629 12.7297 12.4795 9.6238 12.4795C6.51786 12.4795 4 14.1629 4 16.2396C4 18.3162 6.51786 19.9996 9.6238 19.9996Z" fill="#E4E4E4"/>
<g opacity="0.3">
<path d="M15.5118 5.60064C15.0717 5.60114 14.6373 5.69952 14.2399 5.88864C14.5752 6.70238 14.6838 7.59175 14.5542 8.46227C14.4246 9.3328 14.0617 10.152 13.5039 10.8327C13.8658 11.1623 14.3026 11.3985 14.7765 11.521C15.2503 11.6435 15.7469 11.6485 16.2232 11.5355C16.6994 11.4226 17.1409 11.1951 17.5093 10.8729C17.8777 10.5507 18.1619 10.1434 18.3373 9.68646C18.5126 9.2295 18.5739 8.73664 18.5156 8.25066C18.4574 7.76468 18.2814 7.30025 18.003 6.89768C17.7246 6.49511 17.3522 6.16655 16.9181 5.94053C16.484 5.7145 16.0013 5.59783 15.5118 5.60064Z" fill="#E4E4E4"/>
</g>
<path d="M15.5117 12.4004C15.0629 12.4 14.6153 12.4456 14.1758 12.5364C14.8366 12.9107 15.3912 13.4472 15.7873 14.0953C16.1834 14.7433 16.4079 15.4816 16.4397 16.2405C16.4361 17.0102 16.2051 17.7617 15.7757 18.4005C18.1276 18.3125 19.9996 17.0085 19.9996 15.4085C19.9996 13.8084 17.9916 12.4004 15.5117 12.4004Z" fill="#E4E4E4"/>
</svg>
