<svg width="20" height="20" viewBox="0 0 20 20" fill="none" xmlns="http://www.w3.org/2000/svg">
<path opacity="0.3" d="M13.6003 5.125H4.75866C3.05118 5.125 1.66699 6.50919 1.66699 8.21667V14.5333C1.66699 16.2408 3.05118 17.625 4.75866 17.625H13.6003C15.3078 17.625 16.692 16.2408 16.692 14.5333V8.21667C16.692 6.50919 15.3078 5.125 13.6003 5.125Z" fill="#0D0D0D"/>
<path d="M15.7834 13.0834H17.5584C17.7639 13.0834 17.9611 13.0018 18.1064 12.8564C18.2517 12.7111 18.3334 12.514 18.3334 12.3084V10.4417C18.3334 10.2362 18.2517 10.0391 18.1064 9.89374C17.9611 9.7484 17.7639 9.66675 17.5584 9.66675H15.7834C15.561 9.66668 15.3408 9.71113 15.1358 9.79748C14.9308 9.88383 14.7452 10.0103 14.5899 10.1695C14.4346 10.3287 14.3127 10.5174 14.2314 10.7245C14.1502 10.9315 14.1112 11.1527 14.1167 11.3751C14.1112 11.5974 14.1502 11.8186 14.2314 12.0257C14.3127 12.2327 14.4346 12.4214 14.5899 12.5806C14.7452 12.7398 14.9308 12.8663 15.1358 12.9527C15.3408 13.039 15.561 13.0835 15.7834 13.0834Z" fill="#0D0D0D"/>
<path d="M1.66699 8.20835C1.6692 7.38983 1.9959 6.60559 2.57546 6.02759C3.15502 5.4496 3.94014 5.12501 4.75866 5.12501H12.5003C12.485 4.38891 12.1813 3.68825 11.6545 3.1739C11.1277 2.65956 10.4199 2.37267 9.68366 2.37501H4.49199C4.1214 2.37392 3.75424 2.44596 3.41154 2.58702C3.06884 2.72808 2.75735 2.93538 2.49492 3.19704C2.23248 3.45871 2.02426 3.76958 1.88219 4.11186C1.74012 4.45414 1.66699 4.82109 1.66699 5.19168V8.20835Z" fill="#0D0D0D"/>
<path d="M9.90872 9.44165H4.77539C4.60963 9.44165 4.45066 9.3758 4.33345 9.25859C4.21624 9.14138 4.15039 8.98241 4.15039 8.81665C4.15039 8.65089 4.21624 8.49192 4.33345 8.37471C4.45066 8.2575 4.60963 8.19165 4.77539 8.19165H9.90872C10.0745 8.19165 10.2335 8.2575 10.3507 8.37471C10.4679 8.49192 10.5337 8.65089 10.5337 8.81665C10.5337 8.98241 10.4679 9.14138 10.3507 9.25859C10.2335 9.3758 10.0745 9.44165 9.90872 9.44165Z" fill="#0D0D0D"/>
</svg>
