<svg width="60" height="60" viewBox="0 0 60 60" fill="none" xmlns="http://www.w3.org/2000/svg">
<rect width="60" height="60" rx="30" fill="#57D37D"/>
<path d="M33.3 29.1167L28.4333 24.25C28.1963 24.0292 27.8829 23.909 27.5591 23.9147C27.2353 23.9205 26.9263 24.0516 26.6973 24.2807C26.4682 24.5097 26.3371 24.8187 26.3313 25.1425C26.3256 25.4663 26.4458 25.7797 26.6666 26.0167L29.4 28.75H12.8833C12.5518 28.75 12.2338 28.8817 11.9994 29.1162C11.765 29.3506 11.6333 29.6685 11.6333 30C11.6333 30.3316 11.765 30.6495 11.9994 30.8839C12.2338 31.1183 12.5518 31.25 12.8833 31.25H29.4L26.6666 33.9834C26.5487 34.0983 26.455 34.2356 26.391 34.3873C26.327 34.5391 26.294 34.702 26.294 34.8667C26.294 35.0314 26.327 35.1943 26.391 35.3461C26.455 35.4978 26.5487 35.6351 26.6666 35.75C26.7803 35.8693 26.9175 35.9634 27.0696 36.0266C27.2217 36.0897 27.3853 36.1204 27.55 36.1167C27.7142 36.1175 27.8769 36.0854 28.0286 36.0225C28.1803 35.9595 28.3179 35.8669 28.4333 35.75L33.3 30.8834C33.5341 30.649 33.6655 30.3313 33.6655 30C33.6655 29.6688 33.5341 29.3511 33.3 29.1167Z" fill="#0D0D0D"/>
<path opacity="0.3" d="M21.3501 20C21.4281 18.2493 22.1924 16.5996 23.4775 15.4081C24.7625 14.2166 26.4651 13.579 28.2168 13.6333H35.5001C37.2517 13.579 38.9543 14.2166 40.2394 15.4081C41.5245 16.5996 42.2887 18.2493 42.3668 20V40C42.2887 41.7507 41.5245 43.4004 40.2394 44.5919C38.9543 45.7834 37.2517 46.421 35.5001 46.3667H28.2168C26.4651 46.421 24.7625 45.7834 23.4775 44.5919C22.1924 43.4004 21.4281 41.7507 21.3501 40V20Z" fill="#0D0D0D"/>
</svg>
