<svg width="24" height="24" viewBox="0 0 24 24" fill="none" xmlns="http://www.w3.org/2000/svg">
<g id="icons8-telegram (2) 1">
<path id="Vector" d="M12 2C9.34784 2 6.8043 3.05357 4.92893 4.92893C3.05357 6.8043 2 9.34784 2 12C2 14.6522 3.05357 17.1957 4.92893 19.0711C6.8043 20.9464 9.34784 22 12 22C14.6522 22 17.1957 20.9464 19.0711 19.0711C20.9464 17.1957 22 14.6522 22 12C22 9.34784 20.9464 6.8043 19.0711 4.92893C17.1957 3.05357 14.6522 2 12 2Z" fill="#29B6F6"/>
<path id="Vector_2" d="M16.975 7.5L15.102 17.063C15.102 17.063 15.0215 17.5 14.4795 17.5C14.1915 17.5 14.043 17.363 14.043 17.363L9.986 13.9965L8.001 12.996L5.4535 12.3185C5.4535 12.3185 5 12.1875 5 11.8125C5 11.5 5.4665 11.351 5.4665 11.351L16.1245 7.117C16.1245 7.117 16.45 6.9995 16.6875 7C16.8335 7 17 7.0625 17 7.25C17 7.375 16.975 7.5 16.975 7.5Z" fill="white"/>
<path id="Vector_3" d="M11.5004 15.2521L9.78741 16.9391C9.78741 16.9391 9.71291 16.9966 9.61341 16.9991C9.57891 17.0001 9.54191 16.9946 9.50391 16.9776L9.98591 13.9951L11.5004 15.2521Z" fill="#B0BEC5"/>
<path id="Vector_4" d="M14.9485 9.09795C14.864 8.98795 14.708 8.96795 14.598 9.05145L8 12.9999C8 12.9999 9.053 15.9459 9.2135 16.4559C9.3745 16.9664 9.5035 16.9784 9.5035 16.9784L9.9855 13.9959L14.9015 9.44795C15.0115 9.36445 15.032 9.20795 14.9485 9.09795Z" fill="#CFD8DC"/>
</g>
</svg>
