<svg width="30" height="30" viewBox="0 0 30 30" fill="none" xmlns="http://www.w3.org/2000/svg">
<path d="M15 2.5C11.6848 2.5 8.50537 3.81696 6.16117 6.16117C3.81696 8.50537 2.5 11.6848 2.5 15C2.5 18.3152 3.81696 21.4946 6.16117 23.8388C8.50537 26.183 11.6848 27.5 15 27.5C18.3152 27.5 21.4946 26.183 23.8388 23.8388C26.183 21.4946 27.5 18.3152 27.5 15C27.5 11.6848 26.183 8.50537 23.8388 6.16117C21.4946 3.81696 18.3152 2.5 15 2.5Z" fill="#29B6F6"/>
<path d="M21.2188 9.375L18.8775 21.3288C18.8775 21.3288 18.7769 21.875 18.0994 21.875C17.7394 21.875 17.5538 21.7038 17.5538 21.7038L12.4825 17.4956L10.0013 16.245L6.81687 15.3981C6.81687 15.3981 6.25 15.2344 6.25 14.7656C6.25 14.375 6.83312 14.1888 6.83312 14.1888L20.1556 8.89625C20.1556 8.89625 20.5625 8.74938 20.8594 8.75C21.0419 8.75 21.25 8.82813 21.25 9.0625C21.25 9.21875 21.2188 9.375 21.2188 9.375Z" fill="white"/>
<path d="M14.3745 19.0654L12.2333 21.1741C12.2333 21.1741 12.1402 21.246 12.0158 21.2491C11.9727 21.2504 11.9264 21.2435 11.8789 21.2223L12.4814 17.4941L14.3745 19.0654Z" fill="#B0BEC5"/>
<path d="M18.6856 11.3724C18.58 11.2349 18.385 11.2099 18.2475 11.3143L10 16.2499C10 16.2499 11.3162 19.9324 11.5169 20.5699C11.7181 21.2081 11.8794 21.2231 11.8794 21.2231L12.4819 17.4949L18.6269 11.8099C18.7644 11.7056 18.79 11.5099 18.6856 11.3724Z" fill="#CFD8DC"/>
</svg>
