<svg width="25" height="24" viewBox="0 0 25 24" fill="none" xmlns="http://www.w3.org/2000/svg">
<path opacity="0.3" d="M12.3602 21.9999C17.0049 21.9999 20.7702 18.2346 20.7702 13.5899C20.7702 8.94522 17.0049 5.17993 12.3602 5.17993C7.71548 5.17993 3.9502 8.94522 3.9502 13.5899C3.9502 18.2346 7.71548 21.9999 12.3602 21.9999Z" fill="#D3CE57"/>
<path d="M12.5 13.55C12.3019 13.5474 12.1126 13.4676 11.9725 13.3275C11.8324 13.1874 11.7526 12.9981 11.75 12.8V8.53003C11.75 8.33112 11.829 8.14035 11.9697 7.9997C12.1103 7.85905 12.3011 7.78003 12.5 7.78003C12.6989 7.78003 12.8897 7.85905 13.0303 7.9997C13.171 8.14035 13.25 8.33112 13.25 8.53003V12.8C13.2474 12.9981 13.1676 13.1874 13.0275 13.3275C12.8874 13.4676 12.6981 13.5474 12.5 13.55Z" fill="#D3CE57"/>
<path d="M14.9105 3.53003H9.81055C9.61163 3.53003 9.42087 3.45101 9.28022 3.31036C9.13956 3.16971 9.06055 2.97894 9.06055 2.78003C9.06055 2.58112 9.13956 2.39035 9.28022 2.2497C9.42087 2.10905 9.61163 2.03003 9.81055 2.03003H14.9105C15.1095 2.03003 15.3002 2.10905 15.4409 2.2497C15.5815 2.39035 15.6605 2.58112 15.6605 2.78003C15.6605 2.97894 15.5815 3.16971 15.4409 3.31036C15.3002 3.45101 15.1095 3.53003 14.9105 3.53003Z" fill="#D3CE57"/>
</svg>
