<svg width="24" height="24" viewBox="0 0 24 24" fill="none" xmlns="http://www.w3.org/2000/svg">
<path d="M11.7109 18.8099C11.5793 18.8106 11.4488 18.7854 11.327 18.7357C11.2051 18.6859 11.0943 18.6126 11.0009 18.5199C10.9071 18.4269 10.8328 18.3163 10.782 18.1945C10.7312 18.0726 10.7051 17.9419 10.7051 17.8099C10.7051 17.6779 10.7312 17.5472 10.782 17.4253C10.8328 17.3034 10.9071 17.1928 11.0009 17.0999L16.1109 11.9999L11.0009 6.89988C10.8126 6.71158 10.7068 6.45618 10.7068 6.18988C10.7068 6.05802 10.7328 5.92746 10.7832 5.80563C10.8337 5.68381 10.9076 5.57312 11.0009 5.47988C11.0941 5.38664 11.2048 5.31268 11.3266 5.26222C11.4484 5.21176 11.579 5.18579 11.7109 5.18579C11.9772 5.18579 12.2326 5.29158 12.4209 5.47988L18.2309 11.2899C18.3236 11.3833 18.3969 11.4941 18.4466 11.616C18.4964 11.7378 18.5216 11.8683 18.5209 11.9999C18.5216 12.1315 18.4964 12.262 18.4466 12.3838C18.3969 12.5056 18.3236 12.6164 18.2309 12.7099L12.4209 18.5199C12.3274 18.6126 12.2166 18.6859 12.0948 18.7357C11.9729 18.7854 11.8425 18.8106 11.7109 18.8099Z" fill="#B4B4B4"/>
<path opacity="0.3" d="M6.48041 18.8099C6.3488 18.8106 6.21834 18.7854 6.0965 18.7357C5.97466 18.6859 5.86385 18.6126 5.77041 18.5199C5.67668 18.4269 5.60228 18.3163 5.55152 18.1945C5.50075 18.0726 5.47461 17.9419 5.47461 17.8099C5.47461 17.6779 5.50075 17.5472 5.55152 17.4253C5.60228 17.3034 5.67668 17.1928 5.77041 17.0999L10.8704 11.9999L5.77041 6.89988C5.5821 6.71158 5.47632 6.45618 5.47632 6.18988C5.47632 5.92358 5.5821 5.66819 5.77041 5.47988C5.95871 5.29158 6.21411 5.18579 6.48041 5.18579C6.74671 5.18579 7.0021 5.29158 7.19041 5.47988L13.0004 11.2899C13.0931 11.3833 13.1664 11.4941 13.2162 11.616C13.2659 11.7378 13.2912 11.8683 13.2904 11.9999C13.2867 12.2646 13.1831 12.5182 13.0004 12.7099L7.19041 18.5199C7.09697 18.6126 6.98615 18.6859 6.86431 18.7357C6.74248 18.7854 6.61201 18.8106 6.48041 18.8099Z" fill="#B4B4B4"/>
</svg>
