<svg width="24" height="24" viewBox="0 0 24 24" fill="none" xmlns="http://www.w3.org/2000/svg">
<path opacity="0.3" d="M16.25 2H7.75C4.57436 2 2 4.57436 2 7.75V16.25C2 19.4256 4.57436 22 7.75 22H16.25C19.4256 22 22 19.4256 22 16.25V7.75C22 4.57436 19.4256 2 16.25 2Z" fill="#2E2D13"/>
<path d="M12.3703 13.22C13.1103 13.22 13.7103 12.6201 13.7103 11.88C13.7103 11.14 13.1103 10.54 12.3703 10.54C11.6302 10.54 11.0303 11.14 11.0303 11.88C11.0303 12.6201 11.6302 13.22 12.3703 13.22Z" fill="#2E2D13"/>
<path d="M7.34977 13.22C8.08983 13.22 8.68976 12.6201 8.68976 11.88C8.68976 11.14 8.08983 10.54 7.34977 10.54C6.6097 10.54 6.00977 11.14 6.00977 11.88C6.00977 12.6201 6.6097 13.22 7.34977 13.22Z" fill="#2E2D13"/>
<path d="M17.38 13.22C18.1201 13.22 18.72 12.6201 18.72 11.88C18.72 11.14 18.1201 10.54 17.38 10.54C16.64 10.54 16.04 11.14 16.04 11.88C16.04 12.6201 16.64 13.22 17.38 13.22Z" fill="#2E2D13"/>
</svg>
