<svg width="20" height="20" viewBox="0 0 20 20" fill="none" xmlns="http://www.w3.org/2000/svg">
<g id="finance">
<g id="dollar">
<path id="Vector" opacity="0.3" d="M10 20C15.5228 20 20 15.5228 20 10C20 4.47715 15.5228 0 10 0C4.47715 0 0 4.47715 0 10C0 15.5228 4.47715 20 10 20Z" fill="#CCCCCC"/>
<path id="Vector_2" d="M14.2394 12.13C14.246 12.7464 14.0722 13.3512 13.7394 13.87C13.3774 14.4036 12.871 14.8233 12.2794 15.08C11.5587 15.3841 10.7814 15.5307 9.99942 15.51C9.09612 15.5436 8.19976 15.3402 7.39942 14.92C6.92041 14.6357 6.51593 14.2415 6.21942 13.77C5.9381 13.3593 5.77864 12.8774 5.75942 12.38C5.75214 12.2564 5.76962 12.1326 5.81083 12.0158C5.85204 11.899 5.91616 11.7917 5.99942 11.7C6.0893 11.6088 6.19686 11.5369 6.31551 11.4888C6.43416 11.4406 6.5614 11.4172 6.68942 11.42C6.90357 11.4176 7.11071 11.4962 7.26942 11.64C7.45086 11.8231 7.58772 12.0455 7.66942 12.29C7.78923 12.5865 7.93654 12.871 8.10942 13.14C8.27984 13.3821 8.51089 13.5752 8.77942 13.7C9.13193 13.867 9.51969 13.9459 9.90942 13.93C10.4647 13.9555 11.013 13.7973 11.4694 13.48C11.6537 13.3569 11.8048 13.1903 11.9094 12.995C12.0141 12.7997 12.069 12.5816 12.0694 12.36C12.0755 12.2018 12.0493 12.044 11.9926 11.8962C11.9359 11.7483 11.8498 11.6136 11.7394 11.5C11.5336 11.2797 11.2806 11.1088 10.9994 11C10.6494 10.88 10.1994 10.76 9.61942 10.62C8.94245 10.4845 8.28199 10.2766 7.64942 10C7.15718 9.78298 6.73235 9.43759 6.41942 9C6.12029 8.54764 5.97316 8.01169 5.99942 7.47C5.98924 6.91216 6.1574 6.36563 6.47942 5.91C6.81926 5.43119 7.29213 5.06263 7.83942 4.85C8.52978 4.59298 9.26303 4.47077 9.99942 4.49C10.5753 4.47743 11.1495 4.55849 11.6994 4.73C12.135 4.8663 12.5394 5.08719 12.8894 5.38C13.1785 5.60981 13.4139 5.89988 13.5794 6.23C13.7211 6.49471 13.7966 6.78978 13.7994 7.09C13.8011 7.34609 13.7045 7.59306 13.5294 7.78C13.4467 7.8795 13.3426 7.95905 13.2249 8.01272C13.1071 8.0664 12.9788 8.09281 12.8494 8.09C12.6434 8.10486 12.4395 8.04047 12.2794 7.91C12.1183 7.72424 11.9806 7.51937 11.8694 7.3C11.702 6.94258 11.4639 6.6228 11.1694 6.36C10.78 6.08394 10.3047 5.95625 9.82942 6C9.35137 5.97524 8.87805 6.10497 8.47942 6.37C8.32745 6.46216 8.2011 6.59106 8.11198 6.74483C8.02286 6.89861 7.97384 7.07232 7.96942 7.25C7.96435 7.447 8.02407 7.64022 8.13942 7.8C8.26891 7.96619 8.43261 8.1026 8.61942 8.2C8.81639 8.3108 9.02413 8.40127 9.23942 8.47L10.2394 8.74C10.7939 8.86807 11.3413 9.02495 11.8794 9.21C12.3206 9.35544 12.7383 9.56429 13.1194 9.83C13.4571 10.0669 13.7317 10.3827 13.9194 10.75C14.137 11.177 14.2468 11.6508 14.2394 12.13Z" fill="#CCCCCC"/>
<path id="Vector_3" d="M9.99922 16.7201C9.89908 16.7268 9.79861 16.7134 9.70374 16.6807C9.60888 16.6479 9.52156 16.5964 9.44696 16.5293C9.37236 16.4621 9.31199 16.3807 9.26944 16.2898C9.22688 16.1989 9.20301 16.1004 9.19922 16.0001L9.29922 4.00008C9.29921 3.90205 9.31868 3.805 9.35649 3.71456C9.3943 3.62412 9.44971 3.5421 9.51948 3.47325C9.58926 3.4044 9.67202 3.3501 9.76296 3.31351C9.8539 3.27691 9.9512 3.25875 10.0492 3.26008C10.2464 3.26006 10.4357 3.3377 10.576 3.4762C10.7164 3.6147 10.7966 3.8029 10.7992 4.00008L10.6992 16.0001C10.6945 16.1861 10.6198 16.3635 10.49 16.497C10.3603 16.6304 10.1851 16.7101 9.99922 16.7201Z" fill="#CCCCCC"/>
</g>
</g>
</svg>
