<svg width="30" height="30" viewBox="0 0 30 30" fill="none" xmlns="http://www.w3.org/2000/svg">
<rect x="4" y="4.5" width="22" height="21" fill="white"/>
<path d="M6.60039 2.40039C4.28079 2.40039 2.40039 4.28079 2.40039 6.60039V23.4004C2.40039 25.72 4.28079 27.6004 6.60039 27.6004H23.4004C25.72 27.6004 27.6004 25.72 27.6004 23.4004V6.60039C27.6004 4.28079 25.72 2.40039 23.4004 2.40039H6.60039ZM7.85195 7.80039H12.6145L15.9965 12.6063L20.1004 7.80039H21.6004L16.6738 13.5684L22.7488 22.2004H17.9875L14.0629 16.6246L9.30039 22.2004H7.80039L13.3855 15.6625L7.85195 7.80039ZM10.1488 9.00039L18.6133 21.0004H20.452L11.9875 9.00039H10.1488Z" fill="black"/>
</svg>
