<svg width="22" height="22" viewBox="0 0 22 22" fill="none" xmlns="http://www.w3.org/2000/svg">
<g id="eCommerce">
<g id="percentage">
<path id="Vector" d="M8 14.75C7.90121 14.7522 7.80305 14.7338 7.71178 14.6959C7.62052 14.658 7.53817 14.6015 7.47 14.53C7.32955 14.3894 7.25066 14.1988 7.25066 14C7.25066 13.8012 7.32955 13.6106 7.47 13.47L13.47 7.47C13.6106 7.32955 13.8012 7.25066 14 7.25066C14.1988 7.25066 14.3894 7.32955 14.53 7.47C14.6705 7.61063 14.7493 7.80125 14.7493 8C14.7493 8.19875 14.6705 8.38937 14.53 8.53L8.53 14.53C8.46076 14.6001 8.37821 14.6557 8.28719 14.6935C8.19618 14.7312 8.09854 14.7505 8 14.75ZM8 7C7.80222 7 7.60888 7.05865 7.44443 7.16853C7.27998 7.27841 7.15181 7.43459 7.07612 7.61732C7.00043 7.80004 6.98063 8.00111 7.01922 8.19509C7.0578 8.38907 7.15304 8.56725 7.29289 8.70711C7.43275 8.84696 7.61093 8.9422 7.80491 8.98079C7.99889 9.01937 8.19996 8.99957 8.38268 8.92388C8.56541 8.84819 8.72159 8.72002 8.83147 8.55557C8.94135 8.39112 9 8.19778 9 8C9 7.73478 8.89464 7.48043 8.70711 7.29289C8.51957 7.10536 8.26522 7 8 7ZM14 13C13.8022 13 13.6089 13.0586 13.4444 13.1685C13.28 13.2784 13.1518 13.4346 13.0761 13.6173C13.0004 13.8 12.9806 14.0011 13.0192 14.1951C13.0578 14.3891 13.153 14.5673 13.2929 14.7071C13.4327 14.847 13.6109 14.9422 13.8049 14.9808C13.9989 15.0194 14.2 14.9996 14.3827 14.9239C14.5654 14.8482 14.7216 14.72 14.8315 14.5556C14.9414 14.3911 15 14.1978 15 14C15 13.7348 14.8946 13.4804 14.7071 13.2929C14.5196 13.1054 14.2652 13 14 13Z" fill="#CCCCCC"/>
<path id="Vector_2" opacity="0.3" d="M15.0197 0.973028L6.87983 1.01707C3.58827 1.03488 0.934359 3.71766 0.952168 7.00923L0.995885 15.0891C1.01369 18.3807 3.69648 21.0346 6.98804 21.0168L15.1279 20.9727C18.4195 20.9549 21.0734 18.2721 21.0556 14.9806L21.0119 6.90069C20.9941 3.60913 18.3113 0.955219 15.0197 0.973028Z" fill="#CCCCCC"/>
</g>
</g>
</svg>
