<svg width="128" height="128" viewBox="0 0 128 128" fill="none" xmlns="http://www.w3.org/2000/svg">
<g clip-path="url(#clip0_738_3734)">
<rect width="128" height="128" rx="6" fill="#303030"/>
<g filter="url(#filter0_f_738_3734)">
<circle cx="16.5" cy="-11.5" r="27.5" fill="white" fill-opacity="0.1"/>
</g>
<path d="M64 89C60.5833 89 57.3542 88.3438 54.3125 87.0312C51.2708 85.7188 48.6146 83.9271 46.3438 81.6562C44.0729 79.3854 42.2812 76.7292 40.9688 73.6875C39.6562 70.6458 39 67.4167 39 64C39 60.5417 39.6562 57.3021 40.9688 54.2812C42.2812 51.2604 44.0729 48.6146 46.3438 46.3438C48.6146 44.0729 51.2708 42.2812 54.3125 40.9688C57.3542 39.6562 60.5833 39 64 39C67.4583 39 70.6979 39.6562 73.7188 40.9688C76.7396 42.2812 79.3854 44.0729 81.6562 46.3438C83.9271 48.6146 85.7188 51.2604 87.0312 54.2812C88.3438 57.3021 89 60.5417 89 64C89 67.4167 88.3438 70.6458 87.0312 73.6875C85.7188 76.7292 83.9271 79.3854 81.6562 81.6562C79.3854 83.9271 76.7396 85.7188 73.7188 87.0312C70.6979 88.3438 67.4583 89 64 89ZM64 83.875C65.0833 82.375 66.0208 80.8125 66.8125 79.1875C67.6042 77.5625 68.25 75.8333 68.75 74H59.25C59.75 75.8333 60.3958 77.5625 61.1875 79.1875C61.9792 80.8125 62.9167 82.375 64 83.875ZM57.5 82.875C56.75 81.5 56.0938 80.0729 55.5312 78.5938C54.9688 77.1146 54.5 75.5833 54.125 74H46.75C47.9583 76.0833 49.4688 77.8958 51.2812 79.4375C53.0938 80.9792 55.1667 82.125 57.5 82.875ZM70.5 82.875C72.8333 82.125 74.9062 80.9792 76.7188 79.4375C78.5312 77.8958 80.0417 76.0833 81.25 74H73.875C73.5 75.5833 73.0312 77.1146 72.4688 78.5938C71.9062 80.0729 71.25 81.5 70.5 82.875ZM44.625 69H53.125C53 68.1667 52.9062 67.3438 52.8438 66.5312C52.7812 65.7188 52.75 64.875 52.75 64C52.75 63.125 52.7812 62.2812 52.8438 61.4688C52.9062 60.6562 53 59.8333 53.125 59H44.625C44.4167 59.8333 44.2604 60.6562 44.1562 61.4688C44.0521 62.2812 44 63.125 44 64C44 64.875 44.0521 65.7188 44.1562 66.5312C44.2604 67.3438 44.4167 68.1667 44.625 69ZM58.125 69H69.875C70 68.1667 70.0938 67.3438 70.1562 66.5312C70.2188 65.7188 70.25 64.875 70.25 64C70.25 63.125 70.2188 62.2812 70.1562 61.4688C70.0938 60.6562 70 59.8333 69.875 59H58.125C58 59.8333 57.9062 60.6562 57.8438 61.4688C57.7812 62.2812 57.75 63.125 57.75 64C57.75 64.875 57.7812 65.7188 57.8438 66.5312C57.9062 67.3438 58 68.1667 58.125 69ZM74.875 69H83.375C83.5833 68.1667 83.7396 67.3438 83.8438 66.5312C83.9479 65.7188 84 64.875 84 64C84 63.125 83.9479 62.2812 83.8438 61.4688C83.7396 60.6562 83.5833 59.8333 83.375 59H74.875C75 59.8333 75.0938 60.6562 75.1562 61.4688C75.2188 62.2812 75.25 63.125 75.25 64C75.25 64.875 75.2188 65.7188 75.1562 66.5312C75.0938 67.3438 75 68.1667 74.875 69ZM73.875 54H81.25C80.0417 51.9167 78.5312 50.1042 76.7188 48.5625C74.9062 47.0208 72.8333 45.875 70.5 45.125C71.25 46.5 71.9062 47.9271 72.4688 49.4062C73.0312 50.8854 73.5 52.4167 73.875 54ZM59.25 54H68.75C68.25 52.1667 67.6042 50.4375 66.8125 48.8125C66.0208 47.1875 65.0833 45.625 64 44.125C62.9167 45.625 61.9792 47.1875 61.1875 48.8125C60.3958 50.4375 59.75 52.1667 59.25 54ZM46.75 54H54.125C54.5 52.4167 54.9688 50.8854 55.5312 49.4062C56.0938 47.9271 56.75 46.5 57.5 45.125C55.1667 45.875 53.0938 47.0208 51.2812 48.5625C49.4688 50.1042 47.9583 51.9167 46.75 54Z" fill="#E2FD70"/>
</g>
<rect x="0.5" y="0.5" width="127" height="127" rx="5.5" stroke="url(#paint0_linear_738_3734)" stroke-opacity="0.1"/>
<defs>
<filter id="filter0_f_738_3734" x="-51" y="-79" width="135" height="135" filterUnits="userSpaceOnUse" color-interpolation-filters="sRGB">
<feFlood flood-opacity="0" result="BackgroundImageFix"/>
<feBlend mode="normal" in="SourceGraphic" in2="BackgroundImageFix" result="shape"/>
<feGaussianBlur stdDeviation="20" result="effect1_foregroundBlur_738_3734"/>
</filter>
<linearGradient id="paint0_linear_738_3734" x1="64" y1="0" x2="64" y2="128" gradientUnits="userSpaceOnUse">
<stop stop-color="white"/>
<stop offset="1" stop-color="white" stop-opacity="0"/>
</linearGradient>
<clipPath id="clip0_738_3734">
<rect width="128" height="128" rx="6" fill="white"/>
</clipPath>
</defs>
</svg>
