<svg width="60" height="60" viewBox="0 0 60 60" fill="none" xmlns="http://www.w3.org/2000/svg">
<rect width="60" height="60" rx="30" fill="#D3CE57"/>
<path opacity="0.3" d="M29.9997 46.6666C39.2044 46.6666 46.6663 39.2047 46.6663 29.9999C46.6663 20.7952 39.2044 13.3333 29.9997 13.3333C20.7949 13.3333 13.333 20.7952 13.333 29.9999C13.333 39.2047 20.7949 46.6666 29.9997 46.6666Z" fill="#252525"/>
<path d="M37.0833 31.25H30C29.6698 31.2457 29.3544 31.1126 29.1209 30.8791C28.8874 30.6456 28.7543 30.3302 28.75 30V20C28.75 19.6685 28.8817 19.3505 29.1161 19.1161C29.3505 18.8817 29.6685 18.75 30 18.75C30.3315 18.75 30.6495 18.8817 30.8839 19.1161C31.1183 19.3505 31.25 19.6685 31.25 20V28.7833H37.0833C37.4149 28.7833 37.7328 28.915 37.9672 29.1495C38.2016 29.3839 38.3333 29.7018 38.3333 30.0333C38.3333 30.3649 38.2016 30.6828 37.9672 30.9172C37.7328 31.1516 37.4149 31.2833 37.0833 31.2833V31.25Z" fill="#252525"/>
</svg>
