<svg width="35" height="35" viewBox="0 0 35 35" fill="none" xmlns="http://www.w3.org/2000/svg">
<path opacity="0.3" d="M17.4998 32.0834C25.554 32.0834 32.0832 25.5542 32.0832 17.5001C32.0832 9.44593 25.554 2.91675 17.4998 2.91675C9.44568 2.91675 2.9165 9.44593 2.9165 17.5001C2.9165 25.5542 9.44568 32.0834 17.4998 32.0834Z" fill="black"/>
<path d="M19.5562 17.5L23.6833 13.3729C23.836 13.2422 23.96 13.0813 24.0475 12.9003C24.135 12.7194 24.1842 12.5223 24.192 12.3215C24.1997 12.1207 24.1659 11.9204 24.0926 11.7332C24.0193 11.5461 23.9081 11.3761 23.7659 11.234C23.6238 11.0919 23.4538 10.9807 23.2667 10.9074C23.0796 10.8341 22.8793 10.8002 22.6784 10.808C22.4776 10.8157 22.2805 10.8649 22.0996 10.9525C21.9187 11.04 21.7578 11.164 21.6271 11.3166L17.5 15.4437L13.3729 11.3166C13.0939 11.0777 12.7351 10.9529 12.368 10.9671C12.001 10.9812 11.6528 11.1334 11.3931 11.3931C11.1334 11.6528 10.9812 12.001 10.9671 12.368C10.9529 12.735 11.0777 13.0939 11.3167 13.3729L15.4437 17.5L11.3167 21.6271C11.045 21.9003 10.8926 22.2699 10.8926 22.6552C10.8926 23.0404 11.045 23.4101 11.3167 23.6833C11.5899 23.9549 11.9595 24.1074 12.3448 24.1074C12.73 24.1074 13.0997 23.9549 13.3729 23.6833L17.5 19.5562L21.6271 23.6833C21.9003 23.9549 22.2699 24.1074 22.6552 24.1074C23.0405 24.1074 23.4101 23.9549 23.6833 23.6833C23.9549 23.4101 24.1074 23.0404 24.1074 22.6552C24.1074 22.2699 23.9549 21.9003 23.6833 21.6271L19.5562 17.5Z" fill="#AFAFAF"/>
</svg>
