<svg width="66" height="66" viewBox="0 0 66 66" fill="none" xmlns="http://www.w3.org/2000/svg">
<rect width="66" height="66" rx="4.95" fill="#DC9813" fill-opacity="0.1"/>
<path d="M35.1862 25.0593V15.6749C35.1747 15.1757 35.2767 14.6804 35.4845 14.2263C35.6923 13.7722 36.0004 13.3712 36.3856 13.0535C36.7709 12.7358 37.2232 12.5097 37.7085 12.3921C38.1938 12.2746 38.6995 12.2687 39.1874 12.3749C42.7263 13.1408 45.9697 14.9096 48.53 17.4698C51.0903 20.0301 52.8591 23.2736 53.6249 26.8124C53.7194 27.2908 53.7067 27.7842 53.5877 28.2571C53.4687 28.73 53.2464 29.1706 52.9367 29.5473C52.6271 29.924 52.2378 30.2274 51.7969 30.4357C51.356 30.6439 50.8744 30.7519 50.3868 30.7518H40.9405C39.425 30.7519 37.9707 30.1541 36.8933 29.0883C35.8159 28.0225 35.2025 26.5747 35.1862 25.0593Z" fill="#DC9813"/>
<path opacity="0.3" d="M40.9405 33.9281C38.5901 33.9226 36.3374 32.9865 34.6754 31.3245C33.0134 29.6624 32.0772 27.4098 32.0718 25.0593V16.4999C31.7212 16.4999 31.3705 16.4999 31.0199 16.4999C27.3486 16.4999 23.7597 17.5886 20.7071 19.6283C17.6545 21.668 15.2753 24.567 13.8704 27.9589C12.4654 31.3507 12.0978 35.083 12.8141 38.6838C13.5303 42.2846 15.2982 45.5921 17.8942 48.1881C20.4902 50.7841 23.7978 52.552 27.3985 53.2683C30.9993 53.9845 34.7316 53.6169 38.1235 52.212C41.5153 50.807 44.4144 48.4278 46.4541 45.3752C48.4937 42.3226 49.5824 38.7338 49.5824 35.0624C49.5824 34.7118 49.5824 34.3612 49.5824 34.0106L40.9405 33.9281Z" fill="#DC9813"/>
</svg>
