<svg width="20" height="20" viewBox="0 0 20 20" fill="none" xmlns="http://www.w3.org/2000/svg">
<path opacity="0.3" d="M13.5333 3.38333H4.80834C3.07324 3.38333 1.66667 4.7899 1.66667 6.525V15.2083C1.66667 16.9434 3.07324 18.35 4.80834 18.35H13.5333C15.2684 18.35 16.675 16.9434 16.675 15.2083V6.525C16.675 4.7899 15.2684 3.38333 13.5333 3.38333Z" fill="#CCCCCC"/>
<path d="M11.1417 9.72501L17.0667 3.825V5.78334C17.0667 5.95131 17.1334 6.1124 17.2522 6.23117C17.3709 6.34995 17.532 6.41667 17.7 6.41667C17.868 6.41667 18.0291 6.34995 18.1478 6.23117C18.2666 6.1124 18.3333 5.95131 18.3333 5.78334V2.3C18.3333 2.13203 18.2666 1.97094 18.1478 1.85217C18.0291 1.7334 17.868 1.66667 17.7 1.66667H14.2083C14.125 1.6661 14.0423 1.682 13.9651 1.71346C13.8878 1.74493 13.8176 1.79133 13.7583 1.85C13.6689 1.93859 13.6079 2.05183 13.5831 2.17526C13.5583 2.29869 13.5708 2.42671 13.6191 2.54297C13.6674 2.65923 13.7493 2.75847 13.8542 2.828C13.9592 2.89753 14.0825 2.9342 14.2083 2.93334H16.1667L10.25 8.83334C10.1496 8.95482 10.0981 9.10938 10.1055 9.26682C10.113 9.42426 10.1788 9.57327 10.2903 9.68472C10.4017 9.79617 10.5508 9.86206 10.7082 9.86951C10.8656 9.87696 11.0202 9.82544 11.1417 9.72501Z" fill="#CCCCCC"/>
</svg>
