<svg width="120" height="121" viewBox="0 0 120 121" fill="none" xmlns="http://www.w3.org/2000/svg">
<rect y="0.5" width="120" height="120" rx="60" fill="#57D37D"/>
<path opacity="0.3" d="M59.9998 93.8334C78.4093 93.8334 93.3332 78.9096 93.3332 60.5001C93.3332 42.0906 78.4093 27.1667 59.9998 27.1667C41.5903 27.1667 26.6665 42.0906 26.6665 60.5001C26.6665 78.9096 41.5903 93.8334 59.9998 93.8334Z" fill="#0D0D0D"/>
<path d="M59.0333 72.8667L79.0333 52.8667C79.3441 52.5559 79.5906 52.187 79.7588 51.7809C79.927 51.3748 80.0136 50.9396 80.0136 50.5C80.0136 50.0605 79.927 49.6253 79.7588 49.2192C79.5906 48.8131 79.3441 48.4442 79.0333 48.1334C78.7225 47.8226 78.3535 47.576 77.9475 47.4078C77.5414 47.2396 77.1062 47.1531 76.6666 47.1531C76.2271 47.1531 75.7919 47.2396 75.3858 47.4078C74.9797 47.576 74.6108 47.8226 74.3 48.1334L56.6666 65.8001L45.7 54.8C45.0723 54.1724 44.221 53.8197 43.3333 53.8197C42.4456 53.8197 41.5943 54.1724 40.9666 54.8C40.339 55.4277 39.9863 56.279 39.9863 57.1667C39.9863 58.0544 40.339 58.9057 40.9666 59.5334L54.3 72.8667C54.6098 73.1791 54.9785 73.4271 55.3847 73.5964C55.7909 73.7656 56.2266 73.8527 56.6666 73.8527C57.1067 73.8527 57.5424 73.7656 57.9486 73.5964C58.3548 73.4271 58.7234 73.1791 59.0333 72.8667Z" fill="#0D0D0D"/>
</svg>
