<svg width="29" height="28" viewBox="0 0 29 28" fill="none" xmlns="http://www.w3.org/2000/svg">
<path d="M14.5002 2.33325C11.406 2.33325 8.43851 3.56242 6.25058 5.75034C4.06266 7.93826 2.8335 10.9057 2.8335 13.9999C2.8335 17.0941 4.06266 20.0616 6.25058 22.2495C8.43851 24.4374 11.406 25.6666 14.5002 25.6666C17.5944 25.6666 20.5618 24.4374 22.7497 22.2495C24.9377 20.0616 26.1668 17.0941 26.1668 13.9999C26.1668 10.9057 24.9377 7.93826 22.7497 5.75034C20.5618 3.56242 17.5944 2.33325 14.5002 2.33325Z" fill="#27353C"/>
<path d="M20.3043 8.75008L18.1192 19.9069C18.1192 19.9069 18.0252 20.4167 17.3929 20.4167C17.0569 20.4167 16.8837 20.2569 16.8837 20.2569L12.1505 16.3293L9.83466 15.1621L6.86258 14.3717C6.86258 14.3717 6.3335 14.2188 6.3335 13.7813C6.3335 13.4167 6.87775 13.2429 6.87775 13.2429L19.3121 8.30325C19.3121 8.30325 19.6918 8.16617 19.9689 8.16675C20.1392 8.16675 20.3335 8.23967 20.3335 8.45842C20.3335 8.60425 20.3043 8.75008 20.3043 8.75008Z" fill="white"/>
<path d="M13.9167 17.7946L11.9182 19.7628C11.9182 19.7628 11.8312 19.8299 11.7152 19.8328C11.6749 19.834 11.6317 19.8275 11.5874 19.8077L12.1497 16.3281L13.9167 17.7946Z" fill="#B0BEC5"/>
<path d="M17.9401 10.6143C17.8415 10.4859 17.6595 10.4626 17.5312 10.56L9.8335 15.1666C9.8335 15.1666 11.062 18.6036 11.2492 19.1986C11.4371 19.7942 11.5876 19.8082 11.5876 19.8082L12.1499 16.3286L17.8852 11.0226C18.0136 10.9252 18.0375 10.7426 17.9401 10.6143Z" fill="#CFD8DC"/>
</svg>
