<svg width="66" height="66" viewBox="0 0 66 66" fill="none" xmlns="http://www.w3.org/2000/svg">
<rect width="66" height="66" rx="4.95" fill="#3F5CF8" fill-opacity="0.1"/>
<path d="M33 53.6249C44.3909 53.6249 53.625 44.3908 53.625 32.9999C53.625 21.6091 44.3909 12.3749 33 12.3749C21.6091 12.3749 12.375 21.6091 12.375 32.9999C12.375 44.3908 21.6091 53.6249 33 53.6249Z" fill="#3F5CF8"/>
<path d="M39.0433 35.0625C38.633 35.0625 38.2396 34.8995 37.9495 34.6094C37.6594 34.3193 37.4964 33.9258 37.4964 33.5156V27.5962C37.491 26.6515 37.1133 25.7471 36.4453 25.0791C35.7774 24.4112 34.8729 24.0335 33.9283 24.0281H32.072C31.1274 24.0335 30.223 24.4112 29.555 25.0791C28.887 25.7471 28.5093 26.6515 28.5039 27.5962V33.5362C28.5039 33.9465 28.3409 34.3399 28.0508 34.63C27.7607 34.9201 27.3673 35.0831 26.957 35.0831C26.5468 35.0831 26.1533 34.9201 25.8632 34.63C25.5731 34.3399 25.4102 33.9465 25.4102 33.5362V27.5962C25.4102 25.8294 26.112 24.1349 27.3614 22.8855C28.6107 21.6362 30.3052 20.9343 32.072 20.9343H33.9283C34.8031 20.9343 35.6694 21.1066 36.4777 21.4414C37.2859 21.7762 38.0203 22.2669 38.6389 22.8855C39.2576 23.5042 39.7483 24.2386 40.0831 25.0468C40.4178 25.8551 40.5902 26.7214 40.5902 27.5962V33.5362C40.5795 33.9412 40.4125 34.3263 40.1241 34.6109C39.8357 34.8954 39.4484 35.0573 39.0433 35.0625Z" fill="white"/>
<path d="M39.6412 29.803H26.3587C25.2264 29.803 24.1405 30.2528 23.3398 31.0535C22.5391 31.8542 22.0893 32.9401 22.0893 34.0724V39.1874C22.0811 39.7533 22.1855 40.3151 22.3964 40.8402C22.6073 41.3654 22.9204 41.8434 23.3177 42.2464C23.715 42.6494 24.1884 42.9694 24.7105 43.1879C25.2325 43.4063 25.7928 43.5187 26.3587 43.5187H39.6412C40.2071 43.5187 40.7674 43.4063 41.2894 43.1879C41.8115 42.9694 42.2849 42.6494 42.6822 42.2464C43.0795 41.8434 43.3926 41.3654 43.6035 40.8402C43.8144 40.3151 43.9188 39.7533 43.9106 39.1874V34.0724C43.9106 32.9401 43.4608 31.8542 42.6601 31.0535C41.8594 30.2528 40.7735 29.803 39.6412 29.803ZM32.9999 38.8574C32.5617 38.8615 32.1322 38.735 31.7662 38.4941C31.4001 38.2532 31.1141 37.9087 30.9445 37.5046C30.7749 37.1006 30.7295 36.6551 30.8139 36.2251C30.8984 35.7951 31.109 35.4 31.4189 35.0901C31.7288 34.7803 32.1239 34.5697 32.5539 34.4852C32.9839 34.4007 33.4293 34.4461 33.8334 34.6157C34.2375 34.7853 34.582 35.0713 34.8229 35.4374C35.0638 35.8035 35.1903 36.233 35.1862 36.6712C35.1862 37.251 34.9559 37.8071 34.5459 38.2171C34.1359 38.6271 33.5798 38.8574 32.9999 38.8574Z" fill="white"/>
</svg>
