<svg width="24" height="24" viewBox="0 0 24 24" fill="none" xmlns="http://www.w3.org/2000/svg">
<g id="bnb-bnb-logo (2)">
<g id="Group">
<path id="Vector" fill-rule="evenodd" clip-rule="evenodd" d="M12 1C18.0756 1 23 5.92444 23 12C23 18.0756 18.0756 23 12 23C5.92444 23 1 18.0756 1 12C1 5.92444 5.92444 1 12 1Z" fill="#F0B90B"/>
<path id="Vector_2" d="M7.04677 11.9992L7.0547 14.9079L9.52617 16.3622V18.0651L5.6083 15.7673V11.1487L7.04677 11.9992ZM7.04677 9.09058V10.7855L5.60742 9.93409V8.23914L7.04677 7.3877L8.49316 8.23914L7.04677 9.09058ZM10.5583 8.23914L11.9976 7.3877L13.444 8.23914L11.9976 9.09058L10.5583 8.23914Z" fill="white"/>
<path id="Vector_3" d="M8.08594 14.305V12.6021L9.52528 13.4536V15.1485L8.08594 14.305ZM10.5574 16.9722L11.9968 17.8236L13.4431 16.9722V18.6671L11.9968 19.5185L10.5574 18.6671V16.9722ZM15.5074 8.23914L16.9468 7.3877L18.3931 8.23914V9.93409L16.9468 10.7855V9.09058L15.5074 8.23914ZM16.9468 14.9079L16.9547 11.9992L18.394 11.1478V15.7664L14.4762 18.0642V16.3613L16.9468 14.9079Z" fill="white"/>
<path id="Vector_4" d="M15.914 14.3054L14.4746 15.1489V13.454L15.914 12.6025V14.3054Z" fill="white"/>
<path id="Vector_5" d="M15.9146 9.69401L15.9226 11.3969L13.444 12.8512V15.7669L12.0047 16.6104L10.5653 15.7669V12.8512L8.08682 11.3969V9.69401L9.53233 8.84257L11.9959 10.3039L14.4744 8.84257L15.9208 9.69401H15.9146ZM8.08594 6.78624L11.9968 4.48047L15.9146 6.78624L14.4753 7.63768L11.9968 6.1763L9.52528 7.63768L8.08594 6.78624Z" fill="white"/>
</g>
</g>
</svg>
