<svg width="24" height="24" viewBox="0 0 24 24" fill="none" xmlns="http://www.w3.org/2000/svg">
<g id="Ethereum">
<g id="All">
<g id="Developer-Center">
<g id="Group-28">
<g id="Group-29">
<g id="Group-10">
<g id="Group-13">
<g id="Group-46">
<g id="Group-45">
<path id="Oval" d="M12 23C18.0751 23 23 18.0751 23 12C23 5.92487 18.0751 1 12 1C5.92487 1 1 5.92487 1 12C1 18.0751 5.92487 23 12 23Z" fill="#627EEA"/>
<path id="Path" d="M12.3418 3.74805V9.84646L17.496 12.1499L12.3418 3.74805Z" fill="white" fill-opacity="0.602"/>
<path id="Path_1_" d="M12.3436 3.74805L7.18945 12.1499L12.3436 9.84646V3.74805Z" fill="white"/>
<path id="Path_2_" d="M12.3418 16.1024V20.2462L17.499 13.1104L12.3418 16.1024Z" fill="white" fill-opacity="0.602"/>
<path id="Path_3_" d="M12.3436 20.2462V16.1024L7.18945 13.1104L12.3436 20.2462Z" fill="white"/>
<path id="Path_4_" d="M12.3418 15.1422L17.496 12.1501L12.3418 9.84668V15.1422Z" fill="white" fill-opacity="0.2"/>
</g>
<path id="Path_5_" d="M7.18945 12.1501L12.3436 15.1422V9.84668L7.18945 12.1501Z" fill="white" fill-opacity="0.602"/>
</g>
</g>
</g>
</g>
</g>
</g>
</g>
</g>
</svg>
