<svg width="24" height="24" viewBox="0 0 24 24" fill="none" xmlns="http://www.w3.org/2000/svg">
<g id="polygon-logo">
<g id="Layer_x0020_1">
<path id="Vector" d="M17.3351 15.7093L22.5514 12.7009C22.8241 12.5426 23 12.2435 23 11.9268V5.90124C23 5.58457 22.8241 5.28549 22.5514 5.12715L17.3351 2.11875C17.0624 1.96042 16.7193 1.96042 16.4378 2.11875L11.2215 5.12715C10.9488 5.28549 10.7729 5.58457 10.7729 5.90124V16.6681L7.11355 18.7793L3.45422 16.6681V12.4458L7.11355 10.3347L9.52379 11.7245V8.89204L7.56218 7.7573C7.43023 7.67813 7.27189 7.63415 7.11355 7.63415C6.95522 7.63415 6.80568 7.67813 6.66493 7.7573L1.44862 10.7657C1.17593 10.924 1 11.2231 1 11.5398V17.5654C1 17.882 1.17593 18.1811 1.44862 18.3395L6.66493 21.3479C6.93762 21.5062 7.28069 21.5062 7.56218 21.3479L12.7785 18.3395C13.0512 18.1811 13.2271 17.882 13.2271 17.5654V6.79848L13.2975 6.76329L16.8864 4.68733L20.5458 6.79848V11.0208L16.8864 13.1319L14.4762 11.7421V14.5746L16.4378 15.7093C16.7105 15.8677 17.0536 15.8677 17.3351 15.7093Z" fill="url(#paint0_linear_1087_1706)"/>
</g>
</g>
<defs>
<linearGradient id="paint0_linear_1087_1706" x1="2.85355" y1="18.369" x2="21.7924" y2="4.62895" gradientUnits="userSpaceOnUse">
<stop stop-color="#A726C1"/>
<stop offset="0.8784" stop-color="#803BDF"/>
<stop offset="1" stop-color="#7B3FE4"/>
</linearGradient>
</defs>
</svg>
