<svg width="24" height="24" viewBox="0 0 24 24" fill="none" xmlns="http://www.w3.org/2000/svg">
<g id="Solana">
<path id="Vector" d="M11.9829 1.94043H11.9989C17.3949 1.94043 21.7709 6.31643 21.7709 11.7124V12.2564C21.7709 17.6524 17.3949 22.0284 11.9989 22.0284H11.9829C6.58694 22.0284 2.21094 17.6524 2.21094 12.2564V11.7124C2.21094 6.31643 6.58694 1.94043 11.9829 1.94043Z" fill="#232323"/>
<path id="Vector_2" d="M16.1716 9.50037C16.1396 9.53637 16.0996 9.56437 16.0556 9.58037C16.0116 9.60037 15.9636 9.60837 15.9156 9.60837H6.85564C6.53564 9.60837 6.37164 9.20837 6.59564 8.96837L8.08364 7.38837C8.11564 7.35237 8.15564 7.32437 8.20364 7.30437C8.24764 7.28437 8.29564 7.27637 8.34364 7.27637H17.4396C17.7636 7.27637 17.9236 7.68037 17.6956 7.92037L16.1716 9.50037ZM16.1716 16.5644C16.1036 16.6324 16.0116 16.6724 15.9156 16.6724H6.85564C6.53564 16.6724 6.37164 16.2804 6.59564 16.0484L8.08364 14.5044C8.11564 14.4684 8.15964 14.4404 8.20364 14.4244C8.24764 14.4044 8.29564 14.3964 8.34364 14.3964H17.4396C17.7636 14.3964 17.9236 14.7924 17.6956 15.0244L16.1716 16.5644ZM16.1716 10.9444C16.1036 10.8764 16.0116 10.8364 15.9156 10.8364H6.85564C6.53564 10.8364 6.37164 11.2284 6.59564 11.4604L8.08364 13.0044C8.11564 13.0404 8.15964 13.0684 8.20364 13.0844C8.24764 13.1044 8.29564 13.1124 8.34364 13.1124H17.4396C17.7636 13.1124 17.9236 12.7164 17.6956 12.4844L16.1716 10.9444Z" fill="url(#paint0_linear_1087_1669)"/>
</g>
<defs>
<linearGradient id="paint0_linear_1087_1669" x1="7.1838" y1="16.7896" x2="17.0812" y2="7.15371" gradientUnits="userSpaceOnUse">
<stop stop-color="#CF41E8"/>
<stop offset="1" stop-color="#10F2B0"/>
</linearGradient>
</defs>
</svg>
