<svg width="110" height="100" viewBox="0 0 110 100" fill="none" xmlns="http://www.w3.org/2000/svg">
<path d="M55 48.4C58.4667 48.4 61.4533 49.5733 63.96 51.92C66.4667 54.2667 67.96 57.1733 68.44 60.64C68.5467 61.28 68.84 61.8 69.32 62.2C69.8 62.6 70.36 62.8 71 62.8C71.64 62.8 72.2133 62.5867 72.72 62.16C73.2267 61.7333 73.4267 61.2 73.32 60.56C72.7867 55.76 70.8 51.7333 67.36 48.48C63.92 45.2267 59.8 43.6 55 43.6C50.2 43.6 46.08 45.2267 42.64 48.48C39.2 51.7333 37.2133 55.76 36.68 60.56C36.5733 61.2 36.7733 61.7333 37.28 62.16C37.7867 62.5867 38.36 62.8 39 62.8C39.64 62.8 40.2 62.6 40.68 62.2C41.16 61.8 41.4533 61.28 41.56 60.64C42.04 57.1733 43.5333 54.2667 46.04 51.92C48.5467 49.5733 51.5333 48.4 55 48.4ZM50.36 35.68C50.84 35.2533 51.0667 34.7067 51.04 34.04C51.0133 33.3733 50.7333 32.8267 50.2 32.4C49.6667 31.9733 49.08 31.7867 48.44 31.84C47.8 31.8933 47.2133 32.1333 46.68 32.56C45.8267 33.3067 44.9333 33.9333 44 34.44C43.0667 34.9467 42.0667 35.3867 41 35.76C40.36 36.0267 39.84 36.4267 39.44 36.96C39.04 37.4933 38.8933 38.1067 39 38.8C39.1067 39.4933 39.4267 40.0267 39.96 40.4C40.4933 40.7733 41.0533 40.8533 41.64 40.64C43.24 40.1067 44.7867 39.4267 46.28 38.6C47.7733 37.7733 49.1333 36.8 50.36 35.68ZM59.64 35.68C60.8667 36.8 62.2 37.76 63.64 38.56C65.08 39.36 66.6 40.0267 68.2 40.56C68.84 40.7733 69.44 40.7067 70 40.36C70.56 40.0133 70.8933 39.4933 71 38.8C71.1067 38.1067 70.9467 37.4933 70.52 36.96C70.0933 36.4267 69.56 36.0267 68.92 35.76C67.9067 35.3867 66.9333 34.9333 66 34.4C65.0667 33.8667 64.1733 33.2533 63.32 32.56C62.7867 32.1333 62.2 31.8933 61.56 31.84C60.92 31.7867 60.3333 31.9733 59.8 32.4C59.2667 32.8267 58.9867 33.3733 58.96 34.04C58.9333 34.7067 59.16 35.2533 59.64 35.68ZM55 82C50.5733 82 46.4133 81.16 42.52 79.48C38.6267 77.8 35.24 75.52 32.36 72.64C29.48 69.76 27.2 66.3733 25.52 62.48C23.84 58.5867 23 54.4267 23 50C23 45.5733 23.84 41.4133 25.52 37.52C27.2 33.6267 29.48 30.24 32.36 27.36C35.24 24.48 38.6267 22.2 42.52 20.52C46.4133 18.84 50.5733 18 55 18C59.4267 18 63.5867 18.84 67.48 20.52C71.3733 22.2 74.76 24.48 77.64 27.36C80.52 30.24 82.8 33.6267 84.48 37.52C86.16 41.4133 87 45.5733 87 50C87 54.4267 86.16 58.5867 84.48 62.48C82.8 66.3733 80.52 69.76 77.64 72.64C74.76 75.52 71.3733 77.8 67.48 79.48C63.5867 81.16 59.4267 82 55 82ZM55 77.2C62.5933 77.2 69.025 74.565 74.295 69.295C79.565 64.025 82.2 57.5933 82.2 50C82.2 42.4067 79.565 35.975 74.295 30.705C69.025 25.435 62.5933 22.8 55 22.8C47.4067 22.8 40.975 25.435 35.705 30.705C30.435 35.975 27.8 42.4067 27.8 50C27.8 57.5933 30.435 64.025 35.705 69.295C40.975 74.565 47.4067 77.2 55 77.2Z" fill="#9C9C9C"/>
</svg>
