<svg width="32" height="32" viewBox="0 0 32 32" fill="none" xmlns="http://www.w3.org/2000/svg">
<path opacity="0.3" d="M21.5865 2.66663H10.4132C6.1348 2.66663 2.6665 6.13493 2.6665 10.4133V21.5866C2.6665 25.865 6.1348 29.3333 10.4132 29.3333H21.5865C25.8649 29.3333 29.3332 25.865 29.3332 21.5866V10.4133C29.3332 6.13493 25.8649 2.66663 21.5865 2.66663Z" fill="#E2FD70"/>
<path d="M17.88 16L21.6534 12.2267C21.7929 12.1071 21.9063 11.9601 21.9863 11.7946C22.0664 11.6292 22.1113 11.449 22.1184 11.2654C22.1255 11.0818 22.0946 10.8987 22.0276 10.7276C21.9605 10.5565 21.8588 10.4011 21.7289 10.2711C21.599 10.1412 21.4436 10.0395 21.2725 9.97249C21.1014 9.90546 20.9183 9.87452 20.7346 9.88161C20.551 9.8887 20.3708 9.93367 20.2054 10.0137C20.04 10.0937 19.8929 10.2071 19.7734 10.3467L16 14.12L12.2267 10.3467C11.9716 10.1282 11.6435 10.0141 11.308 10.0271C10.9724 10.04 10.6541 10.1791 10.4166 10.4166C10.1792 10.654 10.0401 10.9724 10.0271 11.3079C10.0141 11.6435 10.1283 11.9716 10.3467 12.2267L14.12 16L10.3467 19.7733C10.0984 20.0232 9.95898 20.3611 9.95898 20.7133C9.95898 21.0656 10.0984 21.4035 10.3467 21.6533C10.5965 21.9017 10.9345 22.0411 11.2867 22.0411C11.639 22.0411 11.9769 21.9017 12.2267 21.6533L16 17.88L19.7734 21.6533C20.0232 21.9017 20.3611 22.0411 20.7134 22.0411C21.0656 22.0411 21.4036 21.9017 21.6534 21.6533C21.9017 21.4035 22.0411 21.0656 22.0411 20.7133C22.0411 20.3611 21.9017 20.0232 21.6534 19.7733L17.88 16Z" fill="#E2FD70"/>
</svg>
