<svg width="32" height="32" viewBox="0 0 32 32" fill="none" xmlns="http://www.w3.org/2000/svg">
<circle cx="16" cy="16" r="16" fill="#2D311C"/>
<path opacity="0.3" d="M6.7998 14.8901V20.5801C6.7998 22.0175 7.37084 23.3961 8.38729 24.4126C9.40373 25.429 10.7823 26.0001 12.2198 26.0001H19.7798C20.4916 26.0001 21.1964 25.8599 21.8539 25.5875C22.5115 25.3151 23.109 24.9159 23.6123 24.4126C24.1156 23.9093 24.5149 23.3118 24.7872 22.6542C25.0596 21.9966 25.1998 21.2918 25.1998 20.5801V14.8901C25.1998 14.6726 25.1134 14.464 24.9596 14.3102C24.8059 14.1565 24.5973 14.0701 24.3798 14.0701H7.6198C7.40233 14.0701 7.19376 14.1565 7.03998 14.3102C6.8862 14.464 6.7998 14.6726 6.7998 14.8901Z" fill="#E2FD70"/>
<path d="M24.8498 11.58C24.8964 11.7049 24.9122 11.8393 24.8959 11.9716C24.8796 12.1039 24.8316 12.2304 24.7561 12.3403C24.6806 12.4501 24.5797 12.5402 24.4619 12.6028C24.3442 12.6654 24.2131 12.6988 24.0798 12.7H8.07981C7.91683 12.7011 7.75604 12.6624 7.61144 12.5873C7.46683 12.5121 7.3428 12.4027 7.25013 12.2686C7.15746 12.1345 7.09896 11.9798 7.07974 11.818C7.06051 11.6561 7.08113 11.4921 7.13981 11.34C7.44316 10.6126 7.90064 9.95973 8.48071 9.42627C9.06078 8.89281 9.74965 8.4915 10.4998 8.25V6.69C10.4985 6.59986 10.5151 6.51036 10.5487 6.4267C10.5823 6.34304 10.6321 6.2669 10.6954 6.20269C10.7587 6.13848 10.8341 6.0875 10.9173 6.0527C11.0004 6.0179 11.0897 5.99999 11.1798 6C11.3628 6 11.5383 6.0727 11.6677 6.2021C11.7971 6.3315 11.8698 6.507 11.8698 6.69V8C11.9998 8 12.0798 8 12.1898 8H15.4598V6.69C15.4598 6.507 15.5325 6.3315 15.6619 6.2021C15.7913 6.0727 15.9668 6 16.1498 6C16.3328 6 16.5083 6.0727 16.6377 6.2021C16.7671 6.3315 16.8398 6.507 16.8398 6.69V8H19.7398C19.8498 8 19.9498 8 20.0598 8V6.69C20.0585 6.59986 20.0751 6.51036 20.1087 6.4267C20.1423 6.34304 20.1921 6.2669 20.2554 6.20269C20.3187 6.13848 20.3941 6.0875 20.4773 6.0527C20.5604 6.0179 20.6497 5.99999 20.7398 6C20.9228 6 21.0983 6.0727 21.2277 6.2021C21.3571 6.3315 21.4298 6.507 21.4298 6.69V8.25C22.2148 8.50985 22.9305 8.94461 23.523 9.52146C24.1154 10.0983 24.5691 10.8022 24.8498 11.58ZM12.7298 17C12.5621 17.002 12.3988 17.0535 12.2603 17.1481C12.1219 17.2427 12.0145 17.3761 11.9517 17.5316C11.8889 17.6871 11.8735 17.8577 11.9074 18.0219C11.9413 18.1861 12.023 18.3366 12.1423 18.4545C12.2616 18.5724 12.413 18.6523 12.5776 18.6843C12.7422 18.7163 12.9126 18.6989 13.0674 18.6343C13.2221 18.5697 13.3543 18.4607 13.4472 18.3212C13.5402 18.1816 13.5898 18.0177 13.5898 17.85C13.5872 17.6237 13.4954 17.4075 13.3344 17.2483C13.1734 17.0892 12.9562 17 12.7298 17ZM15.9398 17C15.7721 17.002 15.6088 17.0535 15.4703 17.1481C15.3319 17.2427 15.2245 17.3761 15.1617 17.5316C15.0989 17.6871 15.0835 17.8577 15.1174 18.0219C15.1513 18.1861 15.233 18.3366 15.3523 18.4545C15.4716 18.5724 15.623 18.6523 15.7876 18.6843C15.9522 18.7163 16.1226 18.6989 16.2774 18.6343C16.4321 18.5697 16.5643 18.4607 16.6572 18.3212C16.7502 18.1816 16.7998 18.0177 16.7998 17.85C16.7972 17.6237 16.7054 17.4075 16.5444 17.2483C16.3834 17.0892 16.1662 17 15.9398 17ZM19.1798 17C19.0682 17 18.9577 17.022 18.8545 17.0647C18.7514 17.1074 18.6577 17.17 18.5788 17.249C18.4998 17.3279 18.4372 17.4216 18.3945 17.5247C18.3518 17.6278 18.3298 17.7384 18.3298 17.85C18.3298 17.9616 18.3518 18.0722 18.3945 18.1753C18.4372 18.2784 18.4998 18.3721 18.5788 18.451C18.6577 18.53 18.7514 18.5926 18.8545 18.6353C18.9577 18.678 19.0682 18.7 19.1798 18.7C19.2914 18.7 19.402 18.678 19.5051 18.6353C19.6082 18.5926 19.7019 18.53 19.7809 18.451C19.8598 18.3721 19.9224 18.2784 19.9651 18.1753C20.0078 18.0722 20.0298 17.9616 20.0298 17.85C20.0298 17.7384 20.0078 17.6278 19.9651 17.5247C19.9224 17.4216 19.8598 17.3279 19.7809 17.249C19.7019 17.17 19.6082 17.1074 19.5051 17.0647C19.402 17.022 19.2914 17 19.1798 17ZM12.7198 20.2C12.5521 20.202 12.3888 20.2535 12.2503 20.3481C12.1119 20.4427 12.0045 20.5761 11.9417 20.7316C11.8789 20.8871 11.8635 21.0577 11.8974 21.2219C11.9313 21.3861 12.013 21.5366 12.1323 21.6545C12.2516 21.7724 12.403 21.8523 12.5676 21.8843C12.7322 21.9163 12.9026 21.8989 13.0574 21.8343C13.2121 21.7697 13.3443 21.6607 13.4372 21.5212C13.5302 21.3816 13.5798 21.2177 13.5798 21.05C13.5798 20.9375 13.5575 20.8262 13.5142 20.7224C13.4708 20.6186 13.4073 20.5245 13.3273 20.4454C13.2473 20.3663 13.1524 20.3039 13.0482 20.2618C12.9439 20.2197 12.8323 20.1987 12.7198 20.2ZM15.9298 20.2C15.7621 20.202 15.5988 20.2535 15.4603 20.3481C15.3219 20.4427 15.2145 20.5761 15.1517 20.7316C15.0889 20.8871 15.0735 21.0577 15.1074 21.2219C15.1413 21.3861 15.223 21.5366 15.3423 21.6545C15.4616 21.7724 15.613 21.8523 15.7776 21.8843C15.9422 21.9163 16.1126 21.8989 16.2674 21.8343C16.4221 21.7697 16.5543 21.6607 16.6472 21.5212C16.7402 21.3816 16.7898 21.2177 16.7898 21.05C16.7898 20.9375 16.7675 20.8262 16.7242 20.7224C16.6808 20.6186 16.6173 20.5245 16.5373 20.4454C16.4573 20.3663 16.3624 20.3039 16.2582 20.2618C16.1539 20.2197 16.0423 20.1987 15.9298 20.2ZM19.1598 20.2C18.9926 20.2039 18.8303 20.2571 18.6931 20.3529C18.556 20.4486 18.4502 20.5827 18.3889 20.7383C18.3276 20.894 18.3136 21.0642 18.3487 21.2277C18.3837 21.3913 18.4662 21.5409 18.5858 21.6578C18.7054 21.7746 18.8569 21.8536 19.0212 21.8848C19.1855 21.916 19.3554 21.8981 19.5095 21.8332C19.6637 21.7683 19.7953 21.6594 19.8878 21.5201C19.9804 21.3808 20.0298 21.2173 20.0298 21.05C20.0285 20.9371 20.005 20.8255 19.9605 20.7216C19.9161 20.6178 19.8517 20.5237 19.7709 20.4448C19.6901 20.3659 19.5945 20.3036 19.4897 20.2616C19.3848 20.2196 19.2727 20.1987 19.1598 20.2Z" fill="#E2FD70"/>
</svg>
