<svg width="30" height="30" viewBox="0 0 30 30" fill="none" xmlns="http://www.w3.org/2000/svg">
<path d="M18.0168 8.28119H13.137C12.7698 8.28119 12.4576 8.15251 12.2005 7.89516C11.9434 7.63782 11.8149 7.32533 11.8149 6.95769C11.8149 6.59006 11.9434 6.27604 12.2005 6.01563C12.4576 5.75521 12.7698 5.625 13.137 5.625H25.5528C25.9201 5.625 26.2323 5.75368 26.4893 6.01103C26.7464 6.26839 26.8749 6.58088 26.8749 6.9485C26.8749 7.31615 26.7464 7.63017 26.4893 7.89056C26.2323 8.15098 25.9201 8.28119 25.5528 8.28119H20.673V23.0528C20.673 23.4201 20.5443 23.7323 20.287 23.9893C20.0296 24.2464 19.7171 24.3749 19.3495 24.3749C18.9819 24.3749 18.6679 24.2452 18.4074 23.9858C18.147 23.7264 18.0168 23.4114 18.0168 23.0408V8.28119ZM6.85097 14.4711H4.44709C4.07984 14.4711 3.76769 14.3424 3.51063 14.0851C3.25354 13.8277 3.125 13.5152 3.125 13.1476C3.125 12.78 3.25354 12.4659 3.51063 12.2055C3.76769 11.9451 4.07984 11.8149 4.44709 11.8149H11.899C12.2663 11.8149 12.5784 11.9436 12.8355 12.2009C13.0926 12.4583 13.2211 12.7708 13.2211 13.1384C13.2211 13.506 13.0926 13.8201 12.8355 14.0805C12.5784 14.3409 12.2663 14.4711 11.899 14.4711H9.49513V23.0528C9.49513 23.4201 9.36645 23.7323 9.10909 23.9893C8.85176 24.2464 8.53927 24.3749 8.17163 24.3749C7.804 24.3749 7.49198 24.2464 7.23556 23.9893C6.97917 23.7323 6.85097 23.4201 6.85097 23.0528V14.4711Z" fill="white" fill-opacity="0.7"/>
</svg>
