<svg width="18" height="18" viewBox="0 0 18 18" fill="none" xmlns="http://www.w3.org/2000/svg">
<path d="M10.8101 4.96871H7.8822C7.66185 4.96871 7.47456 4.89151 7.32032 4.73709C7.16607 4.58269 7.08894 4.3952 7.08894 4.17461C7.08894 3.95404 7.16607 3.76562 7.32032 3.60938C7.47456 3.45313 7.66185 3.375 7.8822 3.375H15.3317C15.5521 3.375 15.7394 3.45221 15.8936 3.60662C16.0478 3.76103 16.125 3.94853 16.125 4.1691C16.125 4.38969 16.0478 4.5781 15.8936 4.73434C15.7394 4.89059 15.5521 4.96871 15.3317 4.96871H12.4038V13.8317C12.4038 14.0521 12.3266 14.2394 12.1722 14.3936C12.0178 14.5478 11.8303 14.625 11.6097 14.625C11.3891 14.625 11.2007 14.5471 11.0445 14.3915C10.8882 14.2358 10.8101 14.0468 10.8101 13.8245V4.96871ZM4.11058 8.68266H2.66826C2.44791 8.68266 2.26061 8.60545 2.10638 8.45104C1.95213 8.29664 1.875 8.10914 1.875 7.88856C1.875 7.66798 1.95213 7.47957 2.10638 7.32332C2.26061 7.16707 2.44791 7.08894 2.66826 7.08894H7.1394C7.35975 7.08894 7.54704 7.16615 7.70128 7.32056C7.85553 7.47496 7.93266 7.66246 7.93266 7.88304C7.93266 8.10362 7.85553 8.29203 7.70128 8.44828C7.54704 8.60453 7.35975 8.68266 7.1394 8.68266H5.69708V13.8317C5.69708 14.0521 5.61987 14.2394 5.46546 14.3936C5.31106 14.5478 5.12356 14.625 4.90298 14.625C4.6824 14.625 4.49519 14.5478 4.34134 14.3936C4.1875 14.2394 4.11058 14.0521 4.11058 13.8317V8.68266Z" fill="white" fill-opacity="0.7"/>
</svg>
