<svg width="24" height="24" viewBox="0 0 24 24" fill="none" xmlns="http://www.w3.org/2000/svg">
<g id="Group 1171275484">
<circle id="Ellipse 141" cx="12" cy="12" r="12" fill="#E26666"/>
<g id="Group 1171275481">
<path id="Vector 3" d="M7.99902 18.0001C9.15835 16.189 12.3014 13.6535 15.599 18.0001" stroke="#271A1A" stroke-width="1.6" stroke-linecap="round"/>
<g id="Vector">
<path d="M17.6786 8.68079C16.6468 8.9259 16.3227 9.39569 16.2896 9.59994L14.9983 8.99999C15.792 8.2851 18.9683 8.37441 17.6786 8.68079Z" fill="#271A1A"/>
<path d="M17.1983 10.4C17.1983 11.2836 16.4819 12 15.5983 12C14.7146 12 13.9983 11.2836 13.9983 10.4C13.9983 9.51634 14.7146 8.79999 15.5983 8.79999C16.4819 8.79999 17.1983 9.51634 17.1983 10.4Z" fill="#271A1A"/>
</g>
<g id="Vector_2">
<path d="M6.3024 8.62849C7.33419 8.87359 7.65828 9.34338 7.69135 9.54764L8.98267 8.94769C8.18898 8.23279 5.01267 8.3221 6.3024 8.62849Z" fill="#271A1A"/>
<path d="M6.78267 10.3477C6.78267 11.2313 7.49901 11.9477 8.38267 11.9477C9.26632 11.9477 9.98267 11.2313 9.98267 10.3477C9.98267 9.46403 9.26632 8.74769 8.38267 8.74769C7.49901 8.74769 6.78267 9.46403 6.78267 10.3477Z" fill="#271A1A"/>
</g>
</g>
</g>
</svg>
