<svg width="32" height="32" viewBox="0 0 32 32" fill="none" xmlns="http://www.w3.org/2000/svg">
<path opacity="0.3" d="M22.4798 2.66675H9.5065C5.72888 2.66675 2.6665 5.72912 2.6665 9.50675V22.4801C2.6665 26.2577 5.72888 29.3201 9.5065 29.3201H22.4798C26.2575 29.3201 29.3198 26.2577 29.3198 22.4801V9.50675C29.3198 5.72912 26.2575 2.66675 22.4798 2.66675Z" fill="#E2FD70"/>
<path d="M11.2266 13.5335C11.4907 13.53 11.7431 13.4236 11.9299 13.2368C12.1166 13.05 12.2231 12.7976 12.2266 12.5335V7.3335C12.2266 7.06828 12.1212 6.81393 11.9337 6.62639C11.7461 6.43885 11.4918 6.3335 11.2266 6.3335C10.9613 6.3335 10.707 6.43885 10.5195 6.62639C10.3319 6.81393 10.2266 7.06828 10.2266 7.3335V12.5335C10.23 12.7976 10.3365 13.05 10.5233 13.2368C10.7101 13.4236 10.9624 13.53 11.2266 13.5335Z" fill="#E2FD70"/>
<path d="M11.2264 14.8668C10.3475 14.8605 9.49618 15.1736 8.8308 15.7479C8.16542 16.3222 7.73124 17.1186 7.60899 17.989C7.48674 18.8594 7.68475 19.7445 8.16619 20.4799C8.64764 21.2152 9.37975 21.7507 10.2264 21.9868V24.6535C10.2246 24.7853 10.2493 24.9161 10.2989 25.0383C10.3485 25.1604 10.4221 25.2713 10.5153 25.3646C10.6085 25.4578 10.7195 25.5314 10.8416 25.581C10.9637 25.6306 11.0946 25.6553 11.2264 25.6535C11.4905 25.65 11.7429 25.5435 11.9297 25.3567C12.1165 25.17 12.2229 24.9176 12.2264 24.6535V21.9868C13.0731 21.7507 13.8052 21.2152 14.2866 20.4799C14.7681 19.7445 14.9661 18.8594 14.8438 17.989C14.7216 17.1186 14.2874 16.3222 13.622 15.7479C12.9566 15.1736 12.1053 14.8605 11.2264 14.8668Z" fill="#E2FD70"/>
<path d="M20.7729 18.4668C20.5088 18.4703 20.2565 18.5767 20.0697 18.7635C19.8829 18.9503 19.7764 19.2027 19.7729 19.4668V24.6668C19.7729 24.932 19.8783 25.1864 20.0658 25.3739C20.2534 25.5614 20.5077 25.6668 20.7729 25.6668C21.0382 25.6668 21.2925 25.5614 21.4801 25.3739C21.6676 25.1864 21.7729 24.932 21.7729 24.6668V19.4668C21.7695 19.2027 21.663 18.9503 21.4762 18.7635C21.2894 18.5767 21.0371 18.4703 20.7729 18.4668Z" fill="#E2FD70"/>
<path d="M21.7733 10.0134V7.34677C21.7699 7.08263 21.6634 6.83028 21.4766 6.64348C21.2898 6.45669 21.0375 6.35022 20.7733 6.34677C20.6415 6.34498 20.5106 6.36962 20.3885 6.41924C20.2664 6.46886 20.1554 6.54245 20.0622 6.63567C19.969 6.72889 19.8954 6.83984 19.8458 6.96198C19.7962 7.08411 19.7715 7.21495 19.7733 7.34677V10.0134C18.9292 10.2546 18.2006 10.7928 17.722 11.5287C17.2433 12.2647 17.0467 13.1488 17.1685 14.0183C17.2903 14.8877 17.7222 15.6838 18.3846 16.26C19.047 16.8361 19.8954 17.1534 20.7733 17.1534C21.6512 17.1534 22.4996 16.8361 23.162 16.26C23.8245 15.6838 24.2564 14.8877 24.3781 14.0183C24.4999 13.1488 24.3033 12.2647 23.8247 11.5287C23.346 10.7928 22.6175 10.2546 21.7733 10.0134Z" fill="#E2FD70"/>
</svg>
