<svg width="133" height="32" viewBox="0 0 133 32" fill="none" xmlns="http://www.w3.org/2000/svg">
<path d="M118.001 10.9139V6.58594L122.708 11.2929L126.482 15.0669L122.641 18.2679L118.001 22.1349V17.8999C109.855 17.2859 107.001 21.9999 107.001 21.9999C107.001 19.0629 107.243 16.0149 109.552 13.7069C112.236 11.0219 116.123 10.8319 118.001 10.9139Z" fill="#E2FD70"/>
<circle cx="117" cy="16" r="15.5" stroke="#2D311C"/>
<path d="M3.972 20.12C1.572 20.12 0.348 19.064 0.348 17.372V17.3H1.644V17.492C1.644 18.452 2.208 18.932 3.972 18.932C5.508 18.932 6.048 18.596 6.048 17.84C6.048 17.144 5.64 16.88 4.62 16.688L2.652 16.364C1.296 16.124 0.336 15.5 0.336 14.18C0.336 13.016 1.296 11.84 3.792 11.84C6.144 11.84 7.212 13.016 7.212 14.588V14.66H5.928V14.504C5.928 13.52 5.34 13.028 3.672 13.028C2.208 13.028 1.632 13.388 1.632 14.108C1.632 14.804 2.04 15.032 2.988 15.236L4.944 15.572C6.552 15.86 7.344 16.592 7.344 17.768C7.344 18.992 6.348 20.12 3.972 20.12ZM9.56006 20H8.26406V11.96H9.56006V15.86H9.63206C9.83606 14.852 10.5681 13.916 12.0921 13.916C13.7361 13.916 14.5401 14.996 14.5401 16.448V20H13.2561V16.76C13.2561 15.56 12.7161 15.08 11.4801 15.08C10.0641 15.08 9.56006 15.848 9.56006 17.108V20ZM17.4575 20.12C16.2215 20.12 15.4415 19.544 15.4415 18.56C15.4415 17.636 16.1855 17.156 17.3615 17.024L20.0735 16.736V16.388C20.0735 15.404 19.6415 15.056 18.5015 15.056C17.3975 15.056 16.8575 15.416 16.8575 16.292V16.34H15.5735V16.292C15.5735 14.936 16.7015 13.916 18.5975 13.916C20.4935 13.916 21.3455 14.948 21.3455 16.376V20H20.1575V18.512H20.0735C19.7615 19.52 18.8135 20.12 17.4575 20.12ZM16.7375 18.476C16.7375 18.956 17.0615 19.184 17.8055 19.184C19.1615 19.184 20.0735 18.68 20.0735 17.504L17.7335 17.768C17.0615 17.852 16.7375 18.008 16.7375 18.476ZM23.7983 20H22.5023V14.036H23.6903V15.644H23.7743C23.9543 14.684 24.6023 13.916 25.8263 13.916C27.1823 13.916 27.7703 14.888 27.7703 16.016V16.796H26.4863V16.268C26.4863 15.416 26.1263 15.02 25.2383 15.02C24.2183 15.02 23.7983 15.584 23.7983 16.652V20ZM31.5844 20.12C29.6284 20.12 28.3444 19.016 28.3444 17.024C28.3444 15.164 29.6164 13.916 31.5604 13.916C33.4084 13.916 34.6684 14.936 34.6684 16.748C34.6684 16.964 34.6564 17.132 34.6204 17.312H29.5564C29.6044 18.464 30.1684 19.076 31.5484 19.076C32.7964 19.076 33.3124 18.668 33.3124 17.96V17.864H34.6084V17.972C34.6084 19.244 33.3604 20.12 31.5844 20.12ZM31.5364 14.936C30.2164 14.936 29.6404 15.524 29.5684 16.592H33.4444V16.568C33.4444 15.464 32.8084 14.936 31.5364 14.936ZM41.6858 20H40.4018V13.124H37.2338V11.96H44.8418V13.124H41.6858V20ZM46.896 20H45.6V11.96H46.896V15.86H46.968C47.172 14.852 47.904 13.916 49.428 13.916C51.072 13.916 51.876 14.996 51.876 16.448V20H50.592V16.76C50.592 15.56 50.052 15.08 48.816 15.08C47.4 15.08 46.896 15.848 46.896 17.108V20ZM54.3374 13.34H53.0414V11.96H54.3374V13.34ZM54.3374 20H53.0414V14.036H54.3374V20ZM58.3575 20.12C56.4375 20.12 55.3455 19.364 55.3455 17.984V17.948H56.6415V18.044C56.6415 18.824 57.1095 19.076 58.3575 19.076C59.5215 19.076 59.8695 18.836 59.8695 18.308C59.8695 17.816 59.5815 17.66 58.7295 17.54L57.0975 17.324C55.9695 17.18 55.2855 16.7 55.2855 15.704C55.2855 14.66 56.2335 13.916 58.0695 13.916C59.8935 13.916 60.9975 14.648 60.9975 16.064V16.1H59.7135V16.028C59.7135 15.32 59.3535 14.948 58.0335 14.948C56.9415 14.948 56.5575 15.188 56.5575 15.752C56.5575 16.22 56.7975 16.388 57.6975 16.508L59.0775 16.7C60.4935 16.88 61.1415 17.36 61.1415 18.344C61.1415 19.46 60.0375 20.12 58.3575 20.12ZM68.7353 20H64.0673V11.96H68.5673C70.1033 11.96 71.0273 12.668 71.0273 13.94C71.0273 14.888 70.4993 15.596 69.2753 15.74V15.824C70.6433 15.98 71.3153 16.724 71.3153 17.78C71.3153 19.16 70.3913 20 68.7353 20ZM65.3513 13.124V15.332H68.3873C69.2873 15.332 69.7433 14.984 69.7433 14.228C69.7433 13.472 69.3233 13.124 68.4233 13.124H65.3513ZM65.3513 16.4V18.836H68.5913C69.5513 18.836 70.0193 18.476 70.0193 17.6C70.0193 16.76 69.5393 16.4 68.5913 16.4H65.3513ZM73.4507 20H72.1547V11.96H73.4507V20ZM77.6988 20.12C75.7188 20.12 74.3868 18.86 74.3868 17.024C74.3868 15.164 75.7188 13.916 77.6988 13.916C79.6908 13.916 81.0228 15.164 81.0228 17.024C81.0228 18.86 79.6908 20.12 77.6988 20.12ZM77.6988 18.968C79.1508 18.968 79.7508 18.284 79.7508 17.024C79.7508 15.752 79.1508 15.056 77.6988 15.056C76.2588 15.056 75.6588 15.752 75.6588 17.024C75.6588 18.284 76.2588 18.968 77.6988 18.968ZM84.5553 19.46C82.7793 19.46 81.7233 18.344 81.7233 16.688C81.7233 15.032 82.8273 13.916 84.6393 13.916C85.8873 13.916 86.8233 14.48 87.0393 15.524H87.1113V14.036H88.2993V19.304C88.2993 21.308 87.0513 22.16 85.0953 22.16C83.3313 22.16 82.1073 21.332 82.1073 19.892H83.3913C83.3913 20.756 83.8953 21.08 85.1673 21.08C86.5233 21.08 87.0153 20.708 87.0153 19.376V17.912H86.9313C86.7153 18.812 85.9113 19.46 84.5553 19.46ZM83.0313 16.688C83.0313 17.912 83.7513 18.344 84.9753 18.344C86.2953 18.344 87.0153 17.792 87.0153 16.736V16.568C87.0153 15.56 86.2713 15.044 85.0113 15.044C83.7633 15.044 83.0313 15.464 83.0313 16.688Z" fill="#E2FD70"/>
</svg>
