<svg width="32" height="32" viewBox="0 0 32 32" fill="none" xmlns="http://www.w3.org/2000/svg">
<circle cx="16" cy="16" r="16" fill="#2D311C"/>
<path opacity="0.3" d="M15.8602 25.9999C20.5049 25.9999 24.2702 22.2346 24.2702 17.5899C24.2702 12.9452 20.5049 9.17993 15.8602 9.17993C11.2155 9.17993 7.4502 12.9452 7.4502 17.5899C7.4502 22.2346 11.2155 25.9999 15.8602 25.9999Z" fill="#E2FD70"/>
<path d="M16 17.55C15.8019 17.5474 15.6126 17.4676 15.4725 17.3275C15.3324 17.1874 15.2526 16.9981 15.25 16.8V12.53C15.25 12.3311 15.329 12.1404 15.4697 11.9997C15.6103 11.859 15.8011 11.78 16 11.78C16.1989 11.78 16.3897 11.859 16.5303 11.9997C16.671 12.1404 16.75 12.3311 16.75 12.53V16.8C16.7474 16.9981 16.6676 17.1874 16.5275 17.3275C16.3874 17.4676 16.1981 17.5474 16 17.55Z" fill="#E2FD70"/>
<path d="M18.4101 7.53003H13.3101C13.1111 7.53003 12.9204 7.45101 12.7797 7.31036C12.6391 7.16971 12.5601 6.97894 12.5601 6.78003C12.5601 6.58112 12.6391 6.39035 12.7797 6.2497C12.9204 6.10905 13.1111 6.03003 13.3101 6.03003H18.4101C18.609 6.03003 18.7997 6.10905 18.9404 6.2497C19.081 6.39035 19.1601 6.58112 19.1601 6.78003C19.1601 6.97894 19.081 7.16971 18.9404 7.31036C18.7997 7.45101 18.609 7.53003 18.4101 7.53003Z" fill="#E2FD70"/>
</svg>
