<svg width="20" height="20" viewBox="0 0 20 20" fill="none" xmlns="http://www.w3.org/2000/svg">
<path d="M8.83329 11.5001L7.04163 9.70842C6.88885 9.55564 6.6944 9.47925 6.45829 9.47925C6.22218 9.47925 6.02774 9.55564 5.87496 9.70842C5.72218 9.86119 5.64579 10.0556 5.64579 10.2917C5.64579 10.5279 5.72218 10.7223 5.87496 10.8751L8.24996 13.2501C8.41663 13.4167 8.61107 13.5001 8.83329 13.5001C9.05552 13.5001 9.24996 13.4167 9.41663 13.2501L14.125 8.54175C14.2777 8.38897 14.3541 8.19453 14.3541 7.95842C14.3541 7.7223 14.2777 7.52786 14.125 7.37508C13.9722 7.2223 13.7777 7.14592 13.5416 7.14592C13.3055 7.14592 13.1111 7.2223 12.9583 7.37508L8.83329 11.5001ZM9.99996 18.3334C8.84718 18.3334 7.76385 18.1147 6.74996 17.6772C5.73607 17.2397 4.85413 16.6459 4.10413 15.8959C3.35413 15.1459 2.76038 14.264 2.32288 13.2501C1.88538 12.2362 1.66663 11.1529 1.66663 10.0001C1.66663 8.8473 1.88538 7.76397 2.32288 6.75008C2.76038 5.73619 3.35413 4.85425 4.10413 4.10425C4.85413 3.35425 5.73607 2.7605 6.74996 2.323C7.76385 1.8855 8.84718 1.66675 9.99996 1.66675C11.1527 1.66675 12.2361 1.8855 13.25 2.323C14.2638 2.7605 15.1458 3.35425 15.8958 4.10425C16.6458 4.85425 17.2395 5.73619 17.677 6.75008C18.1145 7.76397 18.3333 8.8473 18.3333 10.0001C18.3333 11.1529 18.1145 12.2362 17.677 13.2501C17.2395 14.264 16.6458 15.1459 15.8958 15.8959C15.1458 16.6459 14.2638 17.2397 13.25 17.6772C12.2361 18.1147 11.1527 18.3334 9.99996 18.3334Z" fill="#57D37D"/>
</svg>
