<svg width="24" height="24" viewBox="0 0 24 24" fill="none" xmlns="http://www.w3.org/2000/svg">
<circle cx="12" cy="12" r="11.5" fill="#252525" stroke="#3D3D3D"/>
<path opacity="0.3" d="M12.0001 20.3337C16.6025 20.3337 20.3334 16.6027 20.3334 12.0003C20.3334 7.39795 16.6025 3.66699 12.0001 3.66699C7.39771 3.66699 3.66675 7.39795 3.66675 12.0003C3.66675 16.6027 7.39771 20.3337 12.0001 20.3337Z" fill="#B4B4B4"/>
<path d="M13.175 12.0004L15.5334 9.64207C15.6206 9.56736 15.6914 9.47543 15.7415 9.37204C15.7915 9.26866 15.8196 9.15605 15.824 9.04128C15.8285 8.92651 15.8091 8.81207 15.7672 8.70513C15.7253 8.59819 15.6618 8.50107 15.5806 8.41986C15.4994 8.33865 15.4022 8.2751 15.2953 8.2332C15.1884 8.19131 15.0739 8.17197 14.9591 8.1764C14.8444 8.18084 14.7318 8.20894 14.6284 8.25896C14.525 8.30898 14.4331 8.37983 14.3584 8.46707L12 10.8254L9.64169 8.46707C9.48227 8.33055 9.27721 8.25921 9.06748 8.26731C8.85775 8.27541 8.6588 8.36235 8.51039 8.51076C8.36198 8.65918 8.27503 8.85813 8.26693 9.06786C8.25883 9.27759 8.33017 9.48265 8.46669 9.64207L10.825 12.0004L8.46669 14.3587C8.31148 14.5149 8.22437 14.7261 8.22437 14.9462C8.22437 15.1664 8.31148 15.3776 8.46669 15.5337C8.62283 15.6889 8.83404 15.7761 9.05419 15.7761C9.27435 15.7761 9.48556 15.6889 9.64169 15.5337L12 13.1754L14.3584 15.5337C14.5145 15.6889 14.7257 15.7761 14.9459 15.7761C15.166 15.7761 15.3772 15.6889 15.5334 15.5337C15.6886 15.3776 15.7757 15.1664 15.7757 14.9462C15.7757 14.7261 15.6886 14.5149 15.5334 14.3587L13.175 12.0004Z" fill="#B4B4B4"/>
</svg>
