<svg width="28" height="28" viewBox="0 0 28 28" fill="none" xmlns="http://www.w3.org/2000/svg">
<path d="M5.25 25.6375C4.78333 25.6375 4.375 25.4625 4.025 25.1125C3.675 24.7625 3.5 24.3542 3.5 23.8875V7.17503C3.5 6.92712 3.58434 6.7193 3.75302 6.5516C3.92172 6.38389 4.13075 6.30003 4.3801 6.30003C4.62948 6.30003 4.83681 6.38389 5.00208 6.5516C5.16736 6.7193 5.25 6.92712 5.25 7.17503V23.8875H18.2C18.4479 23.8875 18.6557 23.9719 18.8234 24.1406C18.9911 24.3093 19.075 24.5183 19.075 24.7676C19.075 25.017 18.9911 25.2243 18.8234 25.3896C18.6557 25.5549 18.4479 25.6375 18.2 25.6375H5.25ZM8.75 22.1375C8.28333 22.1375 7.875 21.9625 7.525 21.6125C7.175 21.2625 7 20.8542 7 20.3875V4.0542C7 3.58753 7.175 3.1792 7.525 2.8292C7.875 2.4792 8.28333 2.3042 8.75 2.3042H21.5833C22.05 2.3042 22.4583 2.4792 22.8083 2.8292C23.1583 3.1792 23.3333 3.58753 23.3333 4.0542V20.3875C23.3333 20.8542 23.1583 21.2625 22.8083 21.6125C22.4583 21.9625 22.05 22.1375 21.5833 22.1375H8.75ZM8.75 20.3875H21.5833V4.0542H8.75V20.3875Z" fill="#848484"/>
</svg>
