<svg width="18" height="18" viewBox="0 0 18 18" fill="none" xmlns="http://www.w3.org/2000/svg">
<path opacity="0.3" d="M9 16.5C13.1421 16.5 16.5 13.1421 16.5 9C16.5 4.85786 13.1421 1.5 9 1.5C4.85786 1.5 1.5 4.85786 1.5 9C1.5 13.1421 4.85786 16.5 9 16.5Z" fill="#555555"/>
<path d="M9 7.9502C9.19891 7.9502 9.38968 8.02921 9.53033 8.16986C9.67098 8.31052 9.75 8.50128 9.75 8.7002V12.1952C9.75 12.3941 9.67098 12.5849 9.53033 12.7255C9.38968 12.8662 9.19891 12.9452 9 12.9452C8.80109 12.9452 8.61032 12.8662 8.46967 12.7255C8.32902 12.5849 8.25 12.3941 8.25 12.1952V8.7002C8.25 8.50128 8.32902 8.31052 8.46967 8.16986C8.61032 8.02921 8.80109 7.9502 9 7.9502Z" fill="#555555"/>
<path d="M9 6.92969C9.51777 6.92969 9.9375 6.50995 9.9375 5.99219C9.9375 5.47442 9.51777 5.05469 9 5.05469C8.48223 5.05469 8.0625 5.47442 8.0625 5.99219C8.0625 6.50995 8.48223 6.92969 9 6.92969Z" fill="#555555"/>
</svg>
