<svg width="24" height="24" viewBox="0 0 24 24" fill="none" xmlns="http://www.w3.org/2000/svg">
<path opacity="0.3" d="M16.32 6.15015H5.71C3.66102 6.15015 2 7.81117 2 9.86015V17.4401C2 19.4891 3.66102 21.1501 5.71 21.1501H16.32C18.369 21.1501 20.03 19.4891 20.03 17.4401V9.86015C20.03 7.81117 18.369 6.15015 16.32 6.15015Z" fill="#E2FD70"/>
<path d="M18.94 15.7001H21.07C21.3167 15.7001 21.5532 15.6021 21.7276 15.4277C21.902 15.2533 22 15.0167 22 14.7701V12.5301C22 12.2834 21.902 12.0469 21.7276 11.8725C21.5532 11.6981 21.3167 11.6001 21.07 11.6001H18.94C18.6731 11.6 18.4089 11.6534 18.1629 11.757C17.917 11.8606 17.6942 12.0124 17.5078 12.2034C17.3214 12.3945 17.1752 12.6209 17.0777 12.8694C16.9801 13.1178 16.9333 13.3833 16.94 13.6501C16.9333 13.9169 16.9801 14.1824 17.0777 14.4308C17.1752 14.6793 17.3214 14.9057 17.5078 15.0967C17.6942 15.2878 17.917 15.4396 18.1629 15.5432C18.4089 15.6468 18.6731 15.7002 18.94 15.7001Z" fill="#E2FD70"/>
<path d="M2 9.85012C2.00265 8.8679 2.39469 7.92681 3.09016 7.23321C3.78564 6.53961 4.72778 6.15011 5.71 6.15012H15C14.9817 5.26679 14.6171 4.426 13.985 3.80878C13.3528 3.19157 12.5035 2.8473 11.62 2.85011H5.39C4.94529 2.8488 4.50469 2.93525 4.09346 3.10453C3.68222 3.2738 3.30843 3.52256 2.99351 3.83655C2.67859 4.15054 2.42873 4.5236 2.25824 4.93433C2.08775 5.34506 2 5.7854 2 6.23011V9.85012Z" fill="#E2FD70"/>
<path d="M11.89 11.3301H5.72998C5.53107 11.3301 5.3403 11.2511 5.19965 11.1104C5.059 10.9698 4.97998 10.779 4.97998 10.5801C4.97998 10.3812 5.059 10.1904 5.19965 10.0497C5.3403 9.9091 5.53107 9.83008 5.72998 9.83008H11.89C12.0889 9.83008 12.2797 9.9091 12.4203 10.0497C12.561 10.1904 12.64 10.3812 12.64 10.5801C12.64 10.779 12.561 10.9698 12.4203 11.1104C12.2797 11.2511 12.0889 11.3301 11.89 11.3301Z" fill="#E2FD70"/>
</svg>
