<svg width="20" height="20" viewBox="0 0 20 20" fill="none" xmlns="http://www.w3.org/2000/svg">
<path d="M13.4998 14.3333C13.2788 14.3333 13.0669 14.2455 12.9106 14.0892C12.7543 13.933 12.6665 13.721 12.6665 13.5V7.33332H6.49984C6.27882 7.33332 6.06686 7.24553 5.91058 7.08925C5.7543 6.93296 5.6665 6.721 5.6665 6.49999C5.6665 6.27898 5.7543 6.06701 5.91058 5.91073C6.06686 5.75445 6.27882 5.66666 6.49984 5.66666H13.4998C13.7209 5.66666 13.9328 5.75445 14.0891 5.91073C14.2454 6.06701 14.3332 6.27898 14.3332 6.49999V13.5C14.3332 13.721 14.2454 13.933 14.0891 14.0892C13.9328 14.2455 13.7209 14.3333 13.4998 14.3333Z" fill="#9C9C9C"/>
<path opacity="0.3" d="M6.49976 14.3333C6.33495 14.3326 6.17405 14.2831 6.03739 14.191C5.90074 14.0988 5.79448 13.9682 5.73204 13.8157C5.6696 13.6632 5.65379 13.4956 5.68661 13.3341C5.71943 13.1725 5.79941 13.0244 5.91643 12.9083L12.9081 5.91667C13.2331 5.58333 14.4164 6.75 14.0831 7.09167L7.09143 14.0833C7.01425 14.1621 6.92221 14.2247 6.82065 14.2676C6.71909 14.3105 6.61002 14.3329 6.49976 14.3333Z" fill="#9C9C9C"/>
</svg>
