<svg width="20" height="20" viewBox="0 0 20 20" fill="none" xmlns="http://www.w3.org/2000/svg">
<path d="M13.5003 14.3333C13.2793 14.3333 13.0673 14.2455 12.9111 14.0892C12.7548 13.933 12.667 13.721 12.667 13.5V7.33332H6.50033C6.27931 7.33332 6.06735 7.24553 5.91107 7.08925C5.75479 6.93296 5.66699 6.721 5.66699 6.49999C5.66699 6.27898 5.75479 6.06701 5.91107 5.91073C6.06735 5.75445 6.27931 5.66666 6.50033 5.66666H13.5003C13.7213 5.66666 13.9333 5.75445 14.0896 5.91073C14.2459 6.06701 14.3337 6.27898 14.3337 6.49999V13.5C14.3337 13.721 14.2459 13.933 14.0896 14.0892C13.9333 14.2455 13.7213 14.3333 13.5003 14.3333Z" fill="#252525"/>
<path opacity="0.3" d="M6.50074 14.3333C6.33593 14.3326 6.17502 14.2831 6.03837 14.191C5.90172 14.0988 5.79545 13.9682 5.73301 13.8157C5.67058 13.6632 5.65477 13.4956 5.68759 13.3341C5.72041 13.1725 5.80039 13.0244 5.9174 12.9083L12.9091 5.91667C13.2341 5.58333 14.4174 6.75 14.0841 7.09167L7.0924 14.0833C7.01523 14.1621 6.92319 14.2247 6.82163 14.2676C6.72006 14.3105 6.61099 14.3329 6.50074 14.3333Z" fill="#252525"/>
</svg>
