<svg width="120" height="120" viewBox="0 0 120 120" fill="none" xmlns="http://www.w3.org/2000/svg">
<rect width="120" height="120" rx="60" fill="#57D37D"/>
<path opacity="0.3" d="M59.9994 93.3334C78.4088 93.3334 93.3327 78.4096 93.3327 60.0001C93.3327 41.5906 78.4088 26.6667 59.9994 26.6667C41.5899 26.6667 26.666 41.5906 26.666 60.0001C26.666 78.4096 41.5899 93.3334 59.9994 93.3334Z" fill="#0D0D0D"/>
<path d="M59.0333 72.3667L79.0333 52.3667C79.3441 52.0559 79.5906 51.687 79.7588 51.2809C79.927 50.8748 80.0136 50.4396 80.0136 50C80.0136 49.5605 79.927 49.1253 79.7588 48.7192C79.5906 48.3131 79.3441 47.9442 79.0333 47.6334C78.7225 47.3226 78.3535 47.076 77.9475 46.9078C77.5414 46.7396 77.1062 46.6531 76.6666 46.6531C76.2271 46.6531 75.7919 46.7396 75.3858 46.9078C74.9797 47.076 74.6108 47.3226 74.3 47.6334L56.6666 65.3001L45.7 54.3C45.0723 53.6724 44.221 53.3197 43.3333 53.3197C42.4456 53.3197 41.5943 53.6724 40.9666 54.3C40.339 54.9277 39.9863 55.779 39.9863 56.6667C39.9863 57.5544 40.339 58.4057 40.9666 59.0334L54.3 72.3667C54.6098 72.6791 54.9785 72.9271 55.3847 73.0964C55.7909 73.2656 56.2266 73.3527 56.6666 73.3527C57.1067 73.3527 57.5424 73.2656 57.9486 73.0964C58.3548 72.9271 58.7234 72.6791 59.0333 72.3667Z" fill="#0D0D0D"/>
</svg>
