<svg width="20" height="20" viewBox="0 0 20 20" fill="none" xmlns="http://www.w3.org/2000/svg">
<path opacity="0.3" d="M17.825 8.775L16.6667 7.6C16.5859 7.52087 16.5221 7.42612 16.4791 7.32154C16.4361 7.21696 16.4149 7.10472 16.4167 6.99167V5.325C16.4156 5.09667 16.3694 4.8708 16.2807 4.66037C16.1921 4.44995 16.0628 4.25911 15.9002 4.09882C15.7375 3.93853 15.5449 3.81194 15.3332 3.72634C15.1215 3.64074 14.895 3.5978 14.6667 3.6H13C12.8869 3.60178 12.7747 3.58053 12.6701 3.53755C12.5655 3.49458 12.4708 3.43076 12.3917 3.35L11.225 2.175C10.9 1.85034 10.4594 1.66797 10 1.66797C9.54061 1.66797 9.10001 1.85034 8.775 2.175L7.6 3.33333C7.52086 3.4141 7.42612 3.47791 7.32154 3.52089C7.21696 3.56387 7.10472 3.58511 6.99167 3.58333H5.325C5.09667 3.58442 4.8708 3.63061 4.66037 3.71925C4.44995 3.80789 4.25911 3.93723 4.09881 4.09984C3.93852 4.26246 3.81194 4.45514 3.72634 4.66682C3.64074 4.8785 3.5978 5.10501 3.6 5.33333V7C3.60178 7.11306 3.58053 7.22529 3.53755 7.32987C3.49457 7.43446 3.43076 7.5292 3.35 7.60833L2.175 8.775C1.85033 9.10001 1.66797 9.54061 1.66797 10C1.66797 10.4594 1.85033 10.9 2.175 11.225L3.33333 12.4C3.41409 12.4791 3.47791 12.5739 3.52089 12.6785C3.56386 12.783 3.58511 12.8953 3.58333 13.0083V14.675C3.58442 14.9033 3.63061 15.1292 3.71925 15.3396C3.80789 15.5501 3.93723 15.7409 4.09984 15.9012C4.26246 16.0615 4.45514 16.1881 4.66682 16.2737C4.8785 16.3593 5.10501 16.4022 5.33333 16.4H7C7.11305 16.3982 7.22529 16.4195 7.32987 16.4624C7.43445 16.5054 7.5292 16.5692 7.60833 16.65L8.78333 17.825C9.10834 18.1497 9.54894 18.332 10.0083 18.332C10.4677 18.332 10.9083 18.1497 11.2333 17.825L12.4 16.6667C12.4791 16.5859 12.5739 16.5221 12.6785 16.4791C12.783 16.4361 12.8953 16.4149 13.0083 16.4167H14.675C15.1347 16.4167 15.5756 16.234 15.9007 15.909C16.2257 15.5839 16.4083 15.143 16.4083 14.6833V13.0167C16.4066 12.9036 16.4278 12.7914 16.4708 12.6868C16.5138 12.5822 16.5776 12.4875 16.6583 12.4083L17.8333 11.2333C17.9948 11.0717 18.1227 10.8797 18.2097 10.6685C18.2968 10.4573 18.3412 10.2309 18.3404 10.0024C18.3396 9.77397 18.2937 9.54791 18.2052 9.33727C18.1168 9.12662 17.9876 8.93553 17.825 8.775Z" fill="#FF7C7C"/>
<path d="M7.50033 13.125C7.418 13.1269 7.3362 13.1115 7.26015 13.0799C7.18409 13.0484 7.11547 13.0013 7.05866 12.9417C6.94162 12.8245 6.87588 12.6656 6.87588 12.5C6.87588 12.3344 6.94162 12.1755 7.05866 12.0583L12.0587 7.05833C12.1758 6.94129 12.3347 6.87555 12.5003 6.87555C12.666 6.87555 12.8248 6.94129 12.942 7.05833C13.059 7.17552 13.1248 7.33438 13.1248 7.5C13.1248 7.66563 13.059 7.82448 12.942 7.94167L7.94199 12.9417C7.88429 13.0001 7.8155 13.0464 7.73965 13.0779C7.66381 13.1094 7.58244 13.1254 7.50033 13.125ZM7.50033 6.66667C7.33551 6.66667 7.17439 6.71554 7.03735 6.80711C6.90031 6.89868 6.7935 7.02883 6.73043 7.1811C6.66735 7.33337 6.65085 7.50093 6.683 7.66258C6.71516 7.82423 6.79453 7.97271 6.91107 8.08926C7.02761 8.2058 7.1761 8.28517 7.33775 8.31732C7.4994 8.34948 7.66696 8.33297 7.81923 8.2699C7.9715 8.20683 8.10165 8.10002 8.19322 7.96298C8.28479 7.82594 8.33366 7.66482 8.33366 7.5C8.33366 7.27899 8.24586 7.06703 8.08958 6.91075C7.9333 6.75447 7.72134 6.66667 7.50033 6.66667ZM12.5003 11.6667C12.3355 11.6667 12.1744 11.7155 12.0374 11.8071C11.9003 11.8987 11.7935 12.0288 11.7304 12.1811C11.6674 12.3334 11.6509 12.5009 11.683 12.6626C11.7152 12.8242 11.7945 12.9727 11.9111 13.0893C12.0276 13.2058 12.1761 13.2852 12.3378 13.3173C12.4994 13.3495 12.667 13.333 12.8192 13.2699C12.9715 13.2068 13.1016 13.1 13.1932 12.963C13.2848 12.8259 13.3337 12.6648 13.3337 12.5C13.3337 12.279 13.2459 12.067 13.0896 11.9107C12.9333 11.7545 12.7213 11.6667 12.5003 11.6667Z" fill="#FF7C7C"/>
</svg>
