<svg width="20" height="20" viewBox="0 0 20 20" fill="none" xmlns="http://www.w3.org/2000/svg">
<path opacity="0.3" d="M16.483 15C16.43 14.9424 16.3655 14.8965 16.2938 14.865C16.2221 14.8336 16.1447 14.8174 16.0664 14.8174C15.9881 14.8174 15.9106 14.8336 15.8389 14.865C15.7672 14.8965 15.7028 14.9424 15.6497 15L14.283 16.35V2.36667C14.2963 2.27945 14.2905 2.19038 14.2659 2.10564C14.2414 2.0209 14.1987 1.94251 14.1408 1.87592C14.0829 1.80933 14.0113 1.75612 13.9308 1.71998C13.8503 1.68385 13.7629 1.66566 13.6747 1.66667C13.5948 1.66882 13.5161 1.68671 13.4431 1.71929C13.3701 1.75187 13.3043 1.79852 13.2494 1.85656C13.1944 1.91461 13.1514 1.98291 13.1229 2.05756C13.0944 2.13222 13.0808 2.21177 13.083 2.29167V16.1917L11.9664 15C11.9133 14.9424 11.8489 14.8965 11.7772 14.865C11.7054 14.8336 11.628 14.8174 11.5497 14.8174C11.4714 14.8174 11.3939 14.8336 11.3222 14.865C11.2505 14.8965 11.1861 14.9424 11.133 15C11.0235 15.121 10.9629 15.2784 10.9629 15.4417C10.9629 15.6049 11.0235 15.7623 11.133 15.8833L13.2914 18.1583C13.3444 18.2159 13.4089 18.2619 13.4806 18.2933C13.5523 18.3247 13.6297 18.3409 13.708 18.3409C13.7863 18.3409 13.8638 18.3247 13.9355 18.2933C14.0072 18.2619 14.0716 18.2159 14.1247 18.1583L16.458 15.8333C16.518 15.7716 16.565 15.6985 16.5965 15.6184C16.628 15.5383 16.6432 15.4527 16.6414 15.3667C16.6314 15.2301 16.5756 15.1009 16.483 15Z" fill="#46FF6E"/>
<path d="M8.75786 4.09167L6.66619 1.85C6.60857 1.78685 6.53741 1.73755 6.45804 1.7058C6.37867 1.67405 6.29314 1.66067 6.20786 1.66667C6.12841 1.66756 6.04993 1.68423 5.97697 1.7157C5.90401 1.74717 5.83803 1.79282 5.78286 1.85L3.52453 4.20833C3.42372 4.32373 3.36816 4.47177 3.36816 4.625C3.36816 4.77823 3.42372 4.92627 3.52453 5.04167C3.57885 5.09708 3.64368 5.14111 3.71523 5.17116C3.78677 5.20121 3.86359 5.21668 3.94119 5.21667C4.01955 5.21657 4.09703 5.20023 4.16875 5.16868C4.24046 5.13712 4.30486 5.09104 4.35786 5.03333L5.54953 3.83333V17.725C5.54953 17.8819 5.61186 18.0324 5.72282 18.1434C5.83378 18.2543 5.98427 18.3167 6.14119 18.3167C6.29811 18.3167 6.44861 18.2543 6.55957 18.1434C6.67053 18.0324 6.73286 17.8819 6.73286 17.725V3.70833L7.91619 4.95C7.96991 5.00648 8.03454 5.05145 8.10617 5.08218C8.17779 5.1129 8.25492 5.12875 8.33286 5.12875C8.4108 5.12875 8.48793 5.1129 8.55956 5.08218C8.63118 5.05145 8.69582 5.00648 8.74953 4.95C8.86025 4.83505 8.9228 4.68209 8.92435 4.52249C8.9259 4.36289 8.86633 4.20875 8.75786 4.09167Z" fill="#46FF6E"/>
</svg>
