<svg width="70" height="70" viewBox="0 0 70 70" fill="none" xmlns="http://www.w3.org/2000/svg">
<rect width="70" height="70" rx="6" fill="#3D3D3D"/>
<path fill-rule="evenodd" clip-rule="evenodd" d="M24.5 52.5L30.6251 54.1251V52L31.1251 51.5H34.6251V54V55.75H30.8751L26.25 53.75L24.5 52.5Z" fill="#CDBDB2"/>
<path fill-rule="evenodd" clip-rule="evenodd" d="M44.5 52.5L38.5 54.1251V52L38 51.5H34.5V54V55.75H38.25L42.8749 53.75L44.5 52.5Z" fill="#CDBDB2"/>
<path fill-rule="evenodd" clip-rule="evenodd" d="M31.125 47.8751L30.625 52L31.2499 51.5H37.7499L38.4999 52L37.9999 47.8751L36.9999 47.25L31.9999 47.3751L31.125 47.8751Z" fill="#393939"/>
<path fill-rule="evenodd" clip-rule="evenodd" d="M27.75 20L30.75 27L32.1251 47.3751H37L38.5 27L41.25 20H27.75Z" fill="#F89C35"/>
<path fill-rule="evenodd" clip-rule="evenodd" d="M14.625 35.3751L11.125 45.5L19.875 45H25.4999V40.6251L25.2499 31.6251L23.9999 32.6251L14.625 35.3751Z" fill="#F89D35"/>
<path fill-rule="evenodd" clip-rule="evenodd" d="M21.25 36.5L31.5 36.75L30.3751 42L25.5 40.75L21.25 36.5Z" fill="#D87C30"/>
<path fill-rule="evenodd" clip-rule="evenodd" d="M21.25 36.6251L25.5 40.6251V44.6251L21.25 36.6251Z" fill="#EA8D3A"/>
<path fill-rule="evenodd" clip-rule="evenodd" d="M25.5 40.75L30.5 42L32.1251 47.3751L31 48L25.5 44.75V40.75Z" fill="#F89D35"/>
<path fill-rule="evenodd" clip-rule="evenodd" d="M25.5 44.75L24.5 52.5L31.1251 47.8751L25.5 44.75Z" fill="#EB8F35"/>
<path fill-rule="evenodd" clip-rule="evenodd" d="M31.5 36.75L32.1251 47.3751L30.25 41.9376L31.5 36.75Z" fill="#EA8E3A"/>
<path fill-rule="evenodd" clip-rule="evenodd" d="M19.75 44.8751L25.5 44.75L24.5 52.5L19.75 44.8751Z" fill="#D87C30"/>
<path fill-rule="evenodd" clip-rule="evenodd" d="M13.875 55.8751L24.4999 52.5L19.7499 44.8751L11.125 45.5L13.875 55.8751Z" fill="#EB8F35"/>
<path fill-rule="evenodd" clip-rule="evenodd" d="M30.75 27L25.3751 31.5L21.25 36.5L31.5 36.8751L30.75 27Z" fill="#E8821E"/>
<path fill-rule="evenodd" clip-rule="evenodd" d="M24.5 52.5L31.1251 47.8751L30.6251 51.8751V54.1251L26.1251 53.25L24.5 52.5Z" fill="#DFCEC3"/>
<path fill-rule="evenodd" clip-rule="evenodd" d="M44.5 52.5L38 47.8751L38.5 51.8751V54.1251L43 53.25L44.5 52.5Z" fill="#DFCEC3"/>
<path fill-rule="evenodd" clip-rule="evenodd" d="M28.7499 39L30.125 41.8751L25.2499 40.6251L28.7499 39Z" fill="#393939"/>
<path fill-rule="evenodd" clip-rule="evenodd" d="M13.75 14.1251L30.75 27L27.8751 20L13.75 14.1251Z" fill="#E88F35"/>
<path fill-rule="evenodd" clip-rule="evenodd" d="M13.75 14.125L11.5 21L12.75 28.5L11.875 29L13.125 30.125L12.125 31L13.5 32.25L12.625 33L14.625 35.5L24 32.625C28.5833 28.9583 30.8333 27.0833 30.75 27C30.6667 26.9167 25 22.625 13.75 14.125Z" fill="#8E5A30"/>
<path fill-rule="evenodd" clip-rule="evenodd" d="M54.375 35.3751L57.875 45.5L49.125 45H43.5001V40.6251L43.7501 31.6251L45.0001 32.6251L54.375 35.3751Z" fill="#F89D35"/>
<path fill-rule="evenodd" clip-rule="evenodd" d="M47.75 36.5L37.5 36.75L38.6249 42L43.5 40.75L47.75 36.5Z" fill="#D87C30"/>
<path fill-rule="evenodd" clip-rule="evenodd" d="M47.75 36.6251L43.5 40.6251V44.6251L47.75 36.6251Z" fill="#EA8D3A"/>
<path fill-rule="evenodd" clip-rule="evenodd" d="M43.5 40.75L38.5 42L36.8749 47.3751L38 48L43.5 44.75V40.75Z" fill="#F89D35"/>
<path fill-rule="evenodd" clip-rule="evenodd" d="M43.5 44.75L44.5 52.5L38 48L43.5 44.75Z" fill="#EB8F35"/>
<path fill-rule="evenodd" clip-rule="evenodd" d="M37.5 36.75L36.8749 47.3751L38.75 41.9376L37.5 36.75Z" fill="#EA8E3A"/>
<path fill-rule="evenodd" clip-rule="evenodd" d="M49.25 44.8751L43.5 44.75L44.5 52.5L49.25 44.8751Z" fill="#D87C30"/>
<path fill-rule="evenodd" clip-rule="evenodd" d="M55.125 55.8751L44.5001 52.5L49.2501 44.8751L57.875 45.5L55.125 55.8751Z" fill="#EB8F35"/>
<path fill-rule="evenodd" clip-rule="evenodd" d="M38.25 27L43.6249 31.5L47.75 36.5L37.5 36.8751L38.25 27Z" fill="#E8821E"/>
<path fill-rule="evenodd" clip-rule="evenodd" d="M40.2501 39L38.875 41.8751L43.7501 40.6251L40.2501 39Z" fill="#393939"/>
<path fill-rule="evenodd" clip-rule="evenodd" d="M55.25 14.1251L38.25 27L41.1249 20L55.25 14.1251Z" fill="#E88F35"/>
<path fill-rule="evenodd" clip-rule="evenodd" d="M55.25 14.125L57.5 21L56.25 28.5L57.125 29L55.875 30.125L56.875 31L55.5 32.25L56.375 33L54.375 35.5L45 32.625C40.4167 28.9583 38.1667 27.0833 38.25 27C38.3333 26.9167 44 22.625 55.25 14.125Z" fill="#8E5A30"/>
</svg>
