<svg width="54" height="54" viewBox="0 0 54 54" fill="none" xmlns="http://www.w3.org/2000/svg">
<rect width="54" height="54" rx="4" fill="#D3CE57" fill-opacity="0.1"/>
<path opacity="0.3" d="M26.9993 40.3333C34.3631 40.3333 40.3327 34.3638 40.3327 27C40.3327 19.6362 34.3631 13.6667 26.9993 13.6667C19.6356 13.6667 13.666 19.6362 13.666 27C13.666 34.3638 19.6356 40.3333 26.9993 40.3333Z" fill="#D3CE57"/>
<path d="M26.9993 25.1333C27.353 25.1333 27.6921 25.2738 27.9422 25.5239C28.1922 25.7739 28.3327 26.113 28.3327 26.4667V32.68C28.3327 33.0336 28.1922 33.3728 27.9422 33.6228C27.6921 33.8729 27.353 34.0133 26.9993 34.0133C26.6457 34.0133 26.3066 33.8729 26.0565 33.6228C25.8065 33.3728 25.666 33.0336 25.666 32.68V26.4667C25.666 26.113 25.8065 25.7739 26.0565 25.5239C26.3066 25.2738 26.6457 25.1333 26.9993 25.1333Z" fill="#D3CE57"/>
<path d="M26.9987 23.32C27.9192 23.32 28.6654 22.5738 28.6654 21.6533C28.6654 20.7329 27.9192 19.9867 26.9987 19.9867C26.0782 19.9867 25.332 20.7329 25.332 21.6533C25.332 22.5738 26.0782 23.32 26.9987 23.32Z" fill="#D3CE57"/>
</svg>
