<svg width="70" height="70" viewBox="0 0 70 70" fill="none" xmlns="http://www.w3.org/2000/svg">
<rect width="70" height="70" rx="6" fill="#3D3D3D"/>
<path d="M19.25 26.25C18.7542 26.25 18.3385 26.0823 18.0031 25.7469C17.6677 25.4115 17.5 24.9958 17.5 24.5V19.25C17.5 18.7542 17.6677 18.3385 18.0031 18.0031C18.3385 17.6677 18.7542 17.5 19.25 17.5H24.5C24.9958 17.5 25.4115 17.6677 25.7469 18.0031C26.0823 18.3385 26.25 18.7542 26.25 19.25C26.25 19.7458 26.0823 20.1615 25.7469 20.4969C25.4115 20.8323 24.9958 21 24.5 21H21V24.5C21 24.9958 20.8323 25.4115 20.4969 25.7469C20.1615 26.0823 19.7458 26.25 19.25 26.25ZM19.25 52.5C18.7542 52.5 18.3385 52.3323 18.0031 51.9969C17.6677 51.6615 17.5 51.2458 17.5 50.75V45.5C17.5 45.0042 17.6677 44.5885 18.0031 44.2531C18.3385 43.9177 18.7542 43.75 19.25 43.75C19.7458 43.75 20.1615 43.9177 20.4969 44.2531C20.8323 44.5885 21 45.0042 21 45.5V49H24.5C24.9958 49 25.4115 49.1677 25.7469 49.5031C26.0823 49.8385 26.25 50.2542 26.25 50.75C26.25 51.2458 26.0823 51.6615 25.7469 51.9969C25.4115 52.3323 24.9958 52.5 24.5 52.5H19.25ZM45.5 52.5C45.0042 52.5 44.5885 52.3323 44.2531 51.9969C43.9177 51.6615 43.75 51.2458 43.75 50.75C43.75 50.2542 43.9177 49.8385 44.2531 49.5031C44.5885 49.1677 45.0042 49 45.5 49H49V45.5C49 45.0042 49.1677 44.5885 49.5031 44.2531C49.8385 43.9177 50.2542 43.75 50.75 43.75C51.2458 43.75 51.6615 43.9177 51.9969 44.2531C52.3323 44.5885 52.5 45.0042 52.5 45.5V50.75C52.5 51.2458 52.3323 51.6615 51.9969 51.9969C51.6615 52.3323 51.2458 52.5 50.75 52.5H45.5ZM50.75 26.25C50.2542 26.25 49.8385 26.0823 49.5031 25.7469C49.1677 25.4115 49 24.9958 49 24.5V21H45.5C45.0042 21 44.5885 20.8323 44.2531 20.4969C43.9177 20.1615 43.75 19.7458 43.75 19.25C43.75 18.7542 43.9177 18.3385 44.2531 18.0031C44.5885 17.6677 45.0042 17.5 45.5 17.5H50.75C51.2458 17.5 51.6615 17.6677 51.9969 18.0031C52.3323 18.3385 52.5 18.7542 52.5 19.25V24.5C52.5 24.9958 52.3323 25.4115 51.9969 25.7469C51.6615 26.0823 51.2458 26.25 50.75 26.25ZM44.625 47.25V44.625H47.25V47.25H44.625ZM44.625 42V39.375H47.25V42H44.625ZM42 44.625V42H44.625V44.625H42ZM39.375 47.25V44.625H42V47.25H39.375ZM36.75 44.625V42H39.375V44.625H36.75ZM42 39.375V36.75H44.625V39.375H42ZM39.375 42V39.375H42V42H39.375ZM36.75 39.375V36.75H39.375V39.375H36.75ZM38.5 33.25C38.0042 33.25 37.5885 33.0823 37.2531 32.7469C36.9177 32.4115 36.75 31.9958 36.75 31.5V24.5C36.75 24.0042 36.9177 23.5885 37.2531 23.2531C37.5885 22.9177 38.0042 22.75 38.5 22.75H45.5C45.9958 22.75 46.4115 22.9177 46.7469 23.2531C47.0823 23.5885 47.25 24.0042 47.25 24.5V31.5C47.25 31.9958 47.0823 32.4115 46.7469 32.7469C46.4115 33.0823 45.9958 33.25 45.5 33.25H38.5ZM24.5 47.25C24.0042 47.25 23.5885 47.0823 23.2531 46.7469C22.9177 46.4115 22.75 45.9958 22.75 45.5V38.5C22.75 38.0042 22.9177 37.5885 23.2531 37.2531C23.5885 36.9177 24.0042 36.75 24.5 36.75H31.5C31.9958 36.75 32.4115 36.9177 32.7469 37.2531C33.0823 37.5885 33.25 38.0042 33.25 38.5V45.5C33.25 45.9958 33.0823 46.4115 32.7469 46.7469C32.4115 47.0823 31.9958 47.25 31.5 47.25H24.5ZM24.5 33.25C24.0042 33.25 23.5885 33.0823 23.2531 32.7469C22.9177 32.4115 22.75 31.9958 22.75 31.5V24.5C22.75 24.0042 22.9177 23.5885 23.2531 23.2531C23.5885 22.9177 24.0042 22.75 24.5 22.75H31.5C31.9958 22.75 32.4115 22.9177 32.7469 23.2531C33.0823 23.5885 33.25 24.0042 33.25 24.5V31.5C33.25 31.9958 33.0823 32.4115 32.7469 32.7469C32.4115 33.0823 31.9958 33.25 31.5 33.25H24.5ZM25.375 44.625H30.625V39.375H25.375V44.625ZM25.375 30.625H30.625V25.375H25.375V30.625ZM39.375 30.625H44.625V25.375H39.375V30.625Z" fill="#E9E6EA"/>
<g clip-path="url(#clip0_2682_1410)">
<path fill-rule="evenodd" clip-rule="evenodd" d="M30.7852 42.5L33.4102 43.1965V42.2857L33.6245 42.0714H35.1245V43.1429V43.8929H33.5173L31.5352 43.0357L30.7852 42.5Z" fill="#CDBDB2"/>
<path fill-rule="evenodd" clip-rule="evenodd" d="M39.3555 42.5L36.784 43.1965V42.2857L36.5698 42.0714H35.0698V43.1429V43.8929H36.6769L38.659 43.0357L39.3555 42.5Z" fill="#CDBDB2"/>
<path fill-rule="evenodd" clip-rule="evenodd" d="M33.6244 40.5179L33.4102 42.2857L33.678 42.0714H36.4637L36.7851 42.2857L36.5708 40.5179L36.1423 40.25L33.9994 40.3036L33.6244 40.5179Z" fill="#393939"/>
<path fill-rule="evenodd" clip-rule="evenodd" d="M32.1777 28.5714L33.4634 31.5714L34.0528 40.3036H36.142L36.7849 31.5714L37.9634 28.5714H32.1777Z" fill="#F89C35"/>
<path fill-rule="evenodd" clip-rule="evenodd" d="M26.5527 35.1608L25.0527 39.5L28.8027 39.2857H31.2134V37.4108L31.1063 33.5536L30.5705 33.9822L26.5527 35.1608Z" fill="#F89D35"/>
<path fill-rule="evenodd" clip-rule="evenodd" d="M29.3926 35.6429L33.7854 35.75L33.3033 38L31.214 37.4643L29.3926 35.6429Z" fill="#D87C30"/>
<path fill-rule="evenodd" clip-rule="evenodd" d="M29.3926 35.6965L31.214 37.4108V39.125L29.3926 35.6965Z" fill="#EA8D3A"/>
<path fill-rule="evenodd" clip-rule="evenodd" d="M31.2129 37.4643L33.3557 38L34.0522 40.3036L33.57 40.5714L31.2129 39.1786V37.4643Z" fill="#F89D35"/>
<path fill-rule="evenodd" clip-rule="evenodd" d="M31.2137 39.1786L30.7852 42.5L33.6245 40.5179L31.2137 39.1786Z" fill="#EB8F35"/>
<path fill-rule="evenodd" clip-rule="evenodd" d="M33.7857 35.75L34.0536 40.3036L33.25 37.9732L33.7857 35.75Z" fill="#EA8E3A"/>
<path fill-rule="evenodd" clip-rule="evenodd" d="M28.75 39.2322L31.2143 39.1786L30.7857 42.5L28.75 39.2322Z" fill="#D87C30"/>
<path fill-rule="evenodd" clip-rule="evenodd" d="M26.2313 43.9465L30.7848 42.5L28.7491 39.2322L25.0527 39.5L26.2313 43.9465Z" fill="#EB8F35"/>
<path fill-rule="evenodd" clip-rule="evenodd" d="M33.464 31.5714L31.1605 33.5L29.3926 35.6429L33.7854 35.8036L33.464 31.5714Z" fill="#E8821E"/>
<path fill-rule="evenodd" clip-rule="evenodd" d="M30.7852 42.5L33.6245 40.5179L33.4102 42.2322V43.1965L31.4816 42.8214L30.7852 42.5Z" fill="#DFCEC3"/>
<path fill-rule="evenodd" clip-rule="evenodd" d="M39.3555 42.5L36.5698 40.5179L36.784 42.2322V43.1965L38.7126 42.8214L39.3555 42.5Z" fill="#DFCEC3"/>
<path fill-rule="evenodd" clip-rule="evenodd" d="M32.606 36.7143L33.1953 37.9465L31.106 37.4108L32.606 36.7143Z" fill="#393939"/>
<path fill-rule="evenodd" clip-rule="evenodd" d="M26.1777 26.0536L33.4634 31.5714L32.2314 28.5714L26.1777 26.0536Z" fill="#E88F35"/>
<path fill-rule="evenodd" clip-rule="evenodd" d="M26.1772 26.0536L25.2129 29L25.7486 32.2143L25.3736 32.4286L25.9093 32.9107L25.4807 33.2857L26.07 33.8214L25.695 34.1429L26.5522 35.2143L30.57 33.9821C32.5343 32.4107 33.4986 31.6071 33.4629 31.5714C33.4272 31.5357 30.9986 29.6964 26.1772 26.0536Z" fill="#8E5A30"/>
<path fill-rule="evenodd" clip-rule="evenodd" d="M43.5879 35.1608L45.0879 39.5L41.3379 39.2857H38.9272V37.4108L39.0344 33.5536L39.5701 33.9822L43.5879 35.1608Z" fill="#F89D35"/>
<path fill-rule="evenodd" clip-rule="evenodd" d="M40.748 35.6429L36.3552 35.75L36.8373 38L38.9266 37.4643L40.748 35.6429Z" fill="#D87C30"/>
<path fill-rule="evenodd" clip-rule="evenodd" d="M40.748 35.6965L38.9266 37.4108V39.125L40.748 35.6965Z" fill="#EA8D3A"/>
<path fill-rule="evenodd" clip-rule="evenodd" d="M38.9277 37.4643L36.7849 38L36.0884 40.3036L36.5706 40.5714L38.9277 39.1786V37.4643Z" fill="#F89D35"/>
<path fill-rule="evenodd" clip-rule="evenodd" d="M38.9269 39.1786L39.3555 42.5L36.5698 40.5714L38.9269 39.1786Z" fill="#EB8F35"/>
<path fill-rule="evenodd" clip-rule="evenodd" d="M36.3549 35.75L36.087 40.3036L36.8906 37.9732L36.3549 35.75Z" fill="#EA8E3A"/>
<path fill-rule="evenodd" clip-rule="evenodd" d="M41.3906 39.2322L38.9263 39.1786L39.3549 42.5L41.3906 39.2322Z" fill="#D87C30"/>
<path fill-rule="evenodd" clip-rule="evenodd" d="M43.9093 43.9465L39.3558 42.5L41.3915 39.2322L45.0879 39.5L43.9093 43.9465Z" fill="#EB8F35"/>
<path fill-rule="evenodd" clip-rule="evenodd" d="M36.6766 31.5714L38.9801 33.5L40.748 35.6429L36.3552 35.8036L36.6766 31.5714Z" fill="#E8821E"/>
<path fill-rule="evenodd" clip-rule="evenodd" d="M37.5346 36.7143L36.9453 37.9465L39.0346 37.4108L37.5346 36.7143Z" fill="#393939"/>
<path fill-rule="evenodd" clip-rule="evenodd" d="M43.9629 26.0536L36.6772 31.5714L37.9093 28.5714L43.9629 26.0536Z" fill="#E88F35"/>
<path fill-rule="evenodd" clip-rule="evenodd" d="M43.9634 26.0536L44.9277 29L44.392 32.2143L44.767 32.4286L44.2313 32.9107L44.6599 33.2857L44.0706 33.8214L44.4456 34.1429L43.5884 35.2143L39.5706 33.9821C37.6063 32.4107 36.642 31.6071 36.6777 31.5714C36.7134 31.5357 39.142 29.6964 43.9634 26.0536Z" fill="#8E5A30"/>
</g>
<defs>
<clipPath id="clip0_2682_1410">
<rect width="20.1905" height="18" fill="white" transform="translate(25 26)"/>
</clipPath>
</defs>
</svg>
