<svg width="20" height="20" viewBox="0 0 20 20" fill="none" xmlns="http://www.w3.org/2000/svg">
<path opacity="0.3" d="M10.0003 18.3333C14.6027 18.3333 18.3337 14.6024 18.3337 10C18.3337 5.39763 14.6027 1.66667 10.0003 1.66667C5.39795 1.66667 1.66699 5.39763 1.66699 10C1.66699 14.6024 5.39795 18.3333 10.0003 18.3333Z" fill="#E9FF5F"/>
<path d="M13.5417 10.625H10C9.83491 10.6228 9.67719 10.5563 9.56045 10.4396C9.4437 10.3228 9.37716 10.1651 9.375 10V5C9.375 4.83424 9.44085 4.67527 9.55806 4.55806C9.67527 4.44085 9.83424 4.375 10 4.375C10.1658 4.375 10.3247 4.44085 10.4419 4.55806C10.5592 4.67527 10.625 4.83424 10.625 5V9.39167H13.5417C13.7074 9.39167 13.8664 9.45751 13.9836 9.57473C14.1008 9.69194 14.1667 9.85091 14.1667 10.0167C14.1667 10.1824 14.1008 10.3414 13.9836 10.4586C13.8664 10.5758 13.7074 10.6417 13.5417 10.6417V10.625Z" fill="#E9FF5F"/>
</svg>
